SplineFontDB: 3.2
FontName: Caudex-Bold
FullName: Caudex Bold
FamilyName: Caudex
Weight: Bold
Copyright: Copyright (c) The Caudex Contributors (https://github.com/nidud/caudex)
Version: 1.08
ItalicAngle: 0
UnderlinePosition: -100
UnderlineWidth: 30
Ascent: 1638
Descent: 410
InvalidEm: 0
LayerCount: 2
Layer: 0 1 "Back" 1
Layer: 1 1 "Fore" 0
XUID: [1021 997 1545580258 12644143]
FSType: 0
OS2Version: 0
OS2_WeightWidthSlopeOnly: 0
OS2_UseTypoMetrics: 1
CreationTime: 936868149
ModificationTime: 1465178175
PfmFamily: 17
TTFWeight: 700
TTFWidth: 5
LineGap: 0
VLineGap: 0
Panose: 2 4 8 2 5 5 5 3 3 4
OS2TypoAscent: 2034
OS2TypoAOffset: 0
OS2TypoDescent: -606
OS2TypoDOffset: 0
OS2TypoLinegap: 0
OS2WinAscent: 2034
OS2WinAOffset: 0
OS2WinDescent: 606
OS2WinDOffset: 0
HheadAscent: 2034
HheadAOffset: 0
HheadDescent: -606
HheadDOffset: 0
OS2SubXSize: 1285
OS2SubYSize: 1230
OS2SubXOff: 0
OS2SubYOff: 0
OS2SupXSize: 655
OS2SupYSize: 860
OS2SupXOff: 0
OS2SupYOff: 550
OS2StrikeYSize: 100
OS2StrikeYPos: 530
OS2FamilyClass: 260
OS2Vendor: 'PfEd'
Lookup: 258 0 0 "'kern' Horizontal Kerning in Latin lookup 0" { "'kern' Horizontal Kerning in Latin lookup 0 subtable" [307,0,0] } ['kern' ('latn' <'dflt' > ) ]
MarkAttachClasses: 1
DEI: 91125
KernClass2: 18 19 "'kern' Horizontal Kerning in Latin lookup 0 subtable"
 148 A Aacute Agrave Acircumflex Adieresis Atilde Abreve Aring Aringacute Amacron Aogonek uni1EA0 uni1EA2 uni1EA4 uni1EA6 uni1EA8 uni1EAA uni1EAC uni1EAE
 17 F uni03DC uni1E1E
 32 L Lacute uniE19E uni1E36 uniA748
 45 P Rho uni1E54 uni1E56 uniA750 uniA752 uniA754
 31 R Racute Rcaron uni1E58 uni1E5A
 24 T Tcaron uni1E6A uni1E6C
 71 V W Wcircumflex uni1E7E Wgrave Wacute Wdieresis uni1E86 uni1E88 uniA760
 70 Y Ycircumflex Ydieresis uni0232 Upsilondieresis Ygrave uni1EF4 uni1EF6
 9 r uni1E5B
 87 v w wcircumflex uni1D20 uni1D21 uni1E7F wgrave wacute wdieresis uni1E87 uni1E89 uniA761
 28 y ycircumflex uni1E8F ygrave
 12 quotedblbase
 9 quoteleft
 10 quoteright
 12 quotedblleft

StartChar: .notdef
Encoding: 65536 -1 0
Width: 772
Flags: W
LayerCount: 2
Fore
SplineSet
0 1404 m 1,0,-1
 772 1404 l 1,1,-1
 772 0 l 1,2,-1
 0 0 l 1,3,-1
 0 1404 l 1,0,-1
272 244 m 2,5,-1
 272 175 l 2,6,7
 272 102 272 102 364 102 c 256,8,9
 456 102 456 102 456 175 c 2,10,-1
 456 244 l 2,11,12
 456 317 456 317 364 317 c 256,13,4
 272 317 272 317 272 244 c 2,5,-1
399 504 m 2,14,-1
 402 653 l 2,15,16
 403 713 403 713 420 744 c 0,17,18
 436 773 436 773 487 805 c 0,19,20
 508 819 508 819 524 829 c 0,21,22
 668 917 668 917 668 1059 c 0,23,24
 668 1172 668 1172 593 1237 c 0,25,26
 517 1302 517 1302 383 1302 c 0,27,28
 253 1302 253 1302 179 1235 c 1,29,30
 104 1169 104 1169 104 1054 c 0,31,32
 104 1028 104 1028 118 1016 c 0,33,34
 132 1005 132 1005 162 1005 c 0,35,36
 188 1005 188 1005 206 1016 c 0,37,38
 221 1026 221 1026 223 1046 c 0,39,40
 232 1162 232 1162 264 1204 c 1,41,42
 295 1248 295 1248 363 1248 c 0,43,44
 440 1248 440 1248 480 1201 c 1,45,46
 518 1154 518 1154 518 1059 c 0,47,48
 518 971 518 971 478 908 c 1,49,50
 436 844 436 844 331 771 c 1,51,-1
 331 505 l 2,52,53
 331 464 331 464 341 436 c 0,54,55
 349 411 349 411 364 411 c 0,56,57
 381 411 381 411 390 433 c 256,58,59
 399 455 399 455 399 504 c 2,14,-1
EndSplineSet
Validated: 1
EndChar

StartChar: exclam
Encoding: 33 33 4
Width: 550
Flags: W
LayerCount: 2
Fore
SplineSet
282 250 m 0,0,1
 417 250 417 250 417 143 c 2,2,-1
 417 61 l 2,3,4
 417 -45 417 -45 282 -45 c 0,5,6
 147 -45 147 -45 147 61 c 2,7,-1
 147 143 l 2,8,9
 147 250 147 250 282 250 c 0,0,1
344 374 m 1,10,11
 344 331 344 331 294 331 c 2,12,-1
 273 331 l 2,13,14
 224 331 224 331 224 374 c 1,15,-1
 154 1329 l 1,16,-1
 154 1340 l 2,17,18
 154 1424 154 1424 252 1424 c 2,19,-1
 315 1424 l 2,20,21
 414 1424 414 1424 414 1339 c 2,22,-1
 414 1329 l 1,23,-1
 344 374 l 1,10,11
EndSplineSet
Validated: 1
EndChar

StartChar: numbersign
Encoding: 35 35 5
Width: 1100
Flags: W
LayerCount: 2
Fore
SplineSet
249 22 m 2,0,-1
 308 362 l 1,1,-1
 58 362 l 2,2,3
 20 362 20 362 20 390 c 2,4,-1
 20 394 l 1,5,-1
 35 480 l 1,6,7
 41 507 41 507 76 507 c 2,8,-1
 333 507 l 1,9,-1
 374 742 l 1,10,-1
 124 742 l 2,11,12
 86 742 86 742 86 770 c 2,13,-1
 86 774 l 1,14,-1
 101 860 l 1,15,16
 107 887 107 887 142 887 c 2,17,-1
 399 887 l 1,18,-1
 459 1233 l 2,19,20
 465 1267 465 1267 497 1267 c 2,21,-1
 582 1267 l 2,22,23
 615 1267 615 1267 615 1238 c 0,24,25
 615 1233 615 1233 614 1227 c 2,26,-1
 555 887 l 1,27,-1
 691 887 l 1,28,-1
 751 1233 l 2,29,30
 757 1267 757 1267 790 1267 c 2,31,-1
 874 1267 l 2,32,33
 908 1267 908 1267 908 1238 c 0,34,35
 908 1233 908 1233 907 1227 c 2,36,-1
 848 887 l 1,37,-1
 1097 887 l 2,38,39
 1136 887 1136 887 1136 862 c 0,40,41
 1136 858 1136 858 1135 854 c 2,42,-1
 1120 770 l 1,43,44
 1117 742 1117 742 1079 742 c 2,45,-1
 823 742 l 1,46,-1
 782 507 l 1,47,-1
 1031 507 l 2,48,49
 1070 507 1070 507 1070 482 c 0,50,51
 1070 478 1070 478 1069 474 c 2,52,-1
 1054 390 l 1,53,54
 1051 362 1051 362 1013 362 c 2,55,-1
 757 362 l 1,56,-1
 697 16 l 2,57,58
 691 -19 691 -19 658 -19 c 2,59,-1
 574 -19 l 2,60,61
 540 -19 540 -19 540 12 c 0,62,63
 540 17 540 17 541 22 c 2,64,-1
 600 362 l 1,65,-1
 464 362 l 1,66,-1
 404 16 l 2,67,68
 398 -19 398 -19 366 -19 c 2,69,-1
 281 -19 l 2,70,71
 248 -19 248 -19 248 12 c 0,72,73
 248 16 248 16 249 22 c 2,0,-1
530 742 m 1,74,-1
 489 507 l 1,75,-1
 625 507 l 1,76,-1
 666 742 l 1,77,-1
 530 742 l 1,74,-1
EndSplineSet
Validated: 1
EndChar

StartChar: dollar
Encoding: 36 36 6
Width: 1100
Flags: W
LayerCount: 2
Fore
SplineSet
857 388 m 2,0,-1
 857 399 l 1,1,2
 854 503 854 503 779 557 c 0,3,4
 744 582 744 582 668 604 c 0,5,6
 652 609 652 609 634 612 c 1,7,-1
 634 87 l 1,8,9
 665 96 665 96 702 114 c 0,10,11
 771 148 771 148 814 218 c 0,12,13
 857 287 857 287 857 388 c 2,0,-1
634 1467 m 1,14,15
 844 1451 844 1451 1005 1347 c 1,16,-1
 980 1126 l 2,17,18
 976 1090 976 1090 936 1090 c 2,19,-1
 931 1090 l 1,20,21
 901 1092 901 1092 883 1131 c 0,22,23
 842 1217 842 1217 766 1276 c 0,24,25
 703 1325 703 1325 634 1336 c 1,26,-1
 634 837 l 1,27,28
 666 832 666 832 704 826 c 0,29,30
 768 816 768 816 852 790 c 128,-1,31
 936 764 936 764 982 712 c 0,32,33
 1028 662 1028 662 1054 602 c 128,-1,34
 1080 542 1080 542 1081 459 c 0,35,36
 1081 237 1081 237 900 89 c 0,37,38
 806 12 806 12 703 -21 c 0,39,40
 666 -33 666 -33 634 -41 c 1,41,-1
 634 -143 l 2,42,43
 634 -186 634 -186 585 -186 c 2,44,-1
 539 -186 l 2,45,46
 492 -186 492 -186 492 -143 c 2,47,-1
 492 -58 l 1,48,49
 465 -59 465 -59 452 -59 c 0,50,51
 309 -59 309 -59 165 -15 c 1,52,-1
 67 258 l 2,53,54
 64 266 64 266 64 278 c 0,55,56
 64 289 64 289 76 308 c 128,-1,57
 88 327 88 327 121 327 c 1,58,59
 148 320 148 320 165 285 c 0,60,61
 226 152 226 152 308 112 c 0,62,63
 385 75 385 75 492 73 c 1,64,-1
 492 636 l 1,65,66
 486 638 486 638 480 638 c 0,67,68
 368 650 368 650 269 698 c 0,69,70
 168 746 168 746 122 832 c 128,-1,71
 76 918 76 918 76 1018 c 0,72,73
 76 1213 76 1213 216 1341 c 0,74,75
 329 1444 329 1444 492 1464 c 1,76,-1
 492 1551 l 2,77,78
 492 1594 492 1594 539 1594 c 2,79,-1
 585 1594 l 2,80,81
 634 1594 634 1594 634 1551 c 2,82,-1
 634 1467 l 1,14,15
492 1328 m 1,83,84
 470 1322 470 1322 450 1313 c 0,85,86
 396 1287 396 1287 370 1261 c 0,87,88
 346 1234 346 1234 329 1200 c 128,-1,89
 312 1166 312 1166 304 1130 c 0,90,91
 297 1098 297 1098 297 1069 c 0,92,93
 297 1065 297 1065 297 1062 c 0,94,95
 297 1030 297 1030 308 999 c 1,96,97
 327 938 327 938 367 909 c 0,98,99
 408 880 408 880 440 872 c 0,100,101
 465 865 465 865 492 860 c 1,102,-1
 492 1328 l 1,83,84
EndSplineSet
Validated: 1
EndChar

StartChar: percent
Encoding: 37 37 7
Width: 1300
Flags: W
LayerCount: 2
Fore
SplineSet
166 -52 m 1,0,-1
 1118 1440 l 1,1,-1
 1265 1440 l 1,2,-1
 314 -52 l 1,3,-1
 166 -52 l 1,0,-1
264 1383 m 1,4,5
 187 1382 187 1382 173 1316.5 c 128,-1,6
 159 1251 159 1251 159 1204 c 2,7,-1
 159 969 l 2,8,9
 159 922 159 922 174.5 856 c 128,-1,10
 190 790 190 790 253 790 c 256,11,12
 316 790 316 790 343 841.5 c 128,-1,13
 370 893 370 893 370 969 c 2,14,-1
 370 1204 l 2,15,16
 370 1279 370 1279 345 1331 c 128,-1,17
 320 1383 320 1383 265 1383 c 2,18,-1
 264 1383 l 1,4,5
266 1434 m 0,19,20
 371 1434 371 1434 427 1369 c 128,-1,21
 483 1304 483 1304 483 1215 c 2,22,-1
 483 958 l 2,23,24
 483 868 483 868 419.5 803.5 c 128,-1,25
 356 739 356 739 253 739 c 128,-1,26
 150 739 150 739 98 804 c 128,-1,27
 46 869 46 869 46 958 c 2,28,-1
 46 1215 l 2,29,30
 46 1304 46 1304 103 1369 c 128,-1,31
 160 1434 160 1434 266 1434 c 0,19,20
1064 623 m 1,32,33
 987 622 987 622 973 556.5 c 128,-1,34
 959 491 959 491 959 444 c 2,35,-1
 959 209 l 2,36,37
 959 162 959 162 974.5 96 c 128,-1,38
 990 30 990 30 1053 30 c 256,39,40
 1116 30 1116 30 1143 81.5 c 128,-1,41
 1170 133 1170 133 1170 209 c 2,42,-1
 1170 444 l 2,43,44
 1170 519 1170 519 1145 571 c 128,-1,45
 1120 623 1120 623 1065 623 c 2,46,-1
 1064 623 l 1,32,33
1066 674 m 0,47,48
 1171 674 1171 674 1227 609 c 128,-1,49
 1283 544 1283 544 1283 455 c 2,50,-1
 1283 198 l 2,51,52
 1283 108 1283 108 1219.5 43.5 c 128,-1,53
 1156 -21 1156 -21 1053 -21 c 128,-1,54
 950 -21 950 -21 898 44 c 128,-1,55
 846 109 846 109 846 198 c 2,56,-1
 846 455 l 2,57,58
 846 544 846 544 903 609 c 128,-1,59
 960 674 960 674 1066 674 c 0,47,48
EndSplineSet
Validated: 1
EndChar

StartChar: ampersand
Encoding: 38 38 8
Width: 1292
Flags: W
LayerCount: 2
Fore
SplineSet
931 303 m 1,0,-1
 1042 165 l 1,1,2
 1088 106 1088 106 1189 58 c 1,3,4
 1223 43 1223 43 1235 24 c 1,5,6
 1238 13 1238 13 1238 4 c 1,7,8
 1236 0 1236 0 1236 -4 c 1,9,10
 1218 -22 1218 -22 1197 -22 c 2,11,-1
 953 -22 l 2,12,13
 903 -22 903 -22 853 57 c 1,14,15
 820 107 820 107 807 122 c 1,16,17
 744 44 744 44 648 -4 c 0,18,19
 550 -52 550 -52 428 -52 c 0,20,21
 280 -52 280 -52 191 37 c 1,22,23
 113 117 113 117 113 240 c 0,24,25
 113 253 113 253 114 265 c 0,26,27
 120 389 120 389 190 488 c 1,28,29
 255 583 255 583 396 676 c 1,30,31
 344 746 344 746 309 829 c 0,32,33
 278 901 278 901 278 982 c 0,34,35
 278 996 278 996 279 1010 c 0,36,37
 284 1148 284 1148 372 1235 c 0,38,39
 459 1322 459 1322 600 1322 c 0,40,41
 738 1322 738 1322 813 1251 c 0,42,43
 882 1185 882 1185 882 1079 c 2,44,-1
 882 1062 l 1,45,46
 875 951 875 951 810 865 c 0,47,48
 743 776 743 776 624 701 c 1,49,-1
 855 398 l 1,50,-1
 948 571 l 1,51,52
 954 585 954 585 956 599 c 0,53,54
 957 604 957 604 957 608 c 0,55,56
 957 616 957 616 955 621 c 0,57,58
 952 631 952 631 945.5 639 c 128,-1,59
 939 647 939 647 935 660 c 0,60,61
 933 666 933 666 933 671 c 2,62,-1
 933 674 l 2,63,64
 933 677 933 677 936 686 c 0,65,66
 948 720 948 720 981 720 c 2,67,-1
 1239 720 l 2,68,69
 1262 720 1262 720 1274 706 c 0,70,71
 1280 700 1280 700 1280 690 c 2,72,-1
 1280 688 l 2,73,74
 1280 683 1280 683 1278 675 c 1,75,76
 1268 656 1268 656 1233 639 c 0,77,78
 1217 632 1217 632 1200 624 c 128,-1,79
 1183 616 1183 616 1168 606 c 0,80,81
 1098 561 1098 561 1047 485 c 128,-1,82
 996 409 996 409 931 303 c 1,0,-1
559 788 m 1,83,84
 623 826 623 826 663 890 c 1,85,86
 701 953 701 953 708 1052 c 1,87,-1
 708 1066 l 2,88,89
 708 1130 708 1130 685 1176 c 0,90,91
 664 1216 664 1216 593 1216 c 0,92,93
 538 1216 538 1216 507 1180 c 0,94,95
 471 1137 471 1137 467 1061 c 0,96,97
 466 1050 466 1050 466 1041 c 0,98,99
 466 906 466 906 559 788 c 1,83,84
737 214 m 1,100,-1
 457 584 l 1,101,102
 331 492 331 492 323 336 c 0,103,104
 322 326 322 326 322 316 c 0,105,106
 322 220 322 220 374 152 c 0,107,108
 428 82 428 82 509 82 c 0,109,110
 581 82 581 82 639.5 122.5 c 128,-1,111
 698 163 698 163 737 214 c 1,100,-1
EndSplineSet
Validated: 1
EndChar

StartChar: quotesingle
Encoding: 39 39 9
Width: 426
Flags: W
LayerCount: 2
Fore
SplineSet
272 968 m 1,0,1
 272 937 272 937 228 937 c 2,2,-1
 213 937 l 2,3,4
 170 937 170 937 170 968 c 1,5,-1
 118 1408 l 1,6,-1
 118 1413 l 2,7,8
 118 1463 118 1463 197 1463 c 2,9,-1
 244 1463 l 2,10,11
 323 1463 323 1463 323 1414 c 2,12,-1
 323 1408 l 1,13,-1
 272 968 l 1,0,1
EndSplineSet
Validated: 1
EndChar

StartChar: parenleft
Encoding: 40 40 10
Width: 646
Flags: W
LayerCount: 2
Fore
SplineSet
54 568 m 0,0,1
 54 805 54 805 152 1056.5 c 128,-1,2
 250 1308 250 1308 566 1483 c 0,3,4
 579 1491 579 1491 592 1491 c 0,5,6
 601 1491 601 1491 613 1485 c 1,7,8
 624 1474 624 1474 624 1442 c 2,9,-1
 624 1404 l 1,10,11
 389 1201 389 1201 324.5 1025 c 128,-1,12
 260 849 260 849 260 568 c 0,13,14
 260 286 260 286 324.5 110.5 c 128,-1,15
 389 -65 389 -65 624 -268 c 1,16,-1
 624 -306 l 2,17,18
 624 -338 624 -338 613 -349 c 1,19,20
 601 -355 601 -355 592 -355 c 0,21,22
 579 -355 579 -355 566 -347 c 0,23,24
 250 -172 250 -172 152 79 c 128,-1,25
 54 330 54 330 54 568 c 0,0,1
EndSplineSet
Validated: 1
EndChar

StartChar: comma
Encoding: 44 44 11
Width: 480
Flags: W
LayerCount: 2
Fore
SplineSet
249 -241 m 1,0,1
 214 -269 214 -269 179 -269 c 0,2,3
 154 -269 154 -269 130 -254 c 1,4,5
 116 -238 116 -238 116 -223 c 0,6,7
 116 -211 116 -211 127 -199 c 0,8,9
 149 -175 149 -175 176 -159 c 0,10,11
 260 -107 260 -107 272 -45 c 1,12,13
 167 -45 167 -45 167 61 c 2,14,-1
 167 143 l 2,15,16
 167 250 167 250 302 250 c 256,17,18
 437 250 437 250 437 143 c 2,19,-1
 437 60 l 1,20,21
 411 -136 411 -136 249 -241 c 1,0,1
EndSplineSet
Validated: 1
EndChar

StartChar: hyphen
Encoding: 45 45 12
Width: 1100
Flags: W
LayerCount: 2
Fore
SplineSet
220 416 m 1,0,-1
 220 575 l 1,1,-1
 888 575 l 1,2,-1
 888 416 l 1,3,-1
 220 416 l 1,0,-1
EndSplineSet
Validated: 1
EndChar

StartChar: period
Encoding: 46 46 13
Width: 480
Flags: W
LayerCount: 2
Fore
SplineSet
282 250 m 256,0,1
 417 250 417 250 417 143 c 2,2,-1
 417 61 l 2,3,4
 417 -45 417 -45 282 -45 c 256,5,6
 147 -45 147 -45 147 61 c 2,7,-1
 147 143 l 2,8,9
 147 250 147 250 282 250 c 256,0,1
EndSplineSet
Validated: 1
EndChar

StartChar: slash
Encoding: 47 47 14
Width: 1100
Flags: W
LayerCount: 2
Fore
SplineSet
58 -90 m 1,0,-1
 924 1494 l 1,1,-1
 1118 1494 l 1,2,-1
 254 -90 l 1,3,-1
 58 -90 l 1,0,-1
EndSplineSet
Validated: 1
EndChar

StartChar: zero
Encoding: 48 48 15
Width: 1100
Flags: W
LayerCount: 2
Fore
SplineSet
575 1354 m 1,0,1
 408 1351 408 1351 377 1209 c 128,-1,2
 346 1067 346 1067 346 966 c 2,3,-1
 346 454 l 2,4,5
 346 352 346 352 379.5 209 c 128,-1,6
 413 66 413 66 549 66 c 256,7,8
 685 66 685 66 744.5 178 c 128,-1,9
 804 290 804 290 804 454 c 2,10,-1
 804 966 l 2,11,12
 804 1130 804 1130 750 1242 c 128,-1,13
 696 1354 696 1354 577 1354 c 2,14,-1
 575 1354 l 1,0,1
578 1466 m 0,16,17
 807 1466 807 1466 929 1324 c 128,-1,18
 1051 1182 1051 1182 1051 989 c 2,19,-1
 1051 431 l 2,20,21
 1051 235 1051 235 912 95 c 128,-1,22
 773 -45 773 -45 551 -45 c 0,23,24
 328 -45 328 -45 213.5 96 c 128,-1,25
 99 237 99 237 99 431 c 2,26,-1
 99 989 l 2,27,28
 99 1183 99 1183 223.5 1324.5 c 128,-1,15
 348 1466 348 1466 578 1466 c 0,16,17
EndSplineSet
Validated: 1
EndChar

StartChar: one
Encoding: 49 49 16
Width: 1100
Flags: W
LayerCount: 2
Fore
SplineSet
412 21 m 2,0,-1
 412 26 l 2,1,2
 412 59 412 59 461 76 c 0,3,4
 512 94 512 94 512 146 c 2,5,-1
 512 1232 l 1,6,-1
 308 1232 l 1,7,-1
 308 1311 l 1,8,-1
 742 1496 l 1,9,-1
 742 146 l 2,10,11
 742 93 742 93 792 76 c 128,-1,12
 842 59 842 59 842 22 c 2,13,-1
 842 21 l 2,14,15
 842 -20 842 -20 797 -20 c 2,16,-1
 457 -20 l 2,17,18
 412 -20 412 -20 412 21 c 2,0,-1
EndSplineSet
Validated: 1
EndChar

StartChar: two
Encoding: 50 50 17
Width: 1100
Flags: W
LayerCount: 2
Fore
SplineSet
152 -20 m 1,0,-1
 152 78 l 2,1,2
 152 171 152 171 208 242 c 0,3,4
 258 306 258 306 371 427 c 1,5,6
 437 490 437 490 501 562 c 128,-1,7
 565 634 565 634 637 719.5 c 128,-1,8
 709 805 709 805 742 889.5 c 128,-1,9
 775 974 775 974 775 1032 c 0,10,11
 775 1089 775 1089 752 1133 c 0,12,13
 703 1225 703 1225 611 1261 c 0,14,15
 559 1281 559 1281 508 1281 c 0,16,17
 456 1281 456 1281 409 1270 c 1,18,19
 300 1242 300 1242 229 1138 c 0,20,21
 206 1104 206 1104 191 1060 c 1,22,-1
 143 1060 l 1,23,-1
 143 1213 l 1,24,25
 154 1244 154 1244 165 1265 c 1,26,27
 210 1337 210 1337 288 1393 c 128,-1,28
 366 1449 366 1449 478 1466 c 0,29,30
 522 1472 522 1472 565 1472 c 0,31,32
 706 1472 706 1472 832 1401 c 0,33,34
 1000 1306 1000 1306 1003 1090 c 1,35,-1
 1003 1086 l 2,36,37
 1003 945 1003 945 928 820 c 128,-1,38
 853 695 853 695 751 582.5 c 128,-1,39
 649 470 649 470 546 353 c 128,-1,40
 443 236 443 236 403 170 c 1,41,-1
 734 170 l 2,42,43
 858 170 858 170 1005 223 c 1,44,-1
 1007 32 l 1,45,46
 934 -13 934 -13 864 -16.5 c 128,-1,47
 794 -20 794 -20 736 -20 c 2,48,-1
 152 -20 l 1,0,-1
EndSplineSet
Validated: 1
EndChar

StartChar: three
Encoding: 51 51 18
Width: 1100
Flags: W
LayerCount: 2
Fore
SplineSet
419 -51 m 0,0,1
 281 -51 281 -51 172 34 c 1,2,-1
 166 229 l 1,3,-1
 213 229 l 1,4,5
 277 122 277 122 407 92 c 0,6,7
 455 81 455 81 514 81 c 0,8,9
 572 81 572 81 635 114 c 0,10,11
 730 164 730 164 765 258 c 0,12,13
 784 311 784 311 784 360 c 0,14,15
 784 408 784 408 770 451 c 0,16,17
 740 548 740 548 645.5 618.5 c 128,-1,18
 551 689 551 689 366 692 c 1,19,-1
 362 753 l 1,20,21
 446 780 446 780 531 817.5 c 128,-1,22
 616 855 616 855 656 923 c 128,-1,23
 696 991 696 991 696 1053 c 0,24,25
 696 1071 696 1071 693 1090 c 0,26,27
 679 1168 679 1168 620.5 1228.5 c 128,-1,28
 562 1289 562 1289 473 1289 c 0,29,30
 465 1289 465 1289 458 1288 c 0,31,32
 357 1282 357 1282 291 1203 c 0,33,34
 261 1166 261 1166 245 1108 c 1,35,-1
 196 1108 l 1,36,-1
 196 1289 l 1,37,38
 288 1391 288 1391 383.5 1428.5 c 128,-1,39
 479 1466 479 1466 568 1466 c 1,40,41
 814 1463 814 1463 895 1268 c 0,42,43
 918 1212 918 1212 918 1157 c 0,44,45
 918 1022 918 1022 779 890 c 0,46,47
 750 862 750 862 735 851 c 1,48,49
 857 791 857 791 921 680 c 128,-1,50
 985 569 985 569 985 458 c 0,51,52
 985 443 985 443 984 427 c 0,53,54
 965 203 965 203 752 50 c 0,55,56
 638 -31 638 -31 471 -48 c 0,57,58
 444 -51 444 -51 419 -51 c 0,0,1
EndSplineSet
Validated: 1
EndChar

StartChar: four
Encoding: 52 52 19
Width: 1100
Flags: W
LayerCount: 2
Fore
SplineSet
650 146 m 2,0,-1
 650 395 l 1,1,-1
 68 395 l 1,2,-1
 68 534 l 1,3,-1
 660 1424 l 1,4,-1
 880 1424 l 1,5,-1
 880 576 l 1,6,-1
 1082 576 l 1,7,-1
 1082 395 l 1,8,-1
 880 395 l 1,9,-1
 880 146 l 2,10,11
 880 97 880 97 950 79 c 128,-1,12
 1020 61 1020 61 1022 21 c 1,13,-1
 1022 17 l 2,14,15
 1022 -20 1022 -20 977 -20 c 2,16,-1
 552 -20 l 1,17,18
 506 -18 506 -18 506 18 c 0,19,20
 506 20 506 20 507 22 c 0,21,22
 509 61 509 61 579.5 78.5 c 128,-1,23
 650 96 650 96 650 146 c 2,0,-1
650 576 m 1,24,-1
 650 1165 l 1,25,-1
 262 576 l 1,26,-1
 650 576 l 1,24,-1
EndSplineSet
Validated: 1
EndChar

StartChar: five
Encoding: 53 53 20
Width: 1100
Flags: W
LayerCount: 2
Fore
SplineSet
800 450 m 1,0,-1
 800 478 l 1,1,2
 801 484 801 484 801 489 c 0,3,4
 801 526 801 526 773 585 c 1,5,6
 737 674 737 674 644 724 c 1,7,8
 573 756 573 756 507 756 c 0,9,10
 404 756 404 756 315 676 c 1,11,12
 278 633 278 633 218 633 c 0,13,14
 205 633 205 633 194 635 c 1,15,16
 182 635 182 635 156 637 c 128,-1,17
 130 639 130 639 130 687 c 2,18,-1
 130 1371 l 2,19,20
 130 1406 130 1406 143 1415 c 128,-1,21
 156 1424 156 1424 201 1424 c 2,22,-1
 695 1424 l 2,23,24
 731 1424 731 1424 809.5 1420.5 c 128,-1,25
 888 1417 888 1417 958 1373 c 1,26,-1
 958 1158 l 1,27,28
 818 1210 818 1210 695 1210 c 2,29,-1
 276 1210 l 1,30,-1
 276 803 l 1,31,32
 331 837 331 837 416 870 c 1,33,34
 504 906 504 906 590 906 c 0,35,36
 636 906 636 906 683 895 c 0,37,38
 813 866 813 866 902 782 c 1,39,40
 1044 661 1044 661 1044 450 c 0,41,42
 1044 423 1044 423 1042 394 c 1,43,44
 1016 217 1016 217 892 99 c 0,45,46
 747 -40 747 -40 481 -44 c 1,47,48
 270 -44 270 -44 108 61 c 1,49,-1
 108 279 l 1,50,-1
 153 279 l 1,51,52
 206 184 206 184 301 143 c 1,53,54
 394 101 394 101 486 101 c 2,55,-1
 498 101 l 2,56,57
 509 101 509 101 520 102 c 0,58,59
 624 111 624 111 701 196 c 1,60,61
 797 293 797 293 800 450 c 1,0,-1
EndSplineSet
Validated: 1
EndChar

StartChar: six
Encoding: 54 54 21
Width: 1100
Flags: W
LayerCount: 2
Fore
SplineSet
368.5 756.5 m 128,-1,1
 286 632 286 632 286 459 c 0,2,3
 286 285 286 285 367 174 c 128,-1,4
 448 63 448 63 551 63 c 2,5,-1
 562 63 l 1,6,7
 672 68 672 68 755 192.5 c 128,-1,8
 838 317 838 317 838 491 c 256,9,10
 838 665 838 665 757 776 c 128,-1,11
 676 887 676 887 573 887 c 2,12,-1
 562 887 l 1,13,0
 451 881 451 881 368.5 756.5 c 128,-1,1
551 991 m 0,14,15
 585 991 585 991 620 987 c 0,16,17
 794 968 794 968 909 863 c 0,18,19
 1079 707 1079 707 1080 484 c 1,20,-1
 1080 481 l 2,21,22
 1080 261 1080 261 934 110 c 0,23,24
 784 -46 784 -46 579 -46 c 2,25,-1
 564 -46 l 1,26,27
 343 -40 343 -40 206 109 c 128,-1,28
 69 258 69 258 69 466 c 2,29,-1
 69 475 l 1,30,31
 72 800 72 800 213 1031 c 128,-1,32
 354 1262 354 1262 606 1435 c 0,33,34
 634 1454 634 1454 650.5 1462.5 c 128,-1,35
 667 1471 667 1471 706 1471 c 2,36,-1
 775 1470 l 2,37,38
 843 1470 843 1470 843 1448 c 0,39,40
 843 1425 843 1425 817 1412 c 1,41,42
 652 1297 652 1297 545 1185.5 c 128,-1,43
 438 1074 438 1074 384 972 c 1,44,45
 417 991 417 991 551 991 c 0,14,15
EndSplineSet
Validated: 1
EndChar

StartChar: seven
Encoding: 55 55 22
Width: 1100
Flags: W
LayerCount: 2
Fore
SplineSet
432 146 m 1,0,1
 395 74 395 74 374 -20 c 1,2,-1
 161 -19 l 1,3,4
 156 15 156 15 156 25 c 0,5,6
 159 82 159 82 179 129 c 0,7,8
 207 193 207 193 230 239 c 0,9,10
 304 384 304 384 527 766 c 0,11,12
 696 1055 696 1055 788 1210 c 1,13,-1
 429 1210 l 2,14,15
 304 1210 304 1210 166 1157 c 1,16,-1
 166 1373 l 1,17,18
 234 1415 234 1415 307 1420 c 0,19,20
 372 1424 372 1424 429 1424 c 2,21,-1
 923 1424 l 2,22,23
 969 1424 969 1424 981 1415 c 0,24,25
 994 1406 994 1406 994 1364 c 2,26,-1
 994 1358 l 1,27,28
 993 1285 993 1285 962 1221 c 0,29,30
 828 952 828 952 696 683.5 c 128,-1,31
 564 415 564 415 432 146 c 1,0,1
EndSplineSet
Validated: 1
EndChar

StartChar: eight
Encoding: 56 56 23
Width: 1100
Flags: W
LayerCount: 2
Fore
SplineSet
778.5 664 m 128,-1,1
 698 736 698 736 584 736 c 0,2,3
 469 736 469 736 389 661 c 0,4,5
 306 584 306 584 306 406 c 2,6,-1
 306 402 l 1,7,8
 308 221 308 221 378.5 147.5 c 128,-1,9
 449 74 449 74 584 74 c 0,10,11
 718 74 718 74 789 146 c 128,-1,12
 860 218 860 218 860 405 c 0,13,0
 859 592 859 592 778.5 664 c 128,-1,1
128 1102 m 1,14,15
 129 1287 129 1287 262 1377.5 c 128,-1,16
 395 1468 395 1468 615 1468 c 0,17,18
 834 1468 834 1468 944 1362 c 1,19,20
 1048 1260 1048 1260 1048 1100 c 2,21,-1
 1048 1088 l 1,22,23
 1042 837 1042 837 844 794 c 1,24,25
 909 778 909 778 1001 676 c 1,26,27
 1100 570 1100 570 1100 374 c 2,28,-1
 1100 372 l 2,29,30
 1100 173 1100 173 951 68 c 1,31,32
 802 -40 802 -40 565 -40 c 2,33,-1
 563 -40 l 2,34,35
 326 -40 326 -40 188 74 c 256,36,37
 50 188 50 188 50 402 c 1,38,39
 51 569 51 569 147.5 673.5 c 128,-1,40
 244 778 244 778 320 797 c 1,41,42
 128 842 128 842 128 1102 c 1,14,15
589 1363 m 0,43,44
 471 1363 471 1363 418.5 1288.5 c 128,-1,45
 366 1214 366 1214 365 1104 c 1,46,-1
 365 1095 l 1,47,48
 366 991 366 991 412 917 c 1,49,50
 454 846 454 846 596 846 c 1,51,-1
 598 845 l 1,52,53
 724 845 724 845 769 919 c 128,-1,54
 814 993 814 993 814 1104 c 256,55,56
 814 1215 814 1215 760 1289 c 128,-1,57
 706 1363 706 1363 589 1363 c 0,43,44
EndSplineSet
Validated: 1
EndChar

StartChar: less
Encoding: 60 60 24
Width: 1100
Flags: W
LayerCount: 2
Fore
SplineSet
191 595 m 2,0,1
 177 609 177 609 175 628 c 1,2,-1
 175 630 l 2,3,4
 175 651 175 651 201 677 c 2,5,-1
 819 1281 l 2,6,7
 847 1307 847 1307 874 1307 c 0,8,9
 898 1307 898 1307 916 1289 c 2,10,-1
 965 1239 l 1,11,12
 976 1225 976 1225 977 1207 c 1,13,-1
 977 1204 l 2,14,15
 977 1182 977 1182 954 1158 c 1,16,-1
 415 631 l 1,17,-1
 954 105 l 1,18,19
 975 82 975 82 977 57 c 1,20,-1
 977 53 l 2,21,22
 977 37 977 37 964 23 c 2,23,-1
 914 -27 l 2,24,25
 898 -43 898 -43 874 -43 c 0,26,27
 847 -43 847 -43 819 -17 c 2,28,-1
 191 595 l 2,0,1
EndSplineSet
Validated: 1
EndChar

StartChar: at
Encoding: 64 64 25
Width: 2119
Flags: W
LayerCount: 2
Fore
SplineSet
1885 168 m 0,0,1
 1833 100 1833 100 1764 42 c 128,-1,2
 1695 -16 1695 -16 1614 -49 c 1,3,4
 1520 -89 1520 -89 1428 -89 c 0,5,6
 1359 -89 1359 -89 1292 -66 c 0,7,8
 1182 -28 1182 -28 1182 87 c 2,9,-1
 1182 61 l 1,10,-1
 908 -32 l 2,11,12
 871 -45 871 -45 844 -45 c 2,13,-1
 802 -45 l 1,14,15
 646 -37 646 -37 563 81 c 0,16,17
 499 171 499 171 499 300 c 0,18,19
 499 414 499 414 545 529 c 128,-1,20
 591 644 591 644 658 722 c 1,21,22
 697 769 697 769 775 819 c 0,23,24
 801 835 801 835 835 848 c 1,25,26
 922 878 922 878 1009.5 908 c 128,-1,27
 1097 938 1097 938 1186 968 c 0,28,29
 1208 976 1208 976 1229 976 c 2,30,-1
 1235 976 l 1,31,32
 1303 973 1303 973 1390 942 c 0,33,34
 1400 939 1400 939 1404 937 c 0,35,36
 1421 929 1421 929 1450 918 c 0,37,38
 1457 916 1457 916 1462 916 c 0,39,40
 1469 916 1469 916 1476 920 c 0,41,42
 1500 937 1500 937 1509 946 c 1,43,44
 1522 962 1522 962 1544 962 c 0,45,46
 1554 962 1554 962 1564 958 c 0,47,48
 1596 944 1596 944 1596 922 c 2,49,-1
 1596 918 l 1,50,-1
 1429 196 l 2,51,52
 1420 157 1420 157 1420 128 c 0,53,54
 1420 55 1420 55 1475 41 c 0,55,56
 1489 37 1489 37 1504 37 c 0,57,58
 1536 37 1536 37 1575 53 c 1,59,60
 1639 77 1639 77 1690 125 c 1,61,62
 1777 204 1777 204 1835 356 c 0,63,64
 1894 511 1894 511 1894 699 c 0,65,66
 1894 1034 1894 1034 1692 1190 c 0,67,68
 1485 1350 1485 1350 1191 1350 c 0,69,70
 971 1350 971 1350 757 1240 c 1,71,72
 542 1131 542 1131 408 904 c 1,73,74
 272 677 272 677 272 387 c 0,75,76
 272 162 272 162 362 -22 c 0,77,78
 451 -202 451 -202 623 -304 c 0,79,80
 791 -404 791 -404 1030 -404 c 0,81,82
 1232 -404 1232 -404 1412 -333 c 0,83,84
 1576 -268 1576 -268 1702 -163 c 1,85,86
 1713 -152 1713 -152 1730 -152 c 0,87,88
 1748 -152 1748 -152 1761 -165 c 0,89,90
 1775 -179 1775 -179 1775 -196 c 0,91,92
 1775 -209 1775 -209 1768 -222 c 1,93,94
 1756 -249 1756 -249 1739 -265 c 0,95,96
 1588 -405 1588 -405 1395.5 -466 c 128,-1,97
 1203 -527 1203 -527 985 -527 c 0,98,99
 573 -527 573 -527 310 -267 c 0,100,101
 48 -9 48 -9 48 388 c 0,102,103
 48 839 48 839 375 1151 c 1,104,105
 704 1462 704 1462 1182 1462 c 0,106,107
 1566 1462 1566 1462 1818 1254 c 1,108,109
 2069 1044 2069 1044 2069 702 c 0,110,111
 2069 408 2069 408 1885 168 c 0,0,1
1190 159 m 1,112,-1
 1329 765 l 1,113,114
 1305 793 1305 793 1250.5 822.5 c 128,-1,115
 1196 852 1196 852 1151 854 c 1,116,-1
 1148 854 l 2,117,118
 1133 854 1133 854 1117 848 c 0,119,120
 1077 835 1077 835 1038 821.5 c 128,-1,121
 999 808 999 808 960 795 c 0,122,123
 939 787 939 787 923 773 c 0,124,125
 850 710 850 710 807.5 619 c 128,-1,126
 765 528 765 528 752 439 c 1,127,128
 744 393 744 393 744 352 c 0,129,130
 744 271 744 271 774 214 c 0,131,132
 817 130 817 130 899 105 c 0,133,134
 932 95 932 95 966 95 c 0,135,136
 977 95 977 95 989 96 c 0,137,138
 1008 98 1008 98 1038 108 c 0,139,140
 1060 115 1060 115 1113 133 c 128,-1,141
 1166 151 1166 151 1190 159 c 1,112,-1
EndSplineSet
Validated: 1
EndChar

StartChar: A
Encoding: 65 65 26
Width: 1593
Flags: W
LayerCount: 2
Fore
SplineSet
1606 13 m 256,1,2
 1606 6 1606 6 1599.5 -7 c 128,-1,3
 1593 -20 1593 -20 1567 -20 c 2,4,-1
 1229 -20 l 2,5,6
 1211 -20 1211 -20 1195 -9 c 128,-1,7
 1179 2 1179 2 1175.5 11.5 c 128,-1,8
 1172 21 1172 21 1172 32 c 256,9,10
 1172 43 1172 43 1186 56 c 128,-1,11
 1200 69 1200 69 1211 77.5 c 128,-1,12
 1222 86 1222 86 1225 94.5 c 128,-1,13
 1228 103 1228 103 1228 114 c 0,14,15
 1228 126 1228 126 1222 141 c 2,16,-1
 1079 469 l 1,17,-1
 532 469 l 1,18,19
 502 397 502 397 466.5 311.5 c 128,-1,20
 431 226 431 226 409 174.5 c 128,-1,21
 387 123 387 123 386 113 c 128,-1,22
 385 103 385 103 385 96 c 256,23,24
 385 89 385 89 387.5 81 c 128,-1,25
 390 73 390 73 397 64 c 128,-1,26
 404 55 404 55 406.5 44 c 128,-1,27
 409 33 409 33 409 28 c 0,28,29
 409 21 409 21 406 15 c 0,30,31
 394 -20 394 -20 360 -20 c 2,32,-1
 102 -20 l 2,33,34
 61 -20 61 -20 61 10 c 0,35,36
 61 16 61 16 63 24 c 0,37,38
 69 52 69 52 104 67 c 128,-1,39
 139 82 139 82 176 99 c 1,40,41
 207 121 207 121 221 152 c 2,42,-1
 794 1447 l 1,43,-1
 891 1447 l 1,44,45
 947 1315 947 1315 1020.5 1144 c 128,-1,46
 1094 973 1094 973 1172.5 792 c 128,-1,47
 1251 611 1251 611 1324.5 440 c 128,-1,48
 1398 269 1398 269 1449 152 c 0,49,50
 1462 120 1462 120 1491.5 100.5 c 128,-1,51
 1521 81 1521 81 1543.5 71 c 128,-1,52
 1566 61 1566 61 1581.5 50.5 c 128,-1,53
 1597 40 1597 40 1601.5 30 c 128,-1,0
 1606 20 1606 20 1606 13 c 256,1,2
1027 590 m 1,54,-1
 801 1117 l 1,55,56
 761 1020 761 1020 697.5 868 c 128,-1,57
 634 716 634 716 582 590 c 1,58,-1
 1027 590 l 1,54,-1
EndSplineSet
Validated: 1
EndChar

StartChar: B
Encoding: 66 66 27
Width: 1240
Flags: W
LayerCount: 2
Fore
SplineSet
729 1424 m 2,0,1
 832 1424 832 1424 945.5 1387.5 c 128,-1,2
 1059 1351 1059 1351 1120 1243 c 0,3,4
 1168 1159 1168 1159 1168 1041 c 1,5,6
 1166 928 1166 928 1103 839 c 0,7,8
 1056 771 1056 771 1005 748 c 1,9,10
 1108 715 1108 715 1179 594 c 1,11,12
 1231 501 1231 501 1231 372 c 1,13,14
 1229 248 1229 248 1160 150 c 0,15,16
 1099 64 1099 64 988.5 22 c 128,-1,17
 878 -20 878 -20 786 -20 c 2,18,-1
 159 -20 l 2,19,20
 113 -20 113 -20 113 21 c 0,21,22
 113 59 113 59 163 77 c 128,-1,23
 213 95 213 95 213 146 c 2,24,-1
 213 1258 l 2,25,26
 213 1308 213 1308 163 1326 c 128,-1,27
 113 1344 113 1344 113 1383 c 0,28,29
 113 1424 113 1424 159 1424 c 2,30,-1
 729 1424 l 2,0,1
443 667 m 1,31,-1
 443 93 l 1,32,-1
 644 93 l 2,33,34
 713 93 713 93 782 113 c 128,-1,35
 851 133 851 133 901 182 c 0,36,37
 978 257 978 257 978 383 c 0,38,39
 978 504 978 504 897 584 c 1,40,41
 811 667 811 667 665 667 c 2,42,-1
 443 667 l 1,31,-1
443 794 m 1,43,-1
 692 794 l 1,44,45
 799 806 799 806 865 869 c 0,46,47
 934 936 934 936 934 1050 c 0,48,49
 934 1161 934 1161 861 1231 c 0,50,51
 784 1305 784 1305 654 1305 c 2,52,-1
 443 1305 l 1,53,-1
 443 794 l 1,43,-1
EndSplineSet
Validated: 1
EndChar

StartChar: C
Encoding: 67 67 28
Width: 1405
Flags: W
LayerCount: 2
Fore
SplineSet
873 -57 m 0,0,1
 556 -57 556 -57 311.5 145 c 128,-1,2
 67 347 67 347 67 701 c 0,3,4
 67 1046 67 1046 304.5 1255.5 c 128,-1,5
 542 1465 542 1465 873 1465 c 0,6,7
 991 1465 991 1465 1124.5 1438.5 c 128,-1,8
 1258 1412 1258 1412 1390 1328 c 1,9,-1
 1365 1106 l 1,10,11
 1357 1071 1357 1071 1320 1071 c 2,12,-1
 1316 1071 l 1,13,14
 1288 1073 1288 1073 1268 1112 c 1,15,16
 1213 1231 1213 1231 1104 1286 c 1,17,18
 1002 1336 1002 1336 887 1336 c 2,19,-1
 867 1336 l 1,20,21
 611 1325 611 1325 465 1130 c 0,22,23
 332 952 332 952 332 735 c 0,24,25
 332 711 332 711 334 686 c 0,26,27
 348 461 348 461 490.5 278.5 c 128,-1,28
 633 96 633 96 874 85 c 0,29,30
 898 84 898 84 919 84 c 0,31,32
 1040 84 1040 84 1118 120 c 1,33,34
 1206 162 1206 162 1268 295 c 0,35,36
 1287 336 1287 336 1323 336 c 0,37,38
 1331 336 1331 336 1340 334 c 1,39,40
 1372 322 1372 322 1372 292 c 0,41,42
 1372 281 1372 281 1367 268 c 2,43,-1
 1277 17 l 1,44,45
 1168 -28 1168 -28 1066 -42.5 c 128,-1,46
 964 -57 964 -57 873 -57 c 0,0,1
EndSplineSet
Validated: 1
EndChar

StartChar: D
Encoding: 68 68 29
Width: 1585
Flags: W
LayerCount: 2
Fore
SplineSet
449 116 m 1,0,1
 553 96 553 96 664 96 c 0,2,3
 706 96 706 96 747 99 c 0,4,5
 1082 128 1082 128 1218 387 c 0,6,7
 1290 524 1290 524 1290 736 c 2,8,-1
 1290 769 l 1,9,10
 1277 1073 1277 1073 1099 1201 c 1,11,12
 949 1314 949 1314 702 1314 c 2,13,-1
 676 1314 l 2,14,15
 555 1314 555 1314 449 1297 c 1,16,-1
 449 116 l 1,0,1
239 1427 m 2,17,-1
 552 1433 l 1,18,19
 706 1433 706 1433 878 1423.5 c 128,-1,20
 1050 1414 1050 1414 1198 1349.5 c 128,-1,21
 1346 1285 1346 1285 1441 1154 c 1,22,23
 1549 1002 1549 1002 1552 727 c 1,24,25
 1552 558 1552 558 1482.5 409 c 128,-1,26
 1413 260 1413 260 1277 155 c 0,27,28
 1046 -23 1046 -23 714 -27 c 1,29,-1
 634 -27 l 2,30,31
 576 -27 576 -27 525 -26 c 1,32,-1
 408 -26 l 2,33,34
 324 -26 324 -26 281 -23 c 1,35,-1
 258 -23 l 2,36,37
 219 -23 219 -23 155 -29 c 1,38,39
 108 -29 108 -29 108 11 c 256,40,41
 108 51 108 51 158 69 c 128,-1,42
 208 87 208 87 208 139 c 2,43,-1
 208 1262 l 2,44,45
 208 1313 208 1313 158 1330.5 c 128,-1,46
 108 1348 108 1348 108 1387 c 0,47,48
 108 1428 108 1428 154 1428 c 1,49,50
 196 1427 196 1427 239 1427 c 2,17,-1
EndSplineSet
Validated: 1
EndChar

StartChar: E
Encoding: 69 69 30
Width: 1251
Flags: W
LayerCount: 2
Fore
SplineSet
486 114 m 1,0,-1
 888 114 l 2,1,2
 968 114 968 114 1028.5 181 c 128,-1,3
 1089 248 1089 248 1122 288 c 0,4,5
 1148 319 1148 319 1171 319 c 0,6,7
 1217 319 1217 319 1217 278 c 0,8,9
 1217 263 1217 263 1214 253 c 2,10,-1
 1137 -20 l 1,11,-1
 198 -20 l 2,12,13
 155 -20 155 -20 155 21 c 0,14,15
 155 59 155 59 205 76.5 c 128,-1,16
 255 94 255 94 255 146 c 2,17,-1
 255 1257 l 2,18,19
 255 1309 255 1309 205 1326.5 c 128,-1,20
 155 1344 155 1344 155 1383 c 0,21,22
 155 1424 155 1424 201 1424 c 2,23,-1
 1154 1424 l 1,24,-1
 1154 1147 l 2,25,26
 1154 1106 1154 1106 1108 1106 c 0,27,28
 1083 1106 1083 1106 1049 1156 c 1,29,30
 1000 1224 1000 1224 968 1257.5 c 128,-1,31
 936 1291 936 1291 888 1291 c 2,32,-1
 486 1291 l 1,33,-1
 486 788 l 1,34,-1
 690 788 l 2,35,36
 736 788 736 788 756 839.5 c 128,-1,37
 776 891 776 891 820 891 c 0,38,39
 865 891 865 891 865 850 c 2,40,-1
 865 596 l 2,41,42
 865 555 865 555 820 555 c 0,43,44
 777 555 777 555 754 606 c 128,-1,45
 731 657 731 657 684 657 c 2,46,-1
 486 657 l 1,47,-1
 486 114 l 1,0,-1
EndSplineSet
Validated: 1
EndChar

StartChar: F
Encoding: 70 70 31
Width: 1139
Flags: W
LayerCount: 2
Fore
SplineSet
199 -20 m 2,0,1
 155 -20 155 -20 155 21 c 0,2,3
 155 43 155 43 186 62 c 1,4,5
 200 72 200 72 218.5 83.5 c 128,-1,6
 237 95 237 95 247 112 c 1,7,8
 255 128 255 128 255 146 c 2,9,-1
 255 1257 l 2,10,11
 255 1309 255 1309 205 1326.5 c 128,-1,12
 155 1344 155 1344 155 1383 c 0,13,14
 155 1424 155 1424 201 1424 c 2,15,-1
 1154 1424 l 1,16,-1
 1154 1147 l 2,17,18
 1154 1106 1154 1106 1108 1106 c 0,19,20
 1083 1106 1083 1106 1049 1156 c 1,21,22
 1000 1224 1000 1224 968 1257.5 c 128,-1,23
 936 1291 936 1291 888 1291 c 2,24,-1
 486 1291 l 1,25,-1
 486 788 l 1,26,-1
 690 788 l 2,27,28
 719 788 719 788 743 816 c 0,29,30
 760 836 760 836 773.5 863.5 c 128,-1,31
 787 891 787 891 820 891 c 0,32,33
 865 891 865 891 865 850 c 2,34,-1
 865 596 l 2,35,36
 865 555 865 555 820 555 c 0,37,38
 785 555 785 555 770 586 c 128,-1,39
 755 617 755 617 736 638 c 1,40,41
 716 658 716 658 690 658 c 2,42,-1
 486 658 l 1,43,-1
 486 146 l 2,44,45
 486 122 486 122 496 106 c 1,46,47
 506 92 506 92 521.5 82 c 128,-1,48
 537 72 537 72 552 63 c 0,49,50
 585 43 585 43 585 21 c 0,51,52
 585 13 585 13 583 5 c 1,53,54
 568 -20 568 -20 540 -20 c 2,55,-1
 199 -20 l 2,0,1
EndSplineSet
Validated: 1
EndChar

StartChar: G
Encoding: 71 71 32
Width: 1563
Flags: W
LayerCount: 2
Fore
SplineSet
873 -57 m 0,0,1
 556 -57 556 -57 311.5 145 c 128,-1,2
 67 347 67 347 67 701 c 0,3,4
 67 1046 67 1046 304.5 1255.5 c 128,-1,5
 542 1465 542 1465 873 1465 c 0,6,7
 991 1465 991 1465 1124.5 1438.5 c 128,-1,8
 1258 1412 1258 1412 1390 1328 c 1,9,-1
 1365 1106 l 1,10,11
 1357 1071 1357 1071 1320 1071 c 2,12,-1
 1316 1071 l 1,13,14
 1288 1073 1288 1073 1268 1112 c 1,15,16
 1206 1244 1206 1244 1116 1287 c 128,-1,17
 1026 1330 1026 1330 873 1330 c 0,18,19
 661 1330 661 1330 494 1181.5 c 128,-1,20
 327 1033 327 1033 327 701 c 0,21,22
 327 489 327 489 484 292.5 c 128,-1,23
 641 96 641 96 874 85 c 0,24,25
 898 84 898 84 919 84 c 0,26,27
 1027 84 1027 84 1100 112 c 0,28,29
 1185 145 1185 145 1242 244 c 1,30,-1
 1242 428 l 1,31,32
 1241 448 1241 448 1221 459 c 0,33,34
 1196 473 1196 473 1137.5 497 c 128,-1,35
 1079 521 1079 521 1079 554 c 0,36,37
 1079 595 1079 595 1125 595 c 2,38,-1
 1526 595 l 2,39,40
 1572 595 1572 595 1572 554 c 0,41,42
 1572 515 1572 515 1522 497 c 128,-1,43
 1472 479 1472 479 1472 428 c 2,44,-1
 1472 20 l 1,45,46
 1297 12 1297 12 1157 -23 c 1,47,48
 1083 -43 1083 -43 1011 -50 c 128,-1,49
 939 -57 939 -57 873 -57 c 0,0,1
EndSplineSet
Validated: 1
EndChar

StartChar: H
Encoding: 72 72 33
Width: 1638
Flags: W
LayerCount: 2
Fore
SplineSet
485 1257 m 2,0,-1
 485 809 l 1,1,-1
 1280 809 l 1,2,-1
 1280 1257 l 2,3,4
 1280 1308 1280 1308 1230 1326 c 128,-1,5
 1180 1344 1180 1344 1180 1383 c 0,6,7
 1180 1424 1180 1424 1226 1424 c 2,8,-1
 1565 1424 l 2,9,10
 1611 1424 1611 1424 1611 1383 c 0,11,12
 1611 1344 1611 1344 1560.5 1326 c 128,-1,13
 1510 1308 1510 1308 1510 1257 c 2,14,-1
 1510 146 l 2,15,16
 1510 94 1510 94 1560.5 76.5 c 128,-1,17
 1611 59 1611 59 1611 21 c 0,18,19
 1611 -20 1611 -20 1565 -20 c 2,20,-1
 1226 -20 l 2,21,22
 1180 -20 1180 -20 1180 21 c 0,23,24
 1180 59 1180 59 1230 76.5 c 128,-1,25
 1280 94 1280 94 1280 146 c 2,26,-1
 1280 677 l 1,27,-1
 485 677 l 1,28,-1
 485 146 l 2,29,30
 485 94 485 94 535 76.5 c 128,-1,31
 585 59 585 59 585 21 c 0,32,33
 585 -20 585 -20 540 -20 c 2,34,-1
 201 -20 l 2,35,36
 155 -20 155 -20 155 21 c 0,37,38
 155 59 155 59 205 76.5 c 128,-1,39
 255 94 255 94 255 146 c 2,40,-1
 255 1257 l 2,41,42
 255 1308 255 1308 205 1326 c 128,-1,43
 155 1344 155 1344 155 1383 c 0,44,45
 155 1424 155 1424 201 1424 c 2,46,-1
 540 1424 l 2,47,48
 585 1424 585 1424 585 1383 c 0,49,50
 585 1344 585 1344 535 1326 c 128,-1,51
 485 1308 485 1308 485 1257 c 2,0,-1
EndSplineSet
Validated: 1
EndChar

StartChar: I
Encoding: 73 73 34
Width: 690
Flags: W
LayerCount: 2
Fore
SplineSet
485 1257 m 2,0,-1
 485 147 l 2,1,2
 485 94 485 94 535 76.5 c 128,-1,3
 585 59 585 59 585 21 c 0,4,5
 585 -20 585 -20 539 -20 c 2,6,-1
 200 -20 l 2,7,8
 155 -20 155 -20 155 21 c 0,9,10
 155 59 155 59 205 76.5 c 128,-1,11
 255 94 255 94 255 146 c 2,12,-1
 255 1257 l 2,13,14
 255 1309 255 1309 205 1326.5 c 128,-1,15
 155 1344 155 1344 155 1383 c 0,16,17
 155 1424 155 1424 201 1424 c 2,18,-1
 539 1424 l 2,19,20
 585 1424 585 1424 585 1383 c 0,21,22
 585 1344 585 1344 535 1326.5 c 128,-1,23
 485 1309 485 1309 485 1257 c 2,0,-1
EndSplineSet
Validated: 1
EndChar

StartChar: J
Encoding: 74 74 35
Width: 682
Flags: W
LayerCount: 2
Fore
SplineSet
480 180 m 2,0,1
 480 -19 480 -19 452.5 -118 c 128,-1,2
 425 -217 425 -217 357 -289 c 1,3,4
 262 -386 262 -386 110 -427 c 1,5,-1
 110 -339 l 1,6,7
 156 -311 156 -311 187.5 -276.5 c 128,-1,8
 219 -242 219 -242 237 -185 c 1,9,10
 248 -146 248 -146 248.5 -73 c 128,-1,11
 249 0 249 0 249 174 c 2,12,-1
 249 1258 l 2,13,14
 249 1309 249 1309 199 1327 c 128,-1,15
 149 1345 149 1345 149 1384 c 0,16,17
 149 1424 149 1424 195 1424 c 2,18,-1
 534 1424 l 2,19,20
 580 1424 580 1424 580 1384 c 0,21,22
 580 1345 580 1345 530 1327 c 128,-1,23
 480 1309 480 1309 480 1258 c 2,24,-1
 480 180 l 2,0,1
EndSplineSet
Validated: 1
EndChar

StartChar: K
Encoding: 75 75 36
Width: 1487
Flags: W
LayerCount: 2
Fore
SplineSet
964 1254 m 2,0,1
 1042 1327 1042 1327 1090.5 1375 c 128,-1,2
 1139 1423 1139 1423 1176 1423 c 0,3,4
 1212 1423 1212 1423 1236 1411 c 2,5,-1
 1343 1359 l 1,6,7
 1371 1342 1371 1342 1371 1326 c 0,8,9
 1371 1309 1371 1309 1367 1299 c 2,10,-1
 1307 1130 l 1,11,-1
 1211 1170 l 2,12,13
 1177 1184 1177 1184 1144 1184 c 0,14,15
 1110 1184 1110 1184 1078 1153 c 2,16,-1
 688 772 l 1,17,-1
 1427 91 l 1,18,19
 1445 73 1445 73 1473 60.5 c 128,-1,20
 1501 48 1501 48 1501 21 c 0,21,22
 1501 -20 1501 -20 1456 -20 c 2,23,-1
 1117 -20 l 2,24,25
 1071 -20 1071 -20 1071 21 c 0,26,27
 1071 35 1071 35 1092 55 c 0,28,29
 1097 59 1097 59 1097 64 c 2,30,-1
 1097 65 l 2,31,32
 1097 78 1097 78 1073 98 c 1,33,-1
 485 640 l 1,34,-1
 485 146 l 2,35,36
 485 94 485 94 535 76.5 c 128,-1,37
 585 59 585 59 585 20 c 0,38,39
 585 -20 585 -20 540 -20 c 2,40,-1
 201 -20 l 2,41,42
 155 -20 155 -20 155 20 c 0,43,44
 155 59 155 59 205 76.5 c 128,-1,45
 255 94 255 94 255 146 c 2,46,-1
 255 1257 l 2,47,48
 255 1308 255 1308 205 1326 c 128,-1,49
 155 1344 155 1344 155 1383 c 0,50,51
 155 1424 155 1424 201 1424 c 2,52,-1
 540 1424 l 2,53,54
 585 1424 585 1424 585 1383 c 0,55,56
 585 1344 585 1344 535 1326 c 128,-1,57
 485 1308 485 1308 485 1257 c 2,58,-1
 485 800 l 1,59,-1
 964 1254 l 2,0,1
EndSplineSet
Validated: 1
EndChar

StartChar: L
Encoding: 76 76 37
Width: 1251
Flags: W
LayerCount: 2
Fore
SplineSet
486 114 m 1,0,-1
 888 114 l 2,1,2
 968 114 968 114 1028.5 181 c 128,-1,3
 1089 248 1089 248 1122 288 c 0,4,5
 1148 319 1148 319 1171 319 c 0,6,7
 1217 319 1217 319 1217 278 c 0,8,9
 1217 263 1217 263 1214 253 c 2,10,-1
 1137 -20 l 1,11,-1
 201 -20 l 2,12,13
 155 -20 155 -20 155 21 c 0,14,15
 155 59 155 59 205 76.5 c 128,-1,16
 255 94 255 94 255 146 c 2,17,-1
 255 1257 l 2,18,19
 255 1308 255 1308 205 1326 c 128,-1,20
 155 1344 155 1344 155 1383 c 0,21,22
 155 1424 155 1424 201 1424 c 2,23,-1
 540 1424 l 2,24,25
 585 1424 585 1424 585 1383 c 0,26,27
 585 1344 585 1344 535 1326 c 128,-1,28
 485 1308 485 1308 485 1257 c 2,29,-1
 486 114 l 1,0,-1
EndSplineSet
Validated: 1
EndChar

StartChar: M
Encoding: 77 77 38
Width: 1908
Flags: W
LayerCount: 2
Fore
SplineSet
1747 1257 m 2,0,-1
 1747 146 l 2,1,2
 1747 94 1747 94 1797.5 76.5 c 128,-1,3
 1848 59 1848 59 1848 21 c 0,4,5
 1848 -20 1848 -20 1802 -20 c 2,6,-1
 1463 -20 l 2,7,8
 1417 -20 1417 -20 1417 21 c 0,9,10
 1417 59 1417 59 1467 76.5 c 128,-1,11
 1517 94 1517 94 1517 146 c 2,12,-1
 1517 1106 l 1,13,-1
 982 -50 l 1,14,-1
 909 -50 l 1,15,-1
 380 1061 l 1,16,-1
 380 146 l 2,17,18
 380 94 380 94 430 76.5 c 128,-1,19
 480 59 480 59 480 21 c 0,20,21
 480 -20 480 -20 434 -20 c 2,22,-1
 180 -20 l 2,23,24
 134 -20 134 -20 134 21 c 0,25,26
 134 59 134 59 184 76.5 c 128,-1,27
 234 94 234 94 234 146 c 2,28,-1
 234 1257 l 2,29,30
 234 1308 234 1308 184 1326 c 128,-1,31
 134 1344 134 1344 134 1383 c 0,32,33
 134 1424 134 1424 180 1424 c 2,34,-1
 463 1424 l 1,35,-1
 993 338 l 1,36,-1
 1506 1424 l 1,37,-1
 1802 1424 l 2,38,39
 1848 1424 1848 1424 1848 1383 c 0,40,41
 1848 1344 1848 1344 1797.5 1326 c 128,-1,42
 1747 1308 1747 1308 1747 1257 c 2,0,-1
EndSplineSet
Validated: 1
EndChar

StartChar: N
Encoding: 78 78 39
Width: 1644
Flags: W
LayerCount: 2
Fore
SplineSet
1369 271 m 1,0,-1
 1369 1257 l 2,1,2
 1369 1308 1369 1308 1319.5 1326 c 128,-1,3
 1270 1344 1270 1344 1270 1383 c 0,4,5
 1270 1424 1270 1424 1315 1424 c 2,6,-1
 1570 1424 l 2,7,8
 1616 1424 1616 1424 1616 1383 c 0,9,10
 1616 1344 1616 1344 1566 1326 c 128,-1,11
 1516 1308 1516 1308 1516 1257 c 2,12,-1
 1515 -70 l 1,13,-1
 1297 -17 l 1,14,-1
 380 1121 l 1,15,-1
 380 146 l 2,16,17
 380 94 380 94 430 76.5 c 128,-1,18
 480 59 480 59 480 21 c 0,19,20
 480 -20 480 -20 434 -20 c 2,21,-1
 180 -20 l 2,22,23
 134 -20 134 -20 134 21 c 0,24,25
 134 59 134 59 184 76.5 c 128,-1,26
 234 94 234 94 234 146 c 2,27,-1
 234 1257 l 2,28,29
 234 1308 234 1308 184 1326 c 128,-1,30
 134 1344 134 1344 134 1383 c 0,31,32
 134 1424 134 1424 180 1424 c 2,33,-1
 451 1424 l 1,34,-1
 1369 271 l 1,0,-1
EndSplineSet
Validated: 1
EndChar

StartChar: O
Encoding: 79 79 40
Width: 1610
Flags: W
LayerCount: 2
Fore
SplineSet
833 1338 m 0,0,1
 541 1337 541 1337 424 1152 c 128,-1,2
 307 967 307 967 307 702 c 256,3,4
 307 437 307 437 454.5 252.5 c 128,-1,5
 602 68 602 68 833 66 c 1,6,-1
 838 66 l 2,7,8
 1063 66 1063 66 1210 260 c 1,9,10
 1358 457 1358 457 1358 696 c 2,11,-1
 1358 702 l 1,12,13
 1356 946 1356 946 1233 1142 c 128,-1,14
 1110 1338 1110 1338 833 1338 c 0,0,1
833 1466 m 1,15,-1
 843 1466 l 2,16,17
 1177 1466 1177 1466 1407 1261 c 0,18,19
 1620 1070 1620 1070 1620 760 c 0,20,21
 1620 732 1620 732 1618 704 c 0,22,23
 1597 353 1597 353 1372.5 158 c 128,-1,24
 1148 -37 1148 -37 832 -55 c 0,25,26
 809 -56 809 -56 785 -56 c 0,27,28
 496 -56 496 -56 274 143 c 0,29,30
 48 345 48 345 48 669 c 0,31,32
 48 687 48 687 49 706 c 0,33,34
 61 1053 61 1053 276 1257.5 c 128,-1,35
 491 1462 491 1462 833 1466 c 1,15,-1
EndSplineSet
Validated: 1
EndChar

StartChar: P
Encoding: 80 80 41
Width: 1237
Flags: W
LayerCount: 2
Fore
SplineSet
464 146 m 2,0,1
 464 94 464 94 514 76.5 c 128,-1,2
 564 59 564 59 564 21 c 0,3,4
 564 -20 564 -20 519 -20 c 2,5,-1
 180 -20 l 2,6,7
 134 -20 134 -20 134 21 c 0,8,9
 134 59 134 59 183 76.5 c 128,-1,10
 232 94 232 94 232 146 c 2,11,-1
 234 1257 l 2,12,13
 234 1308 234 1308 184 1326 c 128,-1,14
 134 1344 134 1344 134 1383 c 0,15,16
 134 1424 134 1424 180 1424 c 2,17,-1
 770 1424 l 2,18,19
 878 1424 878 1424 996.5 1385.5 c 128,-1,20
 1115 1347 1115 1347 1181 1234 c 1,21,22
 1231 1145 1231 1145 1231 1022 c 1,23,24
 1229 904 1229 904 1163 809 c 0,25,26
 1105 727 1105 727 999 687 c 128,-1,27
 893 647 893 647 806 647 c 2,28,-1
 464 647 l 1,29,-1
 464 146 l 2,0,1
464 1301 m 1,30,-1
 464 757 l 1,31,-1
 671 757 l 2,32,33
 736 757 736 757 801.5 775.5 c 128,-1,34
 867 794 867 794 914 841 c 1,35,36
 988 912 988 912 988 1032 c 0,37,38
 988 1147 988 1147 911 1223 c 1,39,40
 830 1301 830 1301 691 1301 c 2,41,-1
 464 1301 l 1,30,-1
EndSplineSet
Validated: 1
EndChar

StartChar: Q
Encoding: 81 81 42
Width: 1610
Flags: W
LayerCount: 2
Fore
SplineSet
833 1466 m 1,0,-1
 843 1466 l 2,1,2
 1177 1466 1177 1466 1407 1261 c 0,3,4
 1620 1070 1620 1070 1620 760 c 0,5,6
 1620 732 1620 732 1618 704 c 0,7,8
 1596 353 1596 353 1372 158 c 0,9,10
 1192 2 1192 2 955 -41 c 1,11,12
 1007 -59 1007 -59 1068 -86 c 0,13,14
 1241 -164 1241 -164 1329 -164 c 0,15,16
 1359 -164 1359 -164 1454 -137 c 1,17,-1
 1454 -225 l 1,18,19
 1350 -285 1350 -285 1298 -342 c 1,20,21
 1156 -323 1156 -323 958 -242 c 128,-1,22
 760 -161 760 -161 700 -161 c 0,23,24
 671 -161 671 -161 525 -257 c 1,25,-1
 525 -144 l 1,26,27
 612 -77 612 -77 658 -46 c 1,28,29
 446 -11 446 -11 274 143 c 0,30,31
 48 345 48 345 48 669 c 0,32,33
 48 687 48 687 49 706 c 0,34,35
 61 1054 61 1054 276 1258 c 128,-1,36
 491 1462 491 1462 833 1466 c 1,0,-1
833 1338 m 0,37,38
 541 1337 541 1337 424 1152 c 128,-1,39
 307 967 307 967 307 698 c 0,40,41
 307 434 307 434 454 252 c 0,42,43
 602 68 602 68 833 66 c 1,44,-1
 838 66 l 2,45,46
 1063 66 1063 66 1210 260 c 1,47,48
 1358 457 1358 457 1358 696 c 2,49,-1
 1358 702 l 1,50,51
 1356 946 1356 946 1233 1142 c 128,-1,52
 1110 1338 1110 1338 833 1338 c 0,37,38
EndSplineSet
Validated: 1
EndChar

StartChar: R
Encoding: 82 82 43
Width: 1368
Flags: W
LayerCount: 2
Fore
SplineSet
1308 84 m 1,0,1
 1327 68 1327 68 1364 65 c 1,2,3
 1414 59 1414 59 1414 24 c 2,4,-1
 1414 20 l 1,5,6
 1408 -20 1408 -20 1368 -20 c 2,7,-1
 1101 -20 l 2,8,9
 1078 -20 1078 -20 1015 63 c 128,-1,10
 952 146 952 146 874 254 c 128,-1,11
 796 362 796 362 714.5 475 c 128,-1,12
 633 588 633 588 585 647 c 1,13,-1
 464 647 l 1,14,-1
 464 146 l 2,15,16
 464 94 464 94 514 76.5 c 128,-1,17
 564 59 564 59 564 21 c 0,18,19
 564 -20 564 -20 519 -20 c 2,20,-1
 180 -20 l 2,21,22
 134 -20 134 -20 134 21 c 0,23,24
 134 59 134 59 184 76.5 c 128,-1,25
 234 94 234 94 234 146 c 2,26,-1
 234 1257 l 2,27,28
 234 1308 234 1308 184 1326 c 128,-1,29
 134 1344 134 1344 134 1383 c 0,30,31
 134 1424 134 1424 180 1424 c 2,32,-1
 770 1424 l 2,33,34
 878 1424 878 1424 996.5 1385.5 c 128,-1,35
 1115 1347 1115 1347 1181 1234 c 1,36,37
 1231 1145 1231 1145 1231 1022 c 1,38,39
 1229 904 1229 904 1163 809 c 0,40,41
 1109 733 1109 733 1014.5 693 c 128,-1,42
 920 653 920 653 875 651 c 1,43,-1
 1308 84 l 1,0,1
464 1301 m 1,44,-1
 464 757 l 1,45,-1
 671 757 l 2,46,47
 736 757 736 757 801.5 775.5 c 128,-1,48
 867 794 867 794 914 841 c 1,49,50
 988 912 988 912 988 1032 c 0,51,52
 988 1147 988 1147 911 1223 c 1,53,54
 830 1301 830 1301 691 1301 c 2,55,-1
 464 1301 l 1,44,-1
EndSplineSet
Validated: 1
EndChar

StartChar: S
Encoding: 83 83 44
Width: 1075
Flags: W
LayerCount: 2
Fore
SplineSet
857 388 m 2,0,-1
 857 399 l 1,1,2
 854 503 854 503 779 557 c 0,3,4
 745 582 745 582 668.5 603.5 c 128,-1,5
 592 625 592 625 480.5 637.5 c 128,-1,6
 369 650 369 650 269 697.5 c 128,-1,7
 169 745 169 745 122.5 831.5 c 128,-1,8
 76 918 76 918 76 1018 c 0,9,10
 76 1213 76 1213 215.5 1341 c 128,-1,11
 355 1469 355 1469 570 1469 c 2,12,-1
 601 1469 l 1,13,14
 832 1459 832 1459 1005 1347 c 1,15,-1
 980 1126 l 2,16,17
 976 1090 976 1090 936 1090 c 2,18,-1
 931 1090 l 1,19,20
 901 1092 901 1092 883 1131 c 0,21,22
 843 1217 843 1217 766.5 1276 c 128,-1,23
 690 1335 690 1335 604 1339 c 1,24,-1
 589 1339 l 2,25,26
 504 1339 504 1339 449.5 1313 c 128,-1,27
 395 1287 395 1287 370.5 1261 c 128,-1,28
 346 1235 346 1235 329 1200.5 c 128,-1,29
 312 1166 312 1166 304.5 1129.5 c 128,-1,30
 297 1093 297 1093 297 1062 c 0,31,32
 297 1030 297 1030 308 999 c 1,33,34
 327 938 327 938 367 909 c 128,-1,35
 407 880 407 880 439.5 871.5 c 128,-1,36
 472 863 472 863 507.5 857 c 128,-1,37
 543 851 543 851 591 843.5 c 128,-1,38
 639 836 639 836 703.5 826 c 128,-1,39
 768 816 768 816 852.5 789.5 c 128,-1,40
 937 763 937 763 982.5 712.5 c 128,-1,41
 1028 662 1028 662 1054.5 601.5 c 128,-1,42
 1081 541 1081 541 1081 459 c 0,43,44
 1081 237 1081 237 900 89 c 0,45,46
 806 12 806 12 703 -21 c 128,-1,47
 600 -54 600 -54 537 -56.5 c 128,-1,48
 474 -59 474 -59 452 -59 c 0,49,50
 309 -59 309 -59 165 -15 c 1,51,-1
 67 258 l 2,52,53
 64 266 64 266 64 278 c 0,54,55
 64 289 64 289 76.5 308 c 128,-1,56
 89 327 89 327 121 327 c 1,57,58
 148 320 148 320 165 285 c 0,59,60
 226 152 226 152 308 112.5 c 128,-1,61
 390 73 390 73 506 73 c 0,62,63
 531 73 531 73 582 76.5 c 128,-1,64
 633 80 633 80 702 114.5 c 128,-1,65
 771 149 771 149 814 218 c 128,-1,66
 857 287 857 287 857 388 c 2,0,-1
EndSplineSet
Validated: 1
EndChar

StartChar: T
Encoding: 84 84 45
Width: 1255
Flags: W
LayerCount: 2
Fore
SplineSet
1265 1147 m 2,0,1
 1265 1106 1265 1106 1219 1106 c 0,2,3
 1196 1106 1196 1106 1159 1156 c 0,4,5
 1109 1224 1109 1224 1077 1257.5 c 128,-1,6
 1045 1291 1045 1291 997 1291 c 2,7,-1
 771 1291 l 1,8,-1
 771 146 l 2,9,10
 771 94 771 94 821 76 c 128,-1,11
 871 58 871 58 871 20 c 0,12,13
 871 -20 871 -20 826 -20 c 2,14,-1
 487 -20 l 2,15,16
 441 -20 441 -20 441 20 c 0,17,18
 441 58 441 58 491 76 c 128,-1,19
 541 94 541 94 541 146 c 2,20,-1
 541 1291 l 1,21,-1
 311 1291 l 2,22,23
 263 1291 263 1291 230 1257.5 c 128,-1,24
 197 1224 197 1224 148 1156 c 0,25,26
 113 1106 113 1106 89 1106 c 0,27,28
 43 1106 43 1106 43 1147 c 2,29,-1
 43 1332 l 2,30,31
 43 1396 43 1396 70 1412.5 c 128,-1,32
 97 1429 97 1429 182 1429 c 2,33,-1
 1126 1429 l 2,34,35
 1218 1429 1218 1429 1241.5 1413.5 c 128,-1,36
 1265 1398 1265 1398 1265 1332 c 2,37,-1
 1265 1147 l 2,0,1
EndSplineSet
Validated: 1
EndChar

StartChar: U
Encoding: 85 85 46
Width: 1554
Flags: W
LayerCount: 2
Fore
SplineSet
234 588 m 2,0,-1
 234 1258 l 2,1,2
 234 1309 234 1309 184 1326.5 c 128,-1,3
 134 1344 134 1344 134 1383 c 0,4,5
 134 1424 134 1424 180 1424 c 2,6,-1
 519 1424 l 2,7,8
 564 1424 564 1424 564 1383 c 0,9,10
 564 1344 564 1344 515 1327.5 c 128,-1,11
 466 1311 466 1311 466 1260 c 2,12,-1
 466 721 l 2,13,14
 466 569 466 569 476 452.5 c 128,-1,15
 486 336 486 336 526 258 c 0,16,17
 564 183 564 183 642.5 144.5 c 128,-1,18
 721 106 721 106 864 106 c 0,19,20
 1111 106 1111 106 1198 301 c 1,21,22
 1264 443 1264 443 1264 721 c 2,23,-1
 1264 1257 l 2,24,25
 1264 1308 1264 1308 1214 1326 c 128,-1,26
 1164 1344 1164 1344 1164 1383 c 0,27,28
 1164 1424 1164 1424 1210 1424 c 2,29,-1
 1465 1424 l 2,30,31
 1510 1424 1510 1424 1510 1383 c 0,32,33
 1510 1344 1510 1344 1460.5 1326 c 128,-1,34
 1411 1308 1411 1308 1411 1257 c 2,35,-1
 1411 588 l 1,36,37
 1410 437 1410 437 1383 311 c 128,-1,38
 1356 185 1356 185 1282 97 c 1,39,40
 1147 -59 1147 -59 864 -59 c 0,41,42
 689 -59 689 -59 563 -25.5 c 128,-1,43
 437 8 437 8 360 98 c 0,44,45
 234 244 234 244 234 588 c 2,0,-1
EndSplineSet
Validated: 1
EndChar

StartChar: V
Encoding: 86 86 47
Width: 1479
Flags: W
LayerCount: 2
Fore
SplineSet
441 1269 m 1,0,-1
 844 237 l 1,1,-1
 1272 1114 l 2,2,3
 1283 1137 1283 1137 1283 1154 c 0,4,5
 1283 1167 1283 1167 1277 1177 c 0,6,7
 1258 1206 1258 1206 1219 1253 c 1,8,-1
 1158 1324 l 1,9,-1
 1297 1429 l 1,10,11
 1312 1442 1312 1442 1332 1442 c 256,12,13
 1352 1442 1352 1442 1373 1425 c 1,14,-1
 1456 1340 l 2,15,16
 1487 1308 1487 1308 1487 1262 c 0,17,18
 1487 1238 1487 1238 1478 1210 c 0,19,20
 1454 1138 1454 1138 1406 1041 c 1,21,-1
 917 26 l 1,22,23
 909 7 909 7 898 -7 c 1,24,25
 881 -20 881 -20 863 -20 c 2,26,-1
 712 -20 l 2,27,28
 688 -20 688 -20 675 -3 c 0,29,30
 670 2 670 2 662 24 c 128,-1,31
 654 46 654 46 651 55 c 2,32,-1
 273 1105 l 1,33,34
 233 1210 233 1210 215 1251 c 0,35,36
 200 1284 200 1284 164 1310 c 1,37,38
 143 1323 143 1323 120 1332.5 c 128,-1,39
 97 1342 97 1342 82 1353 c 1,40,41
 66 1362 66 1362 62 1375 c 1,42,43
 57 1382 57 1382 57 1392 c 0,44,45
 57 1400 57 1400 63 1409 c 0,46,47
 73 1424 73 1424 96 1424 c 2,48,-1
 435 1424 l 2,49,50
 453 1424 453 1424 470 1412 c 1,51,52
 484 1400 484 1400 489 1389 c 1,53,54
 491 1382 491 1382 491 1378 c 0,55,56
 491 1361 491 1361 474 1345 c 0,57,58
 463 1336 463 1336 452.5 1327 c 128,-1,59
 442 1318 442 1318 437 1306 c 0,60,61
 435 1300 435 1300 435 1292 c 0,62,63
 435 1281 435 1281 441 1269 c 1,0,-1
EndSplineSet
Validated: 1
EndChar

StartChar: X
Encoding: 88 88 48
Width: 1366
Flags: W
LayerCount: 2
Fore
SplineSet
382 80 m 1,0,-1
 391 41 l 1,1,2
 391 22 391 22 375.5 1 c 128,-1,3
 360 -20 360 -20 332 -20 c 2,4,-1
 74 -20 l 2,5,6
 40 -20 40 -20 36 5 c 1,7,-1
 36 11 l 2,8,9
 36 39 36 39 82 59 c 1,10,-1
 134 80 l 1,11,12
 202 109 202 109 236 156 c 2,13,-1
 624 698 l 1,14,-1
 267 1249 l 1,15,16
 232 1301 232 1301 149 1332 c 1,17,18
 122 1340 122 1340 106 1350 c 0,19,20
 71 1370 71 1370 71 1394 c 2,21,-1
 71 1399 l 1,22,23
 75 1424 75 1424 106 1424 c 2,24,-1
 445 1424 l 2,25,26
 475 1424 475 1424 492 1404 c 128,-1,27
 509 1384 509 1384 509 1372 c 256,28,29
 509 1360 509 1360 499.5 1349 c 128,-1,30
 490 1338 490 1338 482.5 1329.5 c 128,-1,31
 475 1321 475 1321 474 1313 c 1,32,-1
 474 1308 l 2,33,34
 474 1290 474 1290 487 1272 c 1,35,-1
 747 873 l 1,36,-1
 991 1214 l 2,37,38
 1061 1311 1061 1311 1113 1370.5 c 128,-1,39
 1165 1430 1165 1430 1220 1430 c 0,40,41
 1234 1430 1234 1430 1249 1426 c 2,42,-1
 1349 1394 l 1,43,44
 1381 1381 1381 1381 1381 1359 c 0,45,46
 1381 1346 1381 1346 1378 1337 c 2,47,-1
 1331 1146 l 1,48,-1
 1240 1167 l 2,49,50
 1189 1178 1189 1178 1159 1180 c 1,51,-1
 1157 1180 l 2,52,53
 1140 1180 1140 1180 1115 1144 c 2,54,-1
 832 742 l 1,55,-1
 1213 155 l 2,56,57
 1242 110 1242 110 1332 72 c 0,58,59
 1358 61 1358 61 1373 52 c 0,60,61
 1410 31 1410 31 1410 11 c 0,62,63
 1410 -20 1410 -20 1374 -20 c 2,64,-1
 1035 -20 l 2,65,66
 1019 -20 1019 -20 1001 -11 c 0,67,68
 971 5 971 5 971 27 c 0,69,70
 971 44 971 44 988 64.5 c 128,-1,71
 1005 85 1005 85 1006 92 c 1,72,-1
 1006 98 l 2,73,74
 1006 114 1006 114 995 132 c 2,75,-1
 709 567 l 1,76,-1
 408 137 l 2,77,78
 382 101 382 101 382 80 c 1,0,-1
EndSplineSet
Validated: 1
EndChar

StartChar: Y
Encoding: 89 89 49
Width: 1366
Flags: W
LayerCount: 2
Fore
SplineSet
591 669 m 2,0,-1
 243 1249 l 1,1,2
 223 1279 223 1279 174 1309 c 1,3,4
 148 1322 148 1322 122 1332 c 128,-1,5
 96 1342 96 1342 78 1353 c 0,6,7
 63 1361 63 1361 54 1373 c 1,8,9
 47 1384 47 1384 47 1394 c 2,10,-1
 47 1399 l 1,11,12
 51 1424 51 1424 82 1424 c 2,13,-1
 421 1424 l 2,14,15
 440 1424 440 1424 456 1414 c 1,16,17
 470 1404 470 1404 479 1392 c 1,18,19
 485 1382 485 1382 485 1373 c 0,20,21
 485 1360 485 1360 474 1347 c 0,22,23
 467 1338 467 1338 459 1329.5 c 128,-1,24
 451 1321 451 1321 450 1313 c 1,25,-1
 450 1308 l 2,26,27
 450 1291 450 1291 463 1272 c 2,28,-1
 778 773 l 1,29,-1
 1015 1133 l 2,30,31
 1042 1174 1042 1174 1046 1203 c 0,32,33
 1047 1206 1047 1206 1047 1210 c 0,34,35
 1047 1236 1047 1236 1026 1279 c 2,36,-1
 983 1365 l 1,37,-1
 1145 1436 l 2,38,39
 1158 1441 1158 1441 1170 1441 c 0,40,41
 1198 1441 1198 1441 1216 1414 c 1,42,-1
 1277 1312 l 2,43,44
 1290 1289 1290 1289 1290 1266 c 0,45,46
 1290 1225 1290 1225 1251 1185 c 0,47,48
 1199 1130 1199 1130 1140 1045 c 2,49,-1
 874 657 l 2,50,51
 858 633 858 633 853 586.5 c 128,-1,52
 848 540 848 540 848 497 c 2,53,-1
 848 146 l 2,54,55
 848 94 848 94 898 76.5 c 128,-1,56
 948 59 948 59 948 21 c 0,57,58
 948 -20 948 -20 902 -20 c 2,59,-1
 563 -20 l 2,60,61
 517 -20 517 -20 517 21 c 0,62,63
 517 59 517 59 567 76.5 c 128,-1,64
 617 94 617 94 617 146 c 2,65,-1
 617 573 l 2,66,67
 617 627 617 627 591 669 c 2,0,-1
EndSplineSet
Validated: 1
EndChar

StartChar: Z
Encoding: 90 90 50
Width: 1366
Flags: W
LayerCount: 2
Fore
SplineSet
267 1106 m 0,0,1
 221 1106 221 1106 221 1147 c 2,2,-1
 221 1332 l 2,3,4
 221 1396 221 1396 248 1412.5 c 128,-1,5
 275 1429 275 1429 360 1429 c 2,6,-1
 1284 1429 l 2,7,8
 1380 1429 1380 1429 1399 1409 c 0,9,10
 1416 1390 1416 1390 1416 1369 c 2,11,-1
 1416 1367 l 2,12,13
 1416 1346 1416 1346 1397 1321 c 2,14,-1
 439 118 l 1,15,-1
 1175 119 l 2,16,17
 1223 119 1223 119 1255.5 152 c 128,-1,18
 1288 185 1288 185 1330.5 244 c 128,-1,19
 1373 303 1373 303 1397 303 c 0,20,21
 1443 303 1443 303 1443 262 c 2,22,-1
 1443 77 l 2,23,24
 1443 9 1443 9 1419 -5.5 c 128,-1,25
 1395 -20 1395 -20 1305 -20 c 2,26,-1
 234 -20 l 2,27,28
 147 -20 147 -20 120 -13 c 1,29,30
 80 3 80 3 80 28 c 0,31,32
 80 47 80 47 104 72 c 1,33,-1
 1052 1292 l 1,34,-1
 489 1291 l 2,35,36
 441 1291 441 1291 408 1257.5 c 128,-1,37
 375 1224 375 1224 333 1165 c 128,-1,38
 291 1106 291 1106 267 1106 c 0,0,1
EndSplineSet
Validated: 1
EndChar

StartChar: bracketleft
Encoding: 91 91 51
Width: 682
Flags: W
LayerCount: 2
Fore
SplineSet
508 -347 m 2,0,1
 550 -347 550 -347 550 -394 c 0,2,3
 550 -440 550 -440 513 -440 c 2,4,-1
 266 -440 l 2,5,6
 220 -440 220 -440 220 -400 c 2,7,-1
 220 1436 l 2,8,9
 220 1486 220 1486 266 1486 c 2,10,-1
 513 1486 l 2,11,12
 550 1486 550 1486 550 1438 c 0,13,14
 550 1389 550 1389 508 1389 c 2,15,-1
 388 1389 l 1,16,-1
 388 -347 l 1,17,-1
 508 -347 l 2,0,1
EndSplineSet
Validated: 1
EndChar

StartChar: asciicircum
Encoding: 94 94 52
Width: 1100
Flags: W
LayerCount: 2
Fore
SplineSet
520 1450 m 1,0,-1
 659 1450 l 1,1,-1
 995 892 l 1,2,-1
 886 892 l 1,3,-1
 590 1274 l 1,4,-1
 291 892 l 1,5,-1
 184 892 l 1,6,-1
 520 1450 l 1,0,-1
EndSplineSet
Validated: 1
EndChar

StartChar: underscore
Encoding: 95 95 53
Width: 1100
Flags: W
LayerCount: 2
Fore
SplineSet
0 -198 m 1,0,-1
 1150 -198 l 1,1,-1
 1150 -356 l 1,2,-1
 0 -356 l 1,3,-1
 0 -198 l 1,0,-1
EndSplineSet
Validated: 1
EndChar

StartChar: a
Encoding: 97 97 54
Width: 1155
Flags: W
LayerCount: 2
Fore
SplineSet
494 -45 m 2,0,-1
 452 -45 l 1,1,2
 298 -37 298 -37 188 79 c 0,3,4
 62 212 62 212 62 440 c 0,5,6
 62 493 62 493 72 562.5 c 128,-1,7
 82 632 82 632 124 699.5 c 128,-1,8
 166 767 166 767 211 800.5 c 128,-1,9
 256 834 256 834 287 848 c 1,10,11
 629 976 629 976 652 976 c 2,12,-1
 658 976 l 1,13,14
 726 973 726 973 778 956 c 128,-1,15
 830 939 830 939 858 927.5 c 128,-1,16
 886 916 886 916 901 916 c 0,17,18
 915 916 915 916 936 945 c 0,19,20
 949 962 949 962 965 962 c 256,21,22
 981 962 981 962 1004.5 953.5 c 128,-1,23
 1028 945 1028 945 1028 920 c 2,24,-1
 1028 146 l 2,25,26
 1028 94 1028 94 1078 76.5 c 128,-1,27
 1128 59 1128 59 1128 20 c 0,28,29
 1128 -20 1128 -20 1082 -20 c 2,30,-1
 839 -20 l 2,31,32
 797 -20 797 -20 797 13 c 2,33,-1
 797 56 l 1,34,-1
 557 -32 l 2,35,36
 520 -45 520 -45 494 -45 c 2,0,-1
591 854 m 2,37,38
 575 854 575 854 514.5 831 c 128,-1,39
 454 808 454 808 426.5 797.5 c 128,-1,40
 399 787 399 787 388 775 c 0,41,42
 330 713 330 713 311.5 633.5 c 128,-1,43
 293 554 293 554 293 532 c 2,44,-1
 293 500 l 2,45,46
 293 318 293 318 363 224 c 0,47,48
 458 95 458 95 593 95 c 0,49,50
 627 95 627 95 672 111 c 128,-1,51
 717 127 717 127 797 158 c 1,52,-1
 797 762 l 1,53,54
 765 792 765 792 702.5 822 c 128,-1,55
 640 852 640 852 594 854 c 1,56,-1
 591 854 l 2,37,38
EndSplineSet
Validated: 1
EndChar

StartChar: b
Encoding: 98 98 55
Width: 1139
Flags: W
LayerCount: 2
Fore
SplineSet
393 168 m 1,0,1
 424 137 424 137 486 107 c 128,-1,2
 548 77 548 77 595 76 c 1,3,-1
 601 76 l 2,4,5
 612 76 612 76 628 82 c 0,6,7
 666 96 666 96 701 108.5 c 128,-1,8
 736 121 736 121 772 135 c 0,9,10
 788 141 788 141 802 155 c 0,11,12
 859 216 859 216 880 305 c 0,13,14
 896 377 896 377 896 448 c 0,15,16
 896 469 896 469 895 488 c 0,17,18
 884 626 884 626 822 711 c 0,19,20
 758 798 758 798 666 825 c 0,21,22
 629 835 629 835 593 835 c 0,23,24
 583 835 583 835 574 834 c 0,25,26
 555 832 555 832 529 823 c 0,27,28
 506 814 506 814 457 796 c 128,-1,29
 408 778 408 778 393 772 c 1,30,-1
 393 168 l 1,0,1
355 -7 m 0,31,32
 335 1 335 1 304 11 c 0,33,34
 295 14 295 14 288 14 c 0,35,36
 283 14 283 14 280 11 c 0,37,38
 260 -6 260 -6 253 -14 c 1,39,40
 241 -31 241 -31 219 -31 c 0,41,42
 208 -31 208 -31 199 -27 c 0,43,44
 162 -14 162 -14 162 11 c 2,45,-1
 162 1257 l 2,46,47
 162 1308 162 1308 112 1326 c 128,-1,48
 62 1344 62 1344 62 1383 c 0,49,50
 62 1424 62 1424 107 1424 c 1,51,52
 169 1427 169 1427 231.5 1443.5 c 128,-1,53
 294 1460 294 1460 393 1493 c 1,54,-1
 393 874 l 1,55,-1
 633 963 l 2,56,57
 666 975 666 975 694 977 c 0,58,59
 705 977 705 977 715.5 976.5 c 128,-1,60
 726 976 726 976 738 976 c 0,61,62
 892 968 892 968 1001 852 c 1,63,64
 1107 736 1107 736 1123 572 c 0,65,66
 1127 530 1127 530 1127 489 c 0,67,68
 1127 436 1127 436 1120 386 c 0,69,70
 1107 297 1107 297 1052 210 c 0,71,72
 1021 160 1021 160 958 112 c 0,73,74
 932 93 932 93 900 81 c 0,75,76
 820 52 820 52 740 22 c 128,-1,77
 660 -8 660 -8 579 -37 c 0,78,79
 556 -45 556 -45 536 -45 c 2,80,-1
 531 -45 l 1,81,82
 464 -42 464 -42 368 -13 c 0,83,84
 358 -9 358 -9 355 -7 c 0,31,32
EndSplineSet
Validated: 1
EndChar

StartChar: c
Encoding: 99 99 56
Width: 925
Flags: W
LayerCount: 2
Fore
SplineSet
601 976 m 2,0,1
 773 976 773 976 927 877 c 1,2,-1
 909 697 l 1,3,4
 904 666 904 666 872 666 c 2,5,-1
 869 666 l 1,6,7
 840 668 840 668 826 700 c 0,8,9
 789 781 789 781 731 815.5 c 128,-1,10
 673 850 673 850 589 850 c 2,11,-1
 566 850 l 1,12,13
 467 845 467 845 418 797 c 1,14,15
 317 702 317 702 317 519 c 0,16,17
 317 491 317 491 320 459 c 0,18,19
 330 315 330 315 397 224 c 1,20,21
 485 108 485 108 588 92 c 0,22,23
 605 90 605 90 623 90 c 0,24,25
 714 90 714 90 787.5 134.5 c 128,-1,26
 861 179 861 179 883 179 c 256,27,28
 905 179 905 179 927 175 c 1,29,30
 934 156 934 156 934 142 c 0,31,32
 934 127 934 127 918.5 99 c 128,-1,33
 903 71 903 71 881 51 c 1,34,35
 762 -45 762 -45 566 -45 c 256,36,37
 370 -45 370 -45 235 64 c 1,38,39
 79 196 79 196 79 446 c 0,40,41
 79 502 79 502 87 565 c 1,42,43
 132 795 132 795 327 907 c 0,44,45
 437 970 437 970 579 976 c 1,46,-1
 601 976 l 2,0,1
EndSplineSet
Validated: 1
EndChar

StartChar: d
Encoding: 100 100 57
Width: 1231
Flags: W
LayerCount: 2
Fore
SplineSet
817 56 m 1,0,-1
 577 -32 l 2,1,2
 540 -45 540 -45 514 -45 c 2,3,-1
 472 -45 l 1,4,5
 318 -37 318 -37 210 77 c 0,6,7
 101 193 101 193 86 358 c 0,8,9
 82 400 82 400 82 440 c 0,10,11
 82 493 82 493 89 543 c 0,12,13
 102 632 102 632 158 720 c 1,14,15
 185 767 185 767 252 818 c 1,16,17
 277 835 277 835 307 848 c 1,18,19
 388 878 388 878 468.5 908 c 128,-1,20
 549 938 549 938 630 968 c 0,21,22
 652 976 652 976 672 976 c 2,23,-1
 678 976 l 1,24,25
 746 973 746 973 842 942 c 1,26,-1
 844 942 l 1,27,28
 844 943 844 943 817 956 c 1,29,-1
 817 1257 l 2,30,31
 817 1308 817 1308 767 1326 c 128,-1,32
 717 1344 717 1344 717 1383 c 0,33,34
 717 1424 717 1424 762 1424 c 1,35,36
 824 1427 824 1427 886.5 1443.5 c 128,-1,37
 949 1460 949 1460 1048 1493 c 1,38,-1
 1048 146 l 2,39,40
 1048 94 1048 94 1098 76.5 c 128,-1,41
 1148 59 1148 59 1148 21 c 0,42,43
 1148 -20 1148 -20 1102 -20 c 2,44,-1
 859 -20 l 2,45,46
 817 -20 817 -20 817 13 c 2,47,-1
 817 56 l 1,0,-1
817 763 m 1,48,49
 781 795 781 795 720 823.5 c 128,-1,50
 659 852 659 852 614 854 c 1,51,-1
 611 854 l 2,52,53
 597 854 597 854 581 848 c 0,54,55
 545 835 545 835 509.5 821.5 c 128,-1,56
 474 808 474 808 438 795 c 1,57,58
 419 787 419 787 408 775 c 0,59,60
 350 713 350 713 330 624 c 1,61,62
 313 554 313 554 313 486 c 0,63,64
 313 465 313 465 315 442 c 0,65,66
 326 303 326 303 390 217 c 1,67,68
 452 130 452 130 544 105 c 0,69,70
 578 95 578 95 613 95 c 0,71,72
 624 95 624 95 635 96 c 0,73,74
 653 98 653 98 680 107 c 0,75,76
 703 115 703 115 752 133.5 c 128,-1,77
 801 152 801 152 817 158 c 1,78,-1
 817 763 l 1,48,49
EndSplineSet
Validated: 1
EndChar

StartChar: e
Encoding: 101 101 58
Width: 1004
Flags: W
LayerCount: 2
Fore
SplineSet
562 980 m 2,0,1
 771 980 771 980 881.5 860 c 128,-1,2
 992 740 992 740 992 551 c 1,3,4
 991 510 991 510 988 484 c 128,-1,5
 985 458 985 458 923 458 c 2,6,-1
 311 458 l 1,7,8
 314 321 314 321 388.5 220.5 c 128,-1,9
 463 120 463 120 573 98 c 0,10,11
 605 91 605 91 638 91 c 0,12,13
 726 91 726 91 805.5 134 c 128,-1,14
 885 177 885 177 906 177 c 256,15,16
 927 177 927 177 937.5 168.5 c 128,-1,17
 948 160 948 160 948 145 c 0,18,19
 948 129 948 129 934 102 c 128,-1,20
 920 75 920 75 911.5 66 c 128,-1,21
 903 57 903 57 896 50 c 0,22,23
 779 -51 779 -51 581 -51 c 1,24,25
 305 -49 305 -49 168 125 c 0,26,27
 62 259 62 259 62 441 c 0,28,29
 62 495 62 495 71 553 c 0,30,31
 100 744 100 744 226 861 c 128,-1,32
 352 978 352 978 558 980 c 1,33,-1
 562 980 l 2,0,1
788 571 m 1,34,35
 788 669 788 669 738.5 760.5 c 128,-1,36
 689 852 689 852 564 852 c 2,37,-1
 553 852 l 1,38,39
 428 848 428 848 371.5 757.5 c 128,-1,40
 315 667 315 667 312 571 c 1,41,-1
 788 571 l 1,34,35
EndSplineSet
Validated: 1
EndChar

StartChar: f
Encoding: 102 102 59
Width: 683
Flags: W
LayerCount: 2
Fore
SplineSet
438 1027 m 2,0,-1
 438 969 l 1,1,-1
 652 973 l 2,2,3
 692 973 692 973 692 943 c 0,4,5
 692 912 692 912 688 890 c 0,6,7
 674 826 674 826 618 826 c 2,8,-1
 438 827 l 1,9,-1
 438 146 l 2,10,11
 438 94 438 94 488 76.5 c 128,-1,12
 538 59 538 59 538 20 c 0,13,14
 538 -20 538 -20 492 -20 c 2,15,-1
 153 -20 l 2,16,17
 107 -20 107 -20 107 20 c 0,18,19
 107 59 107 59 157 76.5 c 128,-1,20
 207 94 207 94 207 146 c 2,21,-1
 207 824 l 1,22,-1
 114 820 l 1,23,24
 70 820 70 820 68 860 c 1,25,-1
 68 862 l 2,26,27
 68 889 68 889 100 904 c 0,28,29
 119 913 119 913 158.5 934 c 128,-1,30
 198 955 198 955 210 960 c 0,31,32
 215 962 215 962 215 963 c 0,33,34
 215 965 215 965 207 965 c 1,35,-1
 207 1027 l 2,36,37
 207 1156 207 1156 227 1224.5 c 128,-1,38
 247 1293 247 1293 270.5 1322.5 c 128,-1,39
 294 1352 294 1352 326 1363 c 2,40,-1
 584 1459 l 1,41,-1
 627 1465 l 1,42,43
 660 1465 660 1465 689 1445.5 c 128,-1,44
 718 1426 718 1426 727 1409 c 128,-1,45
 736 1392 736 1392 736 1376 c 256,46,47
 736 1360 736 1360 734 1325 c 128,-1,48
 732 1290 732 1290 701 1281 c 1,49,-1
 694 1281 l 2,50,51
 674 1281 674 1281 639.5 1304 c 128,-1,52
 605 1327 605 1327 575 1327 c 256,53,54
 545 1327 545 1327 523 1318 c 0,55,56
 452 1288 452 1288 443 1197 c 0,57,58
 439 1160 439 1160 438.5 1116.5 c 128,-1,59
 438 1073 438 1073 438 1027 c 2,0,-1
EndSplineSet
Validated: 1
EndChar

StartChar: g
Encoding: 103 103 60
Width: 1103
Flags: W
LayerCount: 2
Fore
SplineSet
797 219 m 1,0,-1
 797 762 l 1,1,2
 765 792 765 792 702.5 822 c 128,-1,3
 640 852 640 852 594 854 c 1,4,-1
 591 854 l 2,5,6
 577 854 577 854 561 848 c 0,7,8
 525 835 525 835 489.5 821.5 c 128,-1,9
 454 808 454 808 418 795 c 1,10,11
 399 787 399 787 388 775 c 0,12,13
 330 713 330 713 310 624 c 1,14,15
 293 554 293 554 293 486 c 0,16,17
 293 465 293 465 295 442 c 0,18,19
 306 303 306 303 370 217 c 1,20,21
 432 130 432 130 524 105 c 0,22,23
 558 95 558 95 593 95 c 0,24,25
 604 95 604 95 615 96 c 0,26,27
 633 98 633 98 660 107 c 0,28,29
 683 115 683 115 731.5 133 c 128,-1,30
 780 151 780 151 796 157 c 1,31,-1
 796 219 l 1,32,-1
 797 219 l 1,0,-1
796 56 m 1,33,-1
 557 -32 l 2,34,35
 520 -45 520 -45 494 -45 c 2,36,-1
 452 -45 l 1,37,38
 298 -37 298 -37 190 77 c 0,39,40
 81 193 81 193 66 358 c 0,41,42
 62 400 62 400 62 440 c 0,43,44
 62 493 62 493 69 543 c 0,45,46
 82 632 82 632 138 720 c 1,47,48
 165 767 165 767 232 818 c 1,49,50
 257 835 257 835 287 848 c 1,51,52
 368 878 368 878 448.5 908 c 128,-1,53
 529 938 529 938 610 968 c 0,54,55
 632 976 632 976 652 976 c 2,56,-1
 658 976 l 1,57,58
 726 973 726 973 822 942 c 0,59,60
 832 939 832 939 834 937 c 1,61,62
 854 929 854 929 885 919 c 0,63,64
 893 916 893 916 900 916 c 0,65,66
 906 916 906 916 910 919 c 0,67,68
 929 935 929 935 936 945 c 0,69,70
 949 962 949 962 971 962 c 0,71,72
 982 962 982 962 991 958 c 0,73,74
 1028 945 1028 945 1028 920 c 2,75,-1
 1028 -180 l 2,76,77
 1028 -353 1028 -353 976 -398.5 c 128,-1,78
 924 -444 924 -444 832 -477 c 1,79,-1
 557 -580 l 2,80,81
 520 -593 520 -593 494 -593 c 0,82,83
 467 -593 467 -593 451 -592 c 0,84,85
 299 -587 299 -587 188 -468 c 0,86,87
 131 -406 131 -406 92 -305 c 1,88,89
 199 -263 199 -263 316 -220 c 1,90,91
 341 -291 341 -291 370 -330 c 0,92,93
 433 -416 433 -416 524 -442 c 0,94,95
 558 -451 558 -451 591 -451 c 0,96,97
 604 -451 604 -451 615 -450 c 0,98,99
 634 -448 634 -448 660 -440 c 1,100,101
 671 -435 671 -435 690.5 -428 c 128,-1,102
 710 -421 710 -421 730 -413 c 1,103,104
 767 -395 767 -395 782 -327 c 128,-1,105
 797 -259 797 -259 797 -237 c 2,106,-1
 796 56 l 1,33,-1
EndSplineSet
Validated: 1
EndChar

StartChar: h
Encoding: 104 104 61
Width: 1207
Flags: W
LayerCount: 2
Fore
SplineSet
412 146 m 2,0,1
 412 94 412 94 462 76.5 c 128,-1,2
 512 59 512 59 512 20 c 0,3,4
 512 -20 512 -20 467 -20 c 2,5,-1
 128 -20 l 2,6,7
 82 -20 82 -20 82 20 c 0,8,9
 82 59 82 59 132 76.5 c 128,-1,10
 182 94 182 94 182 146 c 2,11,-1
 182 1257 l 2,12,13
 182 1308 182 1308 132 1326 c 128,-1,14
 82 1344 82 1344 82 1383 c 0,15,16
 82 1424 82 1424 127 1424 c 1,17,18
 189 1427 189 1427 251.5 1443.5 c 128,-1,19
 314 1460 314 1460 412 1493 c 1,20,-1
 412 885 l 1,21,22
 432 892 432 892 474 908 c 128,-1,23
 516 924 516 924 583 947.5 c 128,-1,24
 650 971 650 971 708 976.5 c 128,-1,25
 766 982 766 982 780 982 c 0,26,27
 874 982 874 982 957 919 c 0,28,29
 1086 820 1086 820 1086 506 c 2,30,-1
 1086 146 l 2,31,32
 1086 94 1086 94 1136 76.5 c 128,-1,33
 1186 59 1186 59 1186 20 c 0,34,35
 1186 -20 1186 -20 1141 -20 c 2,36,-1
 898 -20 l 2,37,38
 856 -20 856 -20 856 13 c 2,39,-1
 856 506 l 2,40,41
 856 718 856 718 771 801 c 0,42,43
 720 851 720 851 648 851 c 0,44,45
 605 851 605 851 568 838.5 c 128,-1,46
 531 826 531 826 497.5 813.5 c 128,-1,47
 464 801 464 801 439 791 c 1,48,49
 416 783 416 783 412 781 c 1,50,-1
 412 146 l 2,0,1
EndSplineSet
Validated: 1
EndChar

StartChar: k
Encoding: 107 107 62
Width: 1163
Flags: W
LayerCount: 2
Fore
SplineSet
432 434 m 1,0,-1
 432 146 l 2,1,2
 432 94 432 94 482 76.5 c 128,-1,3
 532 59 532 59 532 21 c 0,4,5
 532 -20 532 -20 487 -20 c 2,6,-1
 148 -20 l 2,7,8
 102 -20 102 -20 102 21 c 0,9,10
 102 59 102 59 152 76.5 c 128,-1,11
 202 94 202 94 202 146 c 2,12,-1
 202 1257 l 2,13,14
 202 1308 202 1308 152 1326 c 128,-1,15
 102 1344 102 1344 102 1383 c 0,16,17
 102 1424 102 1424 147 1424 c 1,18,19
 209 1427 209 1427 271.5 1443.5 c 128,-1,20
 334 1460 334 1460 432 1493 c 1,21,-1
 432 599 l 1,22,-1
 743 848 l 2,23,24
 806 899 806 899 854 929 c 1,25,26
 888 949 888 949 920 949 c 0,27,28
 945 949 945 949 969 936 c 1,29,-1
 1044 890 l 1,30,31
 1066 875 1066 875 1066 856 c 0,32,33
 1066 847 1066 847 1061 839 c 1,34,-1
 1004 711 l 1,35,-1
 928 750 l 2,36,37
 904 762 904 762 883 762 c 0,38,39
 859 762 859 762 836 745 c 0,40,41
 691 637 691 637 597 563 c 1,42,-1
 930 238 l 2,43,44
 1035 136 1035 136 1063 123 c 0,45,46
 1081 115 1081 115 1098 115 c 0,47,48
 1105 115 1105 115 1113 116 c 1,49,50
 1123 119 1123 119 1134 119 c 0,51,52
 1171 119 1171 119 1185 90 c 1,53,54
 1188 80 1188 80 1188 74 c 0,55,56
 1188 52 1188 52 1165 42 c 2,57,-1
 1101 12 l 1,58,59
 1043 -14 1043 -14 992 -14 c 0,60,61
 957 -14 957 -14 926 -1 c 0,62,63
 856 27 856 27 799 83 c 2,64,-1
 437 435 l 1,65,66
 441 439 441 439 441 440 c 1,67,68
 440 440 440 440 432 434 c 1,0,-1
EndSplineSet
Validated: 1
EndChar

StartChar: l
Encoding: 108 108 63
Width: 597
Flags: W
LayerCount: 2
Fore
SplineSet
432 146 m 2,0,1
 432 94 432 94 482 76.5 c 128,-1,2
 532 59 532 59 532 21 c 0,3,4
 532 -20 532 -20 487 -20 c 2,5,-1
 148 -20 l 2,6,7
 102 -20 102 -20 102 21 c 0,8,9
 102 59 102 59 152 76.5 c 128,-1,10
 202 94 202 94 202 146 c 2,11,-1
 202 1257 l 2,12,13
 202 1308 202 1308 152 1326 c 128,-1,14
 102 1344 102 1344 102 1383 c 0,15,16
 102 1424 102 1424 147 1424 c 1,17,18
 209 1427 209 1427 271.5 1443.5 c 128,-1,19
 334 1460 334 1460 432 1493 c 1,20,-1
 432 146 l 2,0,1
EndSplineSet
Validated: 1
EndChar

StartChar: m
Encoding: 109 109 64
Width: 1797
Flags: W
LayerCount: 2
Fore
SplineSet
776 982 m 0,0,1
 870 982 870 982 953 919 c 0,2,3
 982 896 982 896 988 889 c 1,4,5
 1013 898 1013 898 1049.5 911.5 c 128,-1,6
 1086 925 1086 925 1150.5 948 c 128,-1,7
 1215 971 1215 971 1273 976.5 c 128,-1,8
 1331 982 1331 982 1345 982 c 0,9,10
 1438 982 1438 982 1521 920 c 1,11,12
 1651 820 1651 820 1651 506 c 2,13,-1
 1651 146 l 2,14,15
 1651 94 1651 94 1701 76.5 c 128,-1,16
 1751 59 1751 59 1751 20 c 0,17,18
 1751 -20 1751 -20 1705 -20 c 2,19,-1
 1462 -20 l 2,20,21
 1421 -20 1421 -20 1421 13 c 2,22,-1
 1421 506 l 2,23,24
 1421 718 1421 718 1336 801 c 0,25,26
 1285 851 1285 851 1213 851 c 0,27,28
 1170 851 1170 851 1134 839 c 128,-1,29
 1098 827 1098 827 1069.5 816.5 c 128,-1,30
 1041 806 1041 806 1039 805 c 1,31,32
 1082 716 1082 716 1082 506 c 2,33,-1
 1082 146 l 2,34,35
 1082 94 1082 94 1132 76.5 c 128,-1,36
 1182 59 1182 59 1182 20 c 0,37,38
 1182 -20 1182 -20 1137 -20 c 2,39,-1
 798 -20 l 2,40,41
 752 -20 752 -20 752 20 c 0,42,43
 752 59 752 59 802 76.5 c 128,-1,44
 852 94 852 94 852 146 c 2,45,-1
 852 506 l 2,46,47
 852 718 852 718 767 801 c 0,48,49
 716 851 716 851 644 851 c 0,50,51
 601 851 601 851 557.5 836.5 c 128,-1,52
 514 822 514 822 480.5 809 c 128,-1,53
 447 796 447 796 429 789 c 1,54,-1
 429 146 l 2,55,56
 429 94 429 94 479 76.5 c 128,-1,57
 529 59 529 59 529 20 c 0,58,59
 529 -20 529 -20 484 -20 c 2,60,-1
 145 -20 l 2,61,62
 99 -20 99 -20 99 20 c 0,63,64
 99 59 99 59 149 76.5 c 128,-1,65
 199 94 199 94 199 146 c 2,66,-1
 199 786 l 2,67,68
 199 836 199 836 149 854 c 128,-1,69
 99 872 99 872 99 911 c 0,70,71
 99 952 99 952 144 952 c 1,72,73
 206 955 206 955 268.5 972 c 128,-1,74
 331 989 331 989 429 1022 c 1,75,-1
 429 893 l 1,76,77
 441 897 441 897 478.5 911 c 128,-1,78
 516 925 516 925 581 948 c 128,-1,79
 646 971 646 971 704 976.5 c 128,-1,80
 762 982 762 982 776 982 c 0,0,1
EndSplineSet
Validated: 1
EndChar

StartChar: n
Encoding: 110 110 65
Width: 1191
Flags: W
LayerCount: 2
Fore
SplineSet
780 982 m 0,0,1
 874 982 874 982 957 919 c 0,2,3
 1086 820 1086 820 1086 506 c 2,4,-1
 1086 146 l 2,5,6
 1086 94 1086 94 1136 76.5 c 128,-1,7
 1186 59 1186 59 1186 20 c 0,8,9
 1186 -20 1186 -20 1141 -20 c 2,10,-1
 898 -20 l 2,11,12
 856 -20 856 -20 856 13 c 2,13,-1
 856 506 l 2,14,15
 856 718 856 718 771 801 c 0,16,17
 720 851 720 851 648 851 c 0,18,19
 605 851 605 851 568 838.5 c 128,-1,20
 531 826 531 826 497.5 813.5 c 128,-1,21
 464 801 464 801 439 791 c 1,22,23
 416 783 416 783 412 781 c 1,24,-1
 412 146 l 2,25,26
 412 94 412 94 462 76.5 c 128,-1,27
 512 59 512 59 512 20 c 0,28,29
 512 -20 512 -20 467 -20 c 2,30,-1
 128 -20 l 2,31,32
 82 -20 82 -20 82 20 c 0,33,34
 82 59 82 59 132 76.5 c 128,-1,35
 182 94 182 94 182 146 c 2,36,-1
 182 786 l 2,37,38
 182 836 182 836 132 854 c 128,-1,39
 82 872 82 872 82 911 c 0,40,41
 82 952 82 952 127 952 c 1,42,43
 189 955 189 955 251.5 972 c 128,-1,44
 314 989 314 989 412 1022 c 1,45,-1
 412 885 l 1,46,47
 432 892 432 892 474 908 c 128,-1,48
 516 924 516 924 583 947.5 c 128,-1,49
 650 971 650 971 708 976.5 c 128,-1,50
 766 982 766 982 780 982 c 0,0,1
EndSplineSet
Validated: 1
EndChar

StartChar: o
Encoding: 111 111 66
Width: 1107
Flags: W
LayerCount: 2
Fore
SplineSet
1095 459 m 2,0,1
 1095 252 1095 252 946 106.5 c 128,-1,2
 797 -39 797 -39 578 -45 c 1,3,-1
 562 -45 l 2,4,5
 358 -45 358 -45 210 105.5 c 128,-1,6
 62 256 62 256 62 462 c 2,7,-1
 62 465 l 1,8,9
 63 691 63 691 233 846 c 0,10,11
 256 867 256 867 296 881 c 128,-1,12
 336 895 336 895 395 916.5 c 128,-1,13
 454 938 454 938 508 957 c 128,-1,14
 562 976 562 976 599 976 c 2,15,-1
 603 976 l 1,16,17
 810 968 810 968 951 819 c 128,-1,18
 1092 670 1092 670 1095 465 c 1,19,-1
 1095 459 l 2,0,1
569 869 m 2,20,21
 466 869 466 869 385 760 c 128,-1,22
 304 651 304 651 304 481 c 256,23,24
 304 311 304 311 386.5 189.5 c 128,-1,25
 469 68 469 68 580 63 c 1,26,-1
 593 63 l 2,27,28
 695 63 695 63 775.5 171.5 c 128,-1,29
 856 280 856 280 856 450 c 256,30,31
 856 620 856 620 773 741.5 c 128,-1,32
 690 863 690 863 580 869 c 1,33,-1
 569 869 l 2,20,21
EndSplineSet
Validated: 1
EndChar

StartChar: p
Encoding: 112 112 67
Width: 1197
Flags: W
LayerCount: 2
Fore
SplineSet
1160 572 m 0,0,1
 1164 531 1164 531 1164 484 c 0,2,3
 1164 436 1164 436 1153.5 366.5 c 128,-1,4
 1143 297 1143 297 1101 229.5 c 128,-1,5
 1059 162 1059 162 1014 128 c 128,-1,6
 969 94 969 94 939 82 c 0,7,8
 763 16 763 16 678.5 -14.5 c 128,-1,9
 594 -45 594 -45 573 -45 c 2,10,-1
 568 -45 l 1,11,12
 505 -42 505 -42 442 -23 c 1,13,-1
 442 -440 l 2,14,15
 442 -491 442 -491 492 -509 c 128,-1,16
 542 -527 542 -527 542 -566 c 0,17,18
 542 -606 542 -606 497 -606 c 2,19,-1
 158 -606 l 2,20,21
 112 -606 112 -606 112 -566 c 0,22,23
 112 -527 112 -527 162 -509 c 128,-1,24
 212 -491 212 -491 212 -440 c 2,25,-1
 212 786 l 2,26,27
 212 836 212 836 162 854 c 128,-1,28
 112 872 112 872 112 911 c 0,29,30
 112 952 112 952 157 952 c 1,31,32
 219 955 219 955 281.5 972 c 128,-1,33
 344 989 344 989 442 1022 c 1,34,-1
 442 879 l 1,35,-1
 670 963 l 2,36,37
 702 975 702 975 722 976 c 128,-1,38
 742 977 742 977 743 977 c 2,39,-1
 752 977 l 1,40,41
 762 976 762 976 774 976 c 0,42,43
 927 969 927 969 1038 852 c 1,44,45
 1144 736 1144 736 1160 572 c 0,0,1
638 76 m 2,46,47
 649 76 649 76 675 85.5 c 128,-1,48
 701 95 701 95 736.5 108 c 128,-1,49
 772 121 772 121 798.5 131 c 128,-1,50
 825 141 825 141 839 155 c 0,51,52
 895 216 895 216 914 295.5 c 128,-1,53
 933 375 933 375 933 421 c 0,54,55
 933 466 933 466 931 488 c 0,56,57
 920 626 920 626 856.5 712.5 c 128,-1,58
 793 799 793 799 702 825 c 0,59,60
 666 835 666 835 644 835 c 0,61,62
 621 835 621 835 606.5 833.5 c 128,-1,63
 592 832 592 832 568.5 823.5 c 128,-1,64
 545 815 545 815 502.5 799.5 c 128,-1,65
 460 784 460 784 442 777 c 1,66,-1
 442 158 l 1,67,68
 475 130 475 130 532 103.5 c 128,-1,69
 589 77 589 77 632 76 c 1,70,-1
 638 76 l 2,46,47
EndSplineSet
Validated: 1
EndChar

StartChar: q
Encoding: 113 113 68
Width: 1173
Flags: W
LayerCount: 2
Fore
SplineSet
514 -45 m 2,0,-1
 471 -45 l 1,1,2
 316 -37 316 -37 208.5 78 c 128,-1,3
 101 193 101 193 86 358 c 0,4,5
 82 401 82 401 82 448 c 0,6,7
 82 494 82 494 91.5 562.5 c 128,-1,8
 101 631 101 631 144 700 c 128,-1,9
 187 769 187 769 231.5 802.5 c 128,-1,10
 276 836 276 836 332 857 c 128,-1,11
 388 878 388 878 468 908 c 128,-1,12
 548 938 548 938 600 957 c 128,-1,13
 652 976 652 976 673 976 c 2,14,-1
 678 976 l 1,15,16
 747 973 747 973 796 957 c 128,-1,17
 845 941 845 941 846 940.5 c 128,-1,18
 847 940 847 940 868 940 c 1,19,-1
 868 930 l 1,20,21
 876 927 876 927 894.5 921.5 c 128,-1,22
 913 916 913 916 918 916 c 0,23,24
 922 916 922 916 933.5 925.5 c 128,-1,25
 945 935 945 935 955 948.5 c 128,-1,26
 965 962 965 962 981 962 c 256,27,28
 997 962 997 962 1020.5 953.5 c 128,-1,29
 1044 945 1044 945 1044 920 c 2,30,-1
 1044 -440 l 2,31,32
 1044 -491 1044 -491 1094 -509 c 128,-1,33
 1144 -527 1144 -527 1144 -566 c 0,34,35
 1144 -606 1144 -606 1098 -606 c 2,36,-1
 759 -606 l 2,37,38
 713 -606 713 -606 713 -566 c 0,39,40
 713 -527 713 -527 763 -509 c 128,-1,41
 813 -491 813 -491 813 -440 c 2,42,-1
 813 55 l 1,43,-1
 576 -32 l 2,44,45
 541 -45 541 -45 514 -45 c 2,0,-1
610 854 m 2,46,47
 595 854 595 854 570 844.5 c 128,-1,48
 545 835 545 835 509 821.5 c 128,-1,49
 473 808 473 808 446.5 798 c 128,-1,50
 420 788 420 788 407 775 c 0,51,52
 349 713 349 713 330.5 633.5 c 128,-1,53
 312 554 312 554 312 510 c 0,54,55
 312 465 312 465 314 442 c 0,56,57
 325 303 325 303 387.5 217 c 128,-1,58
 450 131 450 131 543 105 c 0,59,60
 578 95 578 95 601 95 c 256,61,62
 624 95 624 95 638.5 96.5 c 128,-1,63
 653 98 653 98 677 106.5 c 128,-1,64
 701 115 701 115 748.5 132.5 c 128,-1,65
 796 150 796 150 813 157 c 1,66,-1
 813 764 l 1,67,68
 780 793 780 793 719 822.5 c 128,-1,69
 658 852 658 852 613 854 c 1,70,-1
 610 854 l 2,46,47
EndSplineSet
Validated: 1
EndChar

StartChar: r
Encoding: 114 114 69
Width: 831
Flags: W
LayerCount: 2
Fore
SplineSet
453 595 m 1,0,-1
 453 146 l 2,1,2
 453 94 453 94 502.5 76.5 c 128,-1,3
 552 59 552 59 552 21 c 0,4,5
 552 -20 552 -20 507 -20 c 2,6,-1
 168 -20 l 2,7,8
 122 -20 122 -20 122 21 c 0,9,10
 122 59 122 59 172 76.5 c 128,-1,11
 222 94 222 94 222 146 c 2,12,-1
 222 786 l 2,13,14
 222 836 222 836 172 854 c 128,-1,15
 122 872 122 872 122 911 c 0,16,17
 122 952 122 952 167 952 c 1,18,19
 229 955 229 955 291.5 972 c 128,-1,20
 354 989 354 989 453 1022 c 1,21,-1
 453 892 l 1,22,-1
 557 931 l 2,23,24
 634 960 634 960 678 975 c 1,25,26
 696 980 696 980 718 980 c 0,27,28
 760 980 760 980 838 953 c 1,29,-1
 813 669 l 1,30,-1
 724 669 l 1,31,32
 685 815 685 815 594 815 c 0,33,34
 584 815 584 815 575 814 c 0,35,36
 514 807 514 807 485 745.5 c 128,-1,37
 456 684 456 684 453 595 c 1,0,-1
EndSplineSet
Validated: 1
EndChar

StartChar: s
Encoding: 115 115 70
Width: 884
Flags: W
LayerCount: 2
Fore
SplineSet
756 659 m 2,0,-1
 752 659 l 1,1,2
 723 661 723 661 708 696 c 1,3,4
 674 767 674 767 610.5 813 c 128,-1,5
 547 859 547 859 477 862 c 1,6,-1
 473 862 l 2,7,8
 419 862 419 862 366 834.5 c 128,-1,9
 313 807 313 807 301 750 c 0,10,11
 296 729 296 729 296 713 c 0,12,13
 296 661 296 661 352 633.5 c 128,-1,14
 408 606 408 606 519.5 581 c 128,-1,15
 631 556 631 556 744 503.5 c 128,-1,16
 857 451 857 451 867 283 c 1,17,-1
 867 273 l 2,18,19
 867 194 867 194 803.5 111.5 c 128,-1,20
 740 29 740 29 639.5 -5.5 c 128,-1,21
 539 -40 539 -40 445 -43 c 1,22,-1
 417 -43 l 2,23,24
 290 -43 290 -43 162 -6 c 1,25,-1
 76 227 l 1,26,-1
 79 251 l 1,27,28
 82 284 82 284 122 284 c 2,29,-1
 127 284 l 1,30,31
 153 279 153 279 169 247 c 1,32,33
 212 153 212 153 272.5 115.5 c 128,-1,34
 333 78 333 78 427 75 c 1,35,-1
 438 75 l 2,36,37
 504 75 504 75 583 106 c 128,-1,38
 662 137 662 137 665 218 c 1,39,-1
 665 224 l 2,40,41
 665 318 665 318 569.5 345 c 128,-1,42
 474 372 474 372 382.5 397.5 c 128,-1,43
 291 423 291 423 198 486 c 128,-1,44
 105 549 105 549 105 672 c 2,45,-1
 105 677 l 1,46,47
 106 842 106 842 229 910.5 c 128,-1,48
 352 979 352 979 491 979 c 0,49,50
 505 979 505 979 517 978 c 0,51,52
 671 970 671 970 820 878 c 1,53,-1
 797 692 l 2,54,55
 793 659 793 659 756 659 c 2,0,-1
EndSplineSet
Validated: 1
EndChar

StartChar: t
Encoding: 116 116 71
Width: 682
Flags: W
LayerCount: 2
Fore
SplineSet
114 820 m 1,0,1
 70 820 70 820 68 860 c 1,2,-1
 68 862 l 2,3,4
 68 889 68 889 100 904 c 0,5,6
 119 913 119 913 158.5 934 c 128,-1,7
 198 955 198 955 210 960 c 0,8,9
 215 962 215 962 215 963 c 0,10,11
 215 965 215 965 207 965 c 1,12,-1
 207 1116 l 2,13,14
 207 1173 207 1173 232 1196.5 c 128,-1,15
 257 1220 257 1220 312 1246.5 c 128,-1,16
 367 1273 367 1273 390 1273 c 0,17,18
 438 1273 438 1273 438 1227 c 2,19,-1
 438 969 l 1,20,-1
 652 973 l 2,21,22
 692 973 692 973 692 943 c 0,23,24
 692 912 692 912 688 890 c 0,25,26
 674 826 674 826 618 826 c 2,27,-1
 438 827 l 1,28,-1
 438 220 l 2,29,30
 438 138 438 138 494.5 98 c 128,-1,31
 551 58 551 58 610 50 c 1,32,-1
 610 -19 l 1,33,34
 432 -19 432 -19 319.5 12 c 128,-1,35
 207 43 207 43 207 250 c 2,36,-1
 207 824 l 1,37,-1
 114 820 l 1,0,1
EndSplineSet
Validated: 1
EndChar

StartChar: u
Encoding: 117 117 72
Width: 1239
Flags: W
LayerCount: 2
Fore
SplineSet
1090 146 m 2,0,1
 1090 94 1090 94 1140 76.5 c 128,-1,2
 1190 59 1190 59 1190 21 c 0,3,4
 1190 -20 1190 -20 1144 -20 c 2,5,-1
 901 -20 l 2,6,7
 859 -20 859 -20 859 13 c 2,8,-1
 859 46 l 1,9,10
 840 39 840 39 797 22.5 c 128,-1,11
 754 6 754 6 716 -7 c 0,12,13
 621 -39 621 -39 520 -49 c 0,14,15
 504 -50 504 -50 490 -50 c 0,16,17
 397 -50 397 -50 315 11 c 1,18,19
 185 110 185 110 185 425 c 2,20,-1
 185 786 l 2,21,22
 185 836 185 836 135 854 c 128,-1,23
 85 872 85 872 85 911 c 0,24,25
 85 952 85 952 130 952 c 1,26,27
 192 955 192 955 254.5 972 c 128,-1,28
 317 989 317 989 416 1022 c 1,29,-1
 416 425 l 2,30,31
 416 212 416 212 501 130 c 0,32,33
 552 80 552 80 624 80 c 0,34,35
 667 80 667 80 721 98 c 0,36,37
 740 104 740 104 774 117 c 128,-1,38
 808 130 808 130 831 139 c 0,39,40
 837 141 837 141 848 145 c 2,41,-1
 859 149 l 1,42,-1
 859 786 l 2,43,44
 859 836 859 836 809 854 c 128,-1,45
 759 872 759 872 759 911 c 0,46,47
 759 952 759 952 804 952 c 1,48,49
 866 955 866 955 928.5 972 c 128,-1,50
 991 989 991 989 1090 1022 c 1,51,-1
 1090 146 l 2,0,1
EndSplineSet
Validated: 1
EndChar

StartChar: v
Encoding: 118 118 73
Width: 1036
Flags: W
LayerCount: 2
Fore
SplineSet
404 811 m 2,0,-1
 642 229 l 1,1,-1
 848 723 l 2,2,3
 856 741 856 741 856 758 c 0,4,5
 856 787 856 787 832 815 c 2,6,-1
 788 868 l 1,7,-1
 892 949 l 1,8,9
 904 962 904 962 921 962 c 0,10,11
 940 962 940 962 956 946 c 2,12,-1
 1012 889 l 2,13,14
 1034 866 1034 866 1034 833 c 0,15,16
 1034 816 1034 816 1027 794 c 0,17,18
 1011 746 1011 746 979 681 c 1,19,-1
 672 -5 l 2,20,21
 666 -17 666 -17 659 -26 c 1,22,23
 646 -39 646 -39 628 -39 c 2,24,-1
 544 -39 l 2,25,26
 522 -39 522 -39 512 -24 c 1,27,28
 507 -19 507 -19 502 -4.5 c 128,-1,29
 497 10 497 10 495 15 c 2,30,-1
 168 794 l 2,31,32
 154 826 154 826 127 844 c 0,33,34
 109 856 109 856 87.5 865.5 c 128,-1,35
 66 875 66 875 53 884 c 0,36,37
 42 891 42 891 33 907 c 1,38,39
 31 915 31 915 31 920 c 256,40,41
 31 925 31 925 33 933 c 1,42,43
 44 951 44 951 68 951 c 2,44,-1
 396 951 l 2,45,46
 411 951 411 951 428 941 c 1,47,48
 442 930 442 930 447 919 c 1,49,50
 449 912 449 912 449 908 c 0,51,52
 449 892 449 892 433 877 c 0,53,54
 403 850 403 850 401 844 c 256,55,56
 399 838 399 838 399 830 c 0,57,58
 399 821 399 821 404 811 c 2,0,-1
EndSplineSet
Validated: 1
EndChar

StartChar: w
Encoding: 119 119 74
Width: 1647
Flags: W
LayerCount: 2
Fore
SplineSet
1459 723 m 2,0,1
 1467 741 1467 741 1467 764 c 256,2,3
 1467 787 1467 787 1443 815 c 2,4,-1
 1399 867 l 1,5,-1
 1501 949 l 1,6,7
 1513 961 1513 961 1532 961 c 0,8,9
 1550 961 1550 961 1566 947 c 1,10,-1
 1623 889 l 2,11,12
 1645 866 1645 866 1645 841 c 256,13,14
 1645 816 1645 816 1633.5 781 c 128,-1,15
 1622 746 1622 746 1590 681 c 1,16,-1
 1283 -5 l 2,17,18
 1277 -18 1277 -18 1267.5 -28.5 c 128,-1,19
 1258 -39 1258 -39 1239 -39 c 2,20,-1
 1155 -39 l 2,21,22
 1134 -39 1134 -39 1126 -28.5 c 128,-1,23
 1118 -18 1118 -18 1113 -4.5 c 128,-1,24
 1108 9 1108 9 1105 14 c 2,25,-1
 900 504 l 1,26,-1
 672 -5 l 2,27,28
 666 -18 666 -18 656.5 -28.5 c 128,-1,29
 647 -39 647 -39 628 -39 c 2,30,-1
 544 -39 l 2,31,32
 523 -39 523 -39 515 -28.5 c 128,-1,33
 507 -18 507 -18 502 -4 c 128,-1,34
 497 10 497 10 495 15 c 2,35,-1
 168 794 l 2,36,37
 154 826 154 826 131 841 c 128,-1,38
 108 856 108 856 87.5 865 c 128,-1,39
 67 874 67 874 54 883 c 128,-1,40
 41 892 41 892 36 903 c 128,-1,41
 31 914 31 914 31 920 c 0,42,43
 31 925 31 925 33 933 c 1,44,45
 44 951 44 951 68 951 c 2,46,-1
 396 951 l 2,47,48
 411 951 411 951 428 941 c 1,49,50
 442 929 442 929 445.5 921 c 128,-1,51
 449 913 449 913 449 903 c 0,52,53
 449 892 449 892 426 871 c 128,-1,54
 403 850 403 850 401 844 c 128,-1,55
 399 838 399 838 399 830 c 0,56,57
 399 821 399 821 404 811 c 2,58,-1
 642 229 l 1,59,-1
 829 676 l 1,60,-1
 779 794 l 2,61,62
 765 826 765 826 742 841 c 128,-1,63
 719 856 719 856 698.5 865 c 128,-1,64
 678 874 678 874 662.5 884.5 c 128,-1,65
 647 895 647 895 644.5 905 c 128,-1,66
 642 915 642 915 642 920 c 256,67,68
 642 925 642 925 644 933 c 1,69,70
 655 951 655 951 679 951 c 2,71,-1
 1007 951 l 2,72,73
 1022 951 1022 951 1039 941 c 1,74,75
 1053 929 1053 929 1056.5 921 c 128,-1,76
 1060 913 1060 913 1060 903 c 0,77,78
 1060 892 1060 892 1037 871 c 128,-1,79
 1014 850 1014 850 1012 844 c 128,-1,80
 1010 838 1010 838 1010 830 c 0,81,82
 1010 821 1010 821 1015 811 c 2,83,-1
 1253 229 l 1,84,-1
 1459 723 l 2,0,1
EndSplineSet
Validated: 1
EndChar

StartChar: x
Encoding: 120 120 75
Width: 1098
Flags: W
LayerCount: 2
Fore
SplineSet
167 108 m 2,0,-1
 445 448 l 1,1,-1
 187 823 l 2,2,3
 174 842 174 842 143 858 c 0,4,5
 124 868 124 868 105.5 875 c 128,-1,6
 87 882 87 882 74 890 c 0,7,8
 41 909 41 909 41 924 c 0,9,10
 41 949 41 949 81 949 c 2,11,-1
 403 949 l 2,12,13
 432 949 432 949 450 925 c 0,14,15
 456 916 456 916 456 906 c 0,16,17
 456 890 456 890 436 879 c 0,18,19
 431 876 431 876 431 868 c 0,20,21
 431 858 431 858 440 846 c 2,22,-1
 591 626 l 1,23,-1
 738 807 l 2,24,25
 830 919 830 919 857 942 c 1,26,27
 873 957 873 957 900 957 c 0,28,29
 931 957 931 957 976 934 c 2,30,-1
 1040 900 l 1,31,32
 1060 888 1060 888 1060 869 c 0,33,34
 1060 860 1060 860 1055 851 c 2,35,-1
 993 724 l 1,36,37
 931 757 931 757 900 772 c 0,38,39
 898 773 898 773 897 773 c 0,40,41
 887 773 887 773 866 747 c 2,42,-1
 671 509 l 1,43,-1
 949 106 l 2,44,45
 964 83 964 83 998 69 c 0,46,47
 1013 62 1013 62 1028.5 55 c 128,-1,48
 1044 48 1044 48 1061 40 c 1,49,50
 1095 20 1095 20 1095 5 c 0,51,52
 1095 -20 1095 -20 1055 -20 c 2,53,-1
 733 -20 l 2,54,55
 704 -20 704 -20 686 4 c 1,56,57
 680 14 680 14 680 22 c 0,58,59
 680 37 680 37 699 50 c 0,60,61
 704 53 704 53 705 61 c 1,62,-1
 705 62 l 2,63,64
 705 71 705 71 696 84 c 2,65,-1
 526 331 l 1,66,-1
 325 87 l 1,67,68
 310 66 310 66 310 55 c 2,69,-1
 310 52 l 2,70,71
 310 44 310 44 313 39 c 1,72,73
 316 31 316 31 316 26 c 0,74,75
 316 14 316 14 308 4 c 1,76,77
 292 -20 292 -20 267 -20 c 2,78,-1
 59 -20 l 2,79,80
 24 -20 24 -20 24 5 c 0,81,82
 24 15 24 15 32 25 c 0,83,84
 50 47 50 47 93 58 c 128,-1,85
 136 69 136 69 167 108 c 2,0,-1
EndSplineSet
Validated: 1
EndChar

StartChar: y
Encoding: 121 121 76
Width: 1036
Flags: W
LayerCount: 2
Fore
SplineSet
73 871.5 m 128,-1,1
 42 884 42 884 36 899.5 c 128,-1,2
 30 915 30 915 30 933 c 256,3,4
 30 951 30 951 68 951 c 2,5,-1
 396 951 l 2,6,7
 432 951 432 951 441 931.5 c 128,-1,8
 450 912 450 912 450 905 c 0,9,10
 450 882 450 882 428.5 871 c 128,-1,11
 407 860 407 860 403 848.5 c 128,-1,12
 399 837 399 837 399 829 c 256,13,14
 399 821 399 821 404 811 c 2,15,-1
 642 229 l 1,16,-1
 848 723 l 2,17,18
 856 741 856 741 856 764 c 256,19,20
 856 787 856 787 832 815 c 2,21,-1
 788 868 l 1,22,-1
 892 949 l 1,23,24
 904 962 904 962 922 962 c 256,25,26
 940 962 940 962 956 946 c 2,27,-1
 1012 889 l 2,28,29
 1034 866 1034 866 1034 841 c 256,30,31
 1034 816 1034 816 1022.5 781 c 128,-1,32
 1011 746 1011 746 979 681 c 1,33,-1
 485 -421 l 1,34,35
 454 -487 454 -487 426.5 -536.5 c 128,-1,36
 399 -586 399 -586 345 -586 c 1,37,-1
 260 -583 l 1,38,39
 219 -576 219 -576 219 -544 c 1,40,-1
 212 -411 l 1,41,-1
 288 -409 l 2,42,43
 339 -407 339 -407 361 -363 c 2,44,-1
 517 -39 l 1,45,46
 521 -39 521 -39 521 -37 c 0,47,48
 521 -34 521 -34 516 -29 c 0,49,50
 507 -19 507 -19 502 -4.5 c 128,-1,51
 497 10 497 10 495 15 c 2,52,-1
 168 794 l 2,53,54
 154 826 154 826 129 842.5 c 128,-1,0
 104 859 104 859 73 871.5 c 128,-1,1
EndSplineSet
Validated: 1
EndChar

StartChar: z
Encoding: 122 122 77
Width: 1019
Flags: W
LayerCount: 2
Fore
SplineSet
978 869 m 2,0,-1
 364 99 l 1,1,-1
 752 99 l 1,2,3
 792 101 792 101 822.5 129.5 c 128,-1,4
 853 158 853 158 895 217 c 1,5,6
 928 261 928 261 949 261 c 0,7,8
 992 261 992 261 992 223 c 2,9,-1
 992 65 l 2,10,11
 992 6 992 6 970.5 -7 c 128,-1,12
 949 -20 949 -20 870 -20 c 2,13,-1
 185 -21 l 1,14,15
 108 -20 108 -20 80 -11 c 1,16,17
 51 -4 51 -4 51 21 c 0,18,19
 51 38 51 38 71 62 c 2,20,-1
 679 841 l 1,21,-1
 372 841 l 2,22,23
 332 841 332 841 304.5 812.5 c 128,-1,24
 277 784 277 784 236 726 c 1,25,26
 203 683 203 683 182 683 c 0,27,28
 138 683 138 683 138 720 c 2,29,-1
 138 879 l 2,30,31
 138 933 138 933 162 949 c 128,-1,32
 186 965 186 965 261 965 c 2,33,-1
 883 965 l 2,34,35
 997 965 997 965 997 913 c 0,36,37
 997 893 997 893 978 869 c 2,0,-1
EndSplineSet
Validated: 1
EndChar

StartChar: braceleft
Encoding: 123 123 78
Width: 1024
Flags: W
LayerCount: 2
Fore
SplineSet
181 593 m 0,0,1
 151 595 151 595 139 614 c 1,2,3
 130 625 130 625 130 643 c 0,4,5
 130 648 130 648 131 655 c 0,6,7
 137 687 137 687 180 693 c 1,8,9
 322 705 322 705 371 758 c 0,10,11
 400 790 400 790 410 847.5 c 128,-1,12
 420 905 420 905 420 961 c 2,13,-1
 420 1173 l 2,14,15
 420 1246 420 1246 435 1326 c 128,-1,16
 450 1406 450 1406 502 1456 c 0,17,18
 583 1536 583 1536 799 1536 c 0,19,20
 832 1536 832 1536 848 1517 c 1,21,22
 862 1497 862 1497 862 1482 c 0,23,24
 862 1446 862 1446 807 1446 c 0,25,26
 687 1444 687 1444 647 1399 c 1,27,28
 620 1371 620 1371 612 1313.5 c 128,-1,29
 604 1256 604 1256 604 1204 c 2,30,-1
 604 1061 l 2,31,32
 604 983 604 983 593 892 c 128,-1,33
 582 801 582 801 544 746 c 0,34,35
 481 656 481 656 413 642 c 1,36,37
 480 628 480 628 544 539 c 1,38,39
 582 483 582 483 593 392.5 c 128,-1,40
 604 302 604 302 604 223 c 2,41,-1
 604 80 l 2,42,43
 604 -67 604 -67 647 -114 c 0,44,45
 688 -158 688 -158 807 -160 c 0,46,47
 841 -160 841 -160 853 -190 c 0,48,49
 856 -199 856 -199 856 -207 c 0,50,51
 856 -220 856 -220 846 -234 c 1,52,53
 831 -251 831 -251 799 -251 c 0,54,55
 585 -251 585 -251 502 -171 c 0,56,57
 450 -121 450 -121 435 -41.5 c 128,-1,58
 420 38 420 38 420 112 c 2,59,-1
 420 323 l 2,60,61
 420 379 420 379 409.5 437.5 c 128,-1,62
 399 496 399 496 370 529 c 1,63,64
 340 560 340 560 286.5 574.5 c 128,-1,65
 233 589 233 589 181 593 c 0,0,1
EndSplineSet
Validated: 1
EndChar

StartChar: bar
Encoding: 124 124 79
Width: 1024
Flags: W
LayerCount: 2
Fore
SplineSet
450 1510 m 1,0,-1
 641 1510 l 1,1,-1
 641 -247 l 1,2,-1
 450 -247 l 1,3,-1
 450 1510 l 1,0,-1
EndSplineSet
Validated: 1
EndChar

StartChar: asciitilde
Encoding: 126 126 80
Width: 1024
Flags: W
LayerCount: 2
Fore
SplineSet
1011 722 m 0,0,1
 948 605 948 605 891 552 c 0,2,3
 823 490 823 490 747 490 c 0,4,5
 626 490 626 490 484 578 c 0,6,7
 416 620 416 620 357 620 c 0,8,9
 313 620 313 620 273 595 c 0,10,11
 261 587 261 587 245 577 c 128,-1,12
 229 567 229 567 211 551 c 0,13,14
 178 520 178 520 153 482 c 0,15,16
 139 461 139 461 114 461 c 0,17,18
 98 461 98 461 82 471 c 1,19,20
 58 483 58 483 58 506 c 0,21,22
 58 520 58 520 69 538 c 0,23,24
 116 610 116 610 168 691.5 c 128,-1,25
 220 773 220 773 337 773 c 0,26,27
 472 773 472 773 608 681 c 0,28,29
 670 639 670 639 729 639 c 0,30,31
 780 639 780 639 831 670 c 1,32,33
 881 699 881 699 919 769 c 0,34,35
 933 793 933 793 963 793 c 0,36,37
 971 793 971 793 976 791 c 1,38,39
 1010 786 1010 786 1016 755 c 0,40,41
 1017 750 1017 750 1017 745 c 0,42,43
 1017 735 1017 735 1011 722 c 0,0,1
EndSplineSet
Validated: 1
EndChar

StartChar: cent
Encoding: 162 162 81
Width: 925
Flags: W
LayerCount: 2
Fore
SplineSet
528 1135 m 1,0,-1
 662 1135 l 1,1,-1
 662 973 l 1,2,3
 801 958 801 958 927 877 c 1,4,-1
 909 697 l 1,5,6
 904 666 904 666 872 666 c 2,7,-1
 869 666 l 1,8,9
 840 668 840 668 826 700 c 0,10,11
 789 782 789 782 731 816 c 0,12,13
 700 834 700 834 662 842 c 1,14,-1
 662 92 l 1,15,16
 730 100 730 100 788 134 c 0,17,18
 862 178 862 178 883 179 c 0,19,20
 905 179 905 179 927 175 c 1,21,22
 934 156 934 156 934 142 c 0,23,24
 934 127 934 127 918 99 c 0,25,26
 902 71 902 71 881 51 c 1,27,28
 793 -20 793 -20 662 -39 c 1,29,-1
 662 -232 l 1,30,-1
 528 -232 l 1,31,-1
 528 -44 l 1,32,33
 357 -34 357 -34 235 64 c 1,34,35
 79 196 79 196 79 446 c 0,36,37
 79 502 79 502 87 565 c 1,38,39
 132 795 132 795 327 907 c 0,40,41
 417 958 417 958 528 972 c 1,42,-1
 528 1135 l 1,0,-1
528 846 m 1,43,44
 457 835 457 835 418 797 c 1,45,46
 317 702 317 702 317 519 c 0,47,48
 317 491 317 491 320 459 c 0,49,50
 330 315 330 315 397 224 c 1,51,52
 459 143 459 143 528 110 c 1,53,-1
 528 846 l 1,43,44
EndSplineSet
Validated: 1
EndChar

StartChar: sterling
Encoding: 163 163 82
Width: 1024
Flags: W
LayerCount: 2
Fore
SplineSet
122 108 m 0,0,1
 122 49 122 49 160 49 c 0,2,3
 199 49 199 49 218 87.5 c 128,-1,4
 237 126 237 126 248 159 c 1,5,6
 226 181 226 181 199 181 c 0,7,8
 122 181 122 181 122 108 c 0,0,1
89 804 m 2,9,-1
 238 804 l 1,10,11
 232 861 232 861 232 928 c 0,12,13
 232 986 232 986 238 1035 c 0,14,15
 251 1157 251 1157 297 1245 c 0,16,17
 410 1463 410 1463 663 1463 c 0,18,19
 740 1463 740 1463 812.5 1424.5 c 128,-1,20
 885 1386 885 1386 921 1315 c 0,21,22
 938 1280 938 1280 941 1238 c 1,23,-1
 941 1230 l 2,24,25
 941 1188 941 1188 909 1156 c 0,26,27
 876 1123 876 1123 836 1123 c 0,28,29
 801 1123 801 1123 767 1151 c 1,30,31
 734 1175 734 1175 727.5 1223 c 128,-1,32
 721 1271 721 1271 717 1300 c 0,33,34
 708 1354 708 1354 648 1363 c 0,35,36
 632 1365 632 1365 618 1365 c 0,37,38
 574 1365 574 1365 544 1340 c 0,39,40
 488 1292 488 1292 472.5 1223.5 c 128,-1,41
 457 1155 457 1155 457 1079 c 0,42,43
 457 1005 457 1005 463.5 931.5 c 128,-1,44
 470 858 470 858 474 804 c 1,45,-1
 712 804 l 2,46,47
 752 804 752 804 752 769 c 2,48,-1
 752 699 l 2,49,50
 752 664 752 664 712 664 c 2,51,-1
 483 664 l 1,52,53
 484 650 484 650 484 615 c 256,54,55
 484 580 484 580 482 544 c 0,56,57
 476 461 476 461 457 386.5 c 128,-1,58
 438 312 438 312 425 249 c 1,59,60
 461 236 461 236 514 218 c 128,-1,61
 567 200 567 200 622 186 c 0,62,63
 680 172 680 172 728 172 c 0,64,65
 766 172 766 172 799 181 c 0,66,67
 866 199 866 199 906 260 c 0,68,69
 917 276 917 276 921 305 c 128,-1,70
 925 334 925 334 975 334 c 0,71,72
 1020 334 1020 334 1020 291 c 0,73,74
 1020 255 1020 255 1008 224 c 128,-1,75
 996 193 996 193 985 164 c 0,76,77
 946 64 946 64 859 2 c 1,78,79
 780 -51 780 -51 692 -51 c 0,80,81
 680 -51 680 -51 668 -50 c 0,82,83
 570 -42 570 -42 487 14 c 0,84,85
 468 27 468 27 413 62 c 2,86,-1
 360 95 l 1,87,88
 318 31 318 31 247 -25 c 1,89,90
 210 -52 210 -52 165 -52 c 0,91,92
 140 -52 140 -52 115 -43 c 0,93,94
 45 -20 45 -20 19 39 c 0,95,96
 9 62 9 62 9 90 c 0,97,98
 9 116 9 116 19 147 c 1,99,100
 37 211 37 211 75 242 c 0,101,102
 131 286 131 286 182 286 c 2,103,-1
 189 286 l 1,104,105
 232 283 232 283 264 281 c 1,106,107
 268 310 268 310 268 357 c 2,108,-1
 268 387 l 1,109,110
 265 448 265 448 263 510 c 1,111,112
 259 584 259 584 251 664 c 1,113,-1
 89 664 l 2,114,115
 49 664 49 664 49 699 c 2,116,-1
 49 769 l 2,117,118
 49 804 49 804 89 804 c 2,9,-1
EndSplineSet
Validated: 1
EndChar

StartChar: currency
Encoding: 164 164 83
Width: 1024
Flags: W
LayerCount: 2
Fore
SplineSet
538 712 m 0,0,1
 443 712 443 712 374.5 643 c 128,-1,2
 306 574 306 574 306 475 c 256,3,4
 306 376 306 376 374.5 307.5 c 128,-1,5
 443 239 443 239 538 239 c 0,6,7
 631 239 631 239 700 307.5 c 128,-1,8
 769 376 769 376 769 475 c 256,9,10
 769 574 769 574 700 643 c 128,-1,11
 631 712 631 712 538 712 c 0,0,1
538 842 m 256,12,13
 664 842 664 842 745 780 c 1,14,-1
 874 909 l 2,15,16
 886 921 886 921 903 921 c 0,17,18
 922 921 922 921 932 908 c 1,19,-1
 979 862 l 1,20,21
 988 851 988 851 988 840 c 0,22,23
 988 828 988 828 976 816 c 2,24,-1
 843 684 l 1,25,26
 909 598 909 598 909 476 c 0,27,28
 909 352 909 352 843 268 c 1,29,-1
 978 135 l 1,30,31
 988 123 988 123 988 112 c 256,32,33
 988 101 988 101 979 90 c 1,34,-1
 931 44 l 1,35,36
 919 31 919 31 902 31 c 0,37,38
 884 31 884 31 872 45 c 1,39,-1
 745 172 l 1,40,41
 665 111 665 111 538 111 c 256,42,43
 411 111 411 111 331 172 c 1,44,-1
 203 43 l 2,45,46
 191 31 191 31 174 31 c 256,47,48
 157 31 157 31 146 42 c 2,49,-1
 100 88 l 2,50,51
 88 100 88 100 88 112 c 256,52,53
 88 124 88 124 101 137 c 2,54,-1
 233 269 l 1,55,56
 168 354 168 354 168 476 c 0,57,58
 168 597 168 597 233 683 c 1,59,-1
 100 817 l 1,60,61
 88 827 88 827 88 840 c 0,62,63
 88 852 88 852 100 864 c 2,64,-1
 146 910 l 2,65,66
 157 921 157 921 174 921 c 256,67,68
 191 921 191 921 203 909 c 2,69,-1
 331 780 l 1,70,71
 412 842 412 842 538 842 c 256,12,13
EndSplineSet
Validated: 1
EndChar

StartChar: yen
Encoding: 165 165 84
Width: 1366
Flags: W
LayerCount: 2
Fore
SplineSet
1189 520 m 1,0,-1
 1189 401 l 1,1,-1
 848 401 l 1,2,-1
 848 146 l 2,3,4
 848 94 848 94 898 76 c 0,5,6
 948 58 948 58 948 21 c 0,7,8
 948 -20 948 -20 902 -20 c 2,9,-1
 563 -20 l 2,10,11
 517 -20 517 -20 517 21 c 0,12,13
 517 58 517 58 567 76 c 0,14,15
 617 94 617 94 617 146 c 2,16,-1
 617 401 l 1,17,-1
 315 401 l 1,18,-1
 315 520 l 1,19,-1
 617 520 l 1,20,-1
 617 573 l 2,21,22
 617 599 617 599 611 622 c 1,23,-1
 315 622 l 1,24,-1
 315 741 l 1,25,-1
 548 741 l 1,26,-1
 243 1249 l 1,27,28
 223 1279 223 1279 174 1309 c 1,29,30
 148 1322 148 1322 122 1332 c 0,31,32
 96 1342 96 1342 78 1353 c 0,33,34
 63 1361 63 1361 54 1373 c 1,35,36
 47 1384 47 1384 47 1394 c 2,37,-1
 47 1399 l 1,38,39
 51 1424 51 1424 82 1424 c 2,40,-1
 421 1424 l 2,41,42
 440 1424 440 1424 456 1414 c 1,43,44
 470 1404 470 1404 479 1392 c 1,45,46
 485 1382 485 1382 485 1373 c 0,47,48
 485 1360 485 1360 474 1347 c 0,49,50
 467 1338 467 1338 459 1330 c 0,51,52
 451 1322 451 1322 450 1313 c 1,53,-1
 450 1308 l 2,54,55
 450 1291 450 1291 463 1272 c 2,56,-1
 778 773 l 1,57,-1
 1015 1133 l 2,58,59
 1042 1174 1042 1174 1046 1203 c 0,60,61
 1047 1206 1047 1206 1047 1210 c 0,62,63
 1047 1236 1047 1236 1026 1279 c 2,64,-1
 983 1365 l 1,65,-1
 1145 1436 l 2,66,67
 1158 1441 1158 1441 1170 1441 c 0,68,69
 1198 1441 1198 1441 1216 1414 c 1,70,-1
 1277 1312 l 2,71,72
 1290 1289 1290 1289 1290 1266 c 0,73,74
 1290 1225 1290 1225 1251 1185 c 0,75,76
 1199 1130 1199 1130 1140 1045 c 2,77,-1
 932 741 l 1,78,-1
 1189 741 l 1,79,-1
 1189 622 l 1,80,-1
 859 622 l 1,81,82
 855 606 855 606 853 586 c 0,83,84
 849 552 849 552 848 520 c 1,85,-1
 1189 520 l 1,0,-1
EndSplineSet
Validated: 1
EndChar

StartChar: brokenbar
Encoding: 166 166 85
Width: 1024
Flags: W
LayerCount: 2
Fore
SplineSet
340 1510 m 1,0,-1
 522 1510 l 1,1,-1
 522 793 l 1,2,-1
 340 793 l 1,3,-1
 340 1510 l 1,0,-1
340 -243 m 1,4,-1
 340 473 l 1,5,-1
 522 473 l 1,6,-1
 522 -243 l 1,7,-1
 340 -243 l 1,4,-1
EndSplineSet
Validated: 1
EndChar

StartChar: section
Encoding: 167 167 86
Width: 1024
Flags: W
LayerCount: 2
Fore
SplineSet
522 -345 m 0,0,1
 591 -340 591 -340 654.5 -308.5 c 128,-1,2
 718 -277 718 -277 757 -215 c 0,3,4
 797 -150 797 -150 797 -58 c 2,5,-1
 797 -47 l 1,6,7
 794 47 794 47 726 96 c 0,8,9
 694 120 694 120 649 133 c 0,10,11
 553 159 553 159 450.5 170.5 c 128,-1,12
 348 182 348 182 251 229 c 1,13,14
 162 271 162 271 119 351 c 128,-1,15
 76 431 76 431 76 524 c 0,16,17
 76 699 76 699 181 800 c 1,18,19
 76 881 76 881 76 1051 c 0,20,21
 76 1231 76 1231 202 1348 c 1,22,23
 335 1470 335 1470 533 1470 c 0,24,25
 548 1470 548 1470 563 1469 c 0,26,27
 776 1460 776 1460 938 1356 c 1,28,-1
 914 1151 l 2,29,30
 910 1115 910 1115 874 1115 c 0,31,32
 866 1115 866 1115 862 1116 c 0,33,34
 836 1118 836 1118 821 1156 c 1,35,36
 785 1234 785 1234 714 1288 c 128,-1,37
 643 1342 643 1342 565 1346 c 1,38,-1
 551 1346 l 2,39,40
 473 1346 473 1346 412 1318 c 0,41,42
 375 1300 375 1300 350 1274 c 0,43,44
 327 1251 327 1251 312 1215 c 1,45,46
 296 1183 296 1183 290 1149 c 1,47,48
 284 1121 284 1121 284 1094 c 0,49,50
 284 1061 284 1061 293 1034 c 0,51,52
 310 978 310 978 353 948 c 1,53,54
 381 926 381 926 421 915 c 0,55,56
 444 909 444 909 476 904 c 128,-1,57
 508 899 508 899 545 893 c 0,58,59
 597 884 597 884 656.5 874.5 c 128,-1,60
 716 865 716 865 774 849 c 1,61,62
 875 815 875 815 923 763 c 0,63,64
 958 725 958 725 982 674 c 1,65,66
 1008 610 1008 610 1008 534 c 0,67,68
 1008 365 1008 365 906 254 c 1,69,70
 908 253 908 253 923 237 c 0,71,72
 959 196 959 196 982 147 c 1,73,74
 1008 83 1008 83 1008 7 c 0,75,76
 1008 -196 1008 -196 840 -335 c 1,77,78
 754 -404 754 -404 647 -440 c 0,79,80
 568 -467 568 -467 467 -473 c 0,81,82
 447 -474 447 -474 427 -474 c 0,83,84
 292 -474 292 -474 157 -432 c 1,85,-1
 67 -178 l 2,86,87
 64 -170 64 -170 64 -163 c 0,88,89
 64 -147 64 -147 74 -135 c 1,90,91
 86 -113 86 -113 112 -113 c 2,92,-1
 116 -113 l 1,93,94
 142 -116 142 -116 161 -152 c 1,95,96
 218 -273 218 -273 301 -313 c 1,97,98
 369 -347 369 -347 475 -347 c 0,99,100
 498 -347 498 -347 522 -345 c 0,0,1
797 468 m 2,102,-1
 797 479 l 1,103,104
 794 574 794 574 727 623 c 1,105,106
 691 647 691 647 649 660 c 1,107,108
 568 681 568 681 481.5 692 c 128,-1,109
 395 703 395 703 330 725 c 1,110,111
 324 718 324 718 312 689 c 1,112,113
 296 658 296 658 290 622 c 1,114,115
 284 594 284 594 284 567 c 0,116,117
 284 534 284 534 293 507 c 0,118,119
 311 450 311 450 353 422 c 1,120,121
 380 399 380 399 421 389 c 0,122,123
 456 380 456 380 545 366 c 0,124,125
 597 357 597 357 656.5 347.5 c 128,-1,126
 716 338 716 338 774 322 c 1,127,101
 797 375 797 375 797 468 c 2,102,-1
EndSplineSet
Validated: 1
EndChar

StartChar: copyright
Encoding: 169 169 87
Width: 1532
Flags: W
LayerCount: 2
Fore
SplineSet
792 1472 m 256,0,1
 1113 1472 1113 1472 1338.5 1247.5 c 128,-1,2
 1564 1023 1564 1023 1564 708 c 0,3,4
 1564 392 1564 392 1338.5 168 c 128,-1,5
 1113 -56 1113 -56 792 -56 c 256,6,7
 471 -56 471 -56 245.5 168 c 128,-1,8
 20 392 20 392 20 708 c 0,9,10
 20 1023 20 1023 245.5 1247.5 c 128,-1,11
 471 1472 471 1472 792 1472 c 256,0,1
792 1352 m 256,12,13
 528 1352 528 1352 339.5 1164 c 128,-1,14
 151 976 151 976 151 708 c 0,15,16
 151 439 151 439 339.5 251.5 c 128,-1,17
 528 64 528 64 792 64 c 256,18,19
 1056 64 1056 64 1245 251.5 c 128,-1,20
 1434 439 1434 439 1434 708 c 0,21,22
 1434 976 1434 976 1245 1164 c 128,-1,23
 1056 1352 1056 1352 792 1352 c 256,12,13
848 1155 m 2,24,25
 996 1155 996 1155 1128 1069 c 1,26,-1
 1113 915 l 1,27,28
 1109 888 1109 888 1081 888 c 2,29,-1
 1078 888 l 1,30,31
 1053 890 1053 890 1041 917 c 0,32,33
 1009 987 1009 987 959.5 1016.5 c 128,-1,34
 910 1046 910 1046 837 1046 c 2,35,-1
 818 1046 l 1,36,37
 733 1042 733 1042 690 1001 c 1,38,39
 604 920 604 920 604 766 c 0,40,41
 604 739 604 739 606 710 c 0,42,43
 615 586 615 586 672 508 c 1,44,45
 748 408 748 408 837 394 c 0,46,47
 852 392 852 392 867 393 c 0,48,49
 945 393 945 393 1008 431 c 128,-1,50
 1071 469 1071 469 1090 469 c 256,51,52
 1109 469 1109 469 1128 466 c 1,53,54
 1134 450 1134 450 1134 437 c 128,-1,55
 1134 424 1134 424 1120.5 400 c 128,-1,56
 1107 376 1107 376 1089 359 c 1,57,58
 987 276 987 276 818 276 c 256,59,60
 649 276 649 276 533 370 c 1,61,62
 399 484 399 484 399 699 c 0,63,64
 399 747 399 747 406 801 c 1,65,66
 445 999 445 999 612 1095 c 0,67,68
 707 1149 707 1149 829 1155 c 1,69,-1
 848 1155 l 2,24,25
EndSplineSet
Validated: 1
EndChar

StartChar: logicalnot
Encoding: 172 172 88
Width: 1100
Flags: W
LayerCount: 2
Fore
SplineSet
1084 321 m 1,0,-1
 917 321 l 1,1,-1
 917 755 l 1,2,-1
 66 755 l 1,3,-1
 66 907 l 1,4,-1
 1084 907 l 1,5,-1
 1084 321 l 1,0,-1
EndSplineSet
Validated: 1
EndChar

StartChar: uni00AD
Encoding: 173 173 89
Width: 680
Flags: W
LayerCount: 2
Fore
SplineSet
186 389 m 2,0,1
 121 389 121 389 121 437 c 2,2,-1
 121 520 l 2,3,4
 121 569 121 569 187 569 c 2,5,-1
 543 569 l 2,6,7
 609 569 609 569 609 520 c 2,8,-1
 609 437 l 2,9,10
 609 389 609 389 544 389 c 2,11,-1
 186 389 l 2,0,1
EndSplineSet
Validated: 1
EndChar

StartChar: macron
Encoding: 175 175 90
Width: 1000
Flags: W
LayerCount: 2
Fore
SplineSet
225 1367 m 2,0,-1
 825 1367 l 2,1,2
 860 1367 860 1367 860 1337 c 2,3,-1
 860 1251 l 2,4,5
 860 1220 860 1220 825 1220 c 2,6,-1
 225 1220 l 2,7,8
 190 1220 190 1220 190 1251 c 2,9,-1
 190 1337 l 2,10,11
 190 1367 190 1367 225 1367 c 2,0,-1
EndSplineSet
Validated: 1
EndChar

StartChar: degree
Encoding: 176 176 91
Width: 819
Flags: W
LayerCount: 2
Fore
SplineSet
431 1407 m 0,0,1
 571 1407 571 1407 668 1310 c 128,-1,2
 765 1213 765 1213 765 1078 c 256,3,4
 765 943 765 943 668 846 c 128,-1,5
 571 749 571 749 431 749 c 0,6,7
 290 749 290 749 193.5 846 c 128,-1,8
 97 943 97 943 97 1078 c 256,9,10
 97 1213 97 1213 193.5 1310 c 128,-1,11
 290 1407 290 1407 431 1407 c 0,0,1
431 1285 m 0,12,13
 349 1285 349 1285 289.5 1224.5 c 128,-1,14
 230 1164 230 1164 230 1078 c 0,15,16
 230 991 230 991 289.5 931.5 c 128,-1,17
 349 872 349 872 431 872 c 0,18,19
 512 872 512 872 572 931.5 c 128,-1,20
 632 991 632 991 632 1078 c 0,21,22
 632 1164 632 1164 572 1224.5 c 128,-1,23
 512 1285 512 1285 431 1285 c 0,12,13
EndSplineSet
Validated: 1
EndChar

StartChar: uni00B5
Encoding: 181 181 92
Width: 1325
Flags: W
LayerCount: 2
Fore
SplineSet
890 752 m 2,0,1
 890 802 890 802 839 820 c 128,-1,2
 788 838 788 838 788 877 c 0,3,4
 788 918 788 918 833 918 c 1,5,6
 885 920 885 920 942 934 c 1,7,8
 1010 949 1010 949 1120 989 c 1,9,-1
 1120 142 l 2,10,11
 1120 91 1120 91 1171.5 75.5 c 128,-1,12
 1223 60 1223 60 1223 21 c 0,13,14
 1223 -20 1223 -20 1177 -20 c 2,15,-1
 889 -20 l 1,16,-1
 889 55 l 1,17,-1
 718 -12 l 2,18,19
 652 -37 652 -37 588 -37 c 0,20,21
 570 -37 570 -37 553 -35 c 0,22,23
 472 -26 472 -26 411 8 c 0,24,25
 339 47 339 47 327 47 c 1,26,-1
 325 43 l 1,27,-1
 330 23 l 1,28,-1
 377 -531 l 1,29,-1
 377 -534 l 2,30,31
 377 -573 377 -573 332 -573 c 2,32,-1
 240 -573 l 2,33,34
 195 -573 195 -573 195 -532 c 2,35,-1
 195 804 l 1,36,37
 180 819 180 819 146.5 833 c 128,-1,38
 113 847 113 847 113 877 c 0,39,40
 113 918 113 918 158 918 c 1,41,42
 213 921 213 921 268 935 c 1,43,44
 303 942 303 942 335 953 c 128,-1,45
 367 964 367 964 438 988 c 1,46,-1
 438 424 l 2,47,48
 438 252 438 252 514 160 c 1,49,50
 573 87 573 87 658 87 c 0,51,52
 704 87 704 87 759 107 c 2,53,-1
 890 156 l 1,54,-1
 890 752 l 2,0,1
EndSplineSet
Validated: 1
EndChar

StartChar: paragraph
Encoding: 182 182 93
Width: 1266
Flags: W
LayerCount: 2
Fore
SplineSet
727 1317 m 1,0,-1
 727 -214 l 1,1,-1
 937 -214 l 1,2,-1
 937 1317 l 1,3,-1
 727 1317 l 1,0,-1
529 767 m 1,4,5
 511 761 511 761 458 761 c 0,6,7
 322 761 322 761 228.5 859 c 128,-1,8
 135 957 135 957 135 1093 c 0,9,10
 135 1228 135 1228 228.5 1325.5 c 128,-1,11
 322 1423 322 1423 457 1424 c 1,12,-1
 1206 1424 l 2,13,14
 1257 1424 1257 1424 1257 1379 c 0,15,16
 1257 1335 1257 1335 1196 1313 c 128,-1,17
 1135 1291 1135 1291 1135 1226 c 2,18,-1
 1135 -122 l 2,19,20
 1135 -187 1135 -187 1196 -209 c 128,-1,21
 1257 -231 1257 -231 1257 -275 c 0,22,23
 1257 -320 1257 -320 1206 -320 c 2,24,-1
 458 -320 l 2,25,26
 407 -320 407 -320 407 -275 c 0,27,28
 407 -231 407 -231 468 -209 c 128,-1,29
 529 -187 529 -187 529 -122 c 2,30,-1
 529 767 l 1,4,5
EndSplineSet
Validated: 1
EndChar

StartChar: periodcentered
Encoding: 183 183 94
Width: 512
Flags: W
LayerCount: 2
Fore
SplineSet
280 476 m 256,0,1
 217 476 217 476 175 518 c 128,-1,2
 133 560 133 560 133 618 c 0,3,4
 133 675 133 675 175 717.5 c 128,-1,5
 217 760 217 760 280 760 c 256,6,7
 343 760 343 760 385 717.5 c 128,-1,8
 427 675 427 675 427 618 c 0,9,10
 427 560 427 560 385 518 c 128,-1,11
 343 476 343 476 280 476 c 256,0,1
EndSplineSet
Validated: 1
EndChar

StartChar: AE
Encoding: 198 198 95
Width: 1933
Flags: W
LayerCount: 2
Fore
SplineSet
1139 114 m 1,0,-1
 1542 114 l 2,1,2
 1621 114 1621 114 1681.5 181 c 128,-1,3
 1742 248 1742 248 1775 288 c 0,4,5
 1801 319 1801 319 1824 319 c 0,6,7
 1870 319 1870 319 1870 278 c 0,8,9
 1870 263 1870 263 1867 253 c 2,10,-1
 1790 -20 l 1,11,-1
 851 -20 l 2,12,13
 808 -20 808 -20 808 21 c 0,14,15
 808 59 808 59 858 76.5 c 128,-1,16
 908 94 908 94 908 146 c 2,17,-1
 908 469 l 1,18,-1
 444 469 l 1,19,20
 403 395 403 395 354.5 309.5 c 128,-1,21
 306 224 306 224 258 139 c 0,22,23
 250 125 250 125 244 106 c 0,24,25
 241 97 241 97 241 88 c 0,26,27
 241 84 241 84 242 81 c 0,28,29
 243 70 243 70 248 62 c 128,-1,30
 253 54 253 54 255 46 c 128,-1,31
 257 38 257 38 257 33 c 0,32,33
 257 29 257 29 253 17 c 1,34,35
 234 -20 234 -20 203 -20 c 2,36,-1
 -54 -20 l 2,37,38
 -82 -20 -82 -20 -93 2 c 1,39,-1
 -93 11 l 2,40,41
 -93 19 -93 19 -88 30 c 1,42,43
 -75 46 -75 46 -40 64 c 0,44,45
 -23 72 -23 72 -5.5 80 c 128,-1,46
 12 88 12 88 30 99 c 0,47,48
 65 122 65 122 85 154 c 2,49,-1
 774 1323 l 1,50,51
 762 1326 762 1326 721.5 1338.5 c 128,-1,52
 681 1351 681 1351 681 1383 c 0,53,54
 681 1424 681 1424 727 1424 c 2,55,-1
 1807 1424 l 1,56,-1
 1807 1147 l 2,57,58
 1807 1106 1807 1106 1761 1106 c 0,59,60
 1736 1106 1736 1106 1702 1156 c 1,61,62
 1653 1224 1653 1224 1621 1257.5 c 128,-1,63
 1589 1291 1589 1291 1542 1291 c 2,64,-1
 1139 1291 l 1,65,-1
 1139 788 l 1,66,-1
 1343 788 l 2,67,68
 1389 788 1389 788 1409 839.5 c 128,-1,69
 1429 891 1429 891 1473 891 c 0,70,71
 1518 891 1518 891 1518 850 c 2,72,-1
 1518 596 l 2,73,74
 1518 555 1518 555 1473 555 c 0,75,76
 1430 555 1430 555 1407 606 c 128,-1,77
 1384 657 1384 657 1337 657 c 2,78,-1
 1139 657 l 1,79,-1
 1139 114 l 1,0,-1
911 590 m 1,80,-1
 909 1305 l 1,81,82
 842 1165 842 1165 712 939.5 c 128,-1,83
 582 714 582 714 512 590 c 1,84,-1
 911 590 l 1,80,-1
EndSplineSet
Validated: 1
EndChar

StartChar: Eth
Encoding: 208 208 96
Width: 1585
Flags: W
LayerCount: 2
Fore
SplineSet
239 1427 m 2,0,-1
 552 1433 l 1,1,2
 706 1433 706 1433 878 1423.5 c 0,3,4
 1050 1414 1050 1414 1198 1349.5 c 0,5,6
 1346 1285 1346 1285 1441 1154 c 1,7,8
 1549 1002 1549 1002 1552 727 c 1,9,10
 1552 558 1552 558 1482.5 409 c 0,11,12
 1413 260 1413 260 1277 155 c 0,13,14
 1046 -23 1046 -23 714 -27 c 1,15,-1
 634 -27 l 2,16,17
 576 -27 576 -27 525 -26 c 1,18,-1
 408 -26 l 2,19,20
 324 -26 324 -26 281 -23 c 1,21,-1
 258 -23 l 2,22,23
 219 -23 219 -23 155 -29 c 1,24,25
 108 -29 108 -29 108 11 c 0,26,27
 108 51 108 51 158 69 c 0,28,29
 208 87 208 87 208 139 c 2,30,-1
 208 665 l 1,31,-1
 71 665 l 2,32,33
 25 665 25 665 25 704 c 2,34,-1
 25 743 l 2,35,36
 25 783 25 783 46 783 c 2,37,-1
 208 783 l 1,38,-1
 208 1262 l 2,39,40
 208 1313 208 1313 158 1330.5 c 0,41,42
 108 1348 108 1348 108 1387 c 0,43,44
 108 1428 108 1428 154 1428 c 1,45,46
 196 1427 196 1427 239 1427 c 2,0,-1
449 116 m 1,47,48
 553 96 553 96 664 96 c 0,49,50
 706 96 706 96 747 99 c 0,51,52
 1082 128 1082 128 1218 387 c 0,53,54
 1290 524 1290 524 1290 736 c 2,55,-1
 1290 769 l 1,56,57
 1277 1073 1277 1073 1099 1201 c 1,58,59
 949 1314 949 1314 702 1314 c 2,60,-1
 676 1314 l 2,61,62
 555 1314 555 1314 449 1297 c 1,63,-1
 449 783 l 1,64,-1
 741 783 l 2,65,66
 786 783 786 783 786 743 c 2,67,-1
 786 704 l 2,68,69
 786 665 786 665 741 665 c 2,70,-1
 449 665 l 1,71,-1
 449 116 l 1,47,48
EndSplineSet
Validated: 1
EndChar

StartChar: Oslash
Encoding: 216 216 97
Width: 1610
Flags: W
LayerCount: 2
Fore
SplineSet
833 1466 m 1,0,-1
 843 1466 l 2,1,2
 1165 1466 1165 1466 1391 1275 c 1,3,-1
 1568 1443 l 2,4,5
 1582 1455 1582 1455 1598 1455 c 0,6,7
 1616 1455 1616 1455 1631 1442 c 1,8,-1
 1666 1404 l 1,9,10
 1679 1393 1679 1393 1679 1378 c 0,11,12
 1679 1365 1679 1365 1666 1352 c 2,13,-1
 1484 1180 l 1,14,15
 1620 1008 1620 1008 1620 760 c 0,16,17
 1620 732 1620 732 1618 704 c 0,18,19
 1596 353 1596 353 1372 158 c 0,20,21
 1148 -37 1148 -37 832 -55 c 0,22,23
 809 -56 809 -56 785 -56 c 0,24,25
 535 -56 535 -56 335 93 c 1,26,-1
 194 -40 l 2,27,28
 181 -53 181 -53 162 -53 c 0,29,30
 144 -53 144 -53 129 -38 c 2,31,-1
 94 -2 l 2,32,33
 83 9 83 9 83 23 c 0,34,35
 83 37 83 37 95 49 c 2,36,-1
 235 181 l 1,37,38
 48 375 48 375 48 669 c 0,39,40
 48 687 48 687 49 706 c 0,41,42
 61 1054 61 1054 276 1258 c 0,43,44
 491 1462 491 1462 833 1466 c 1,0,-1
833 1338 m 0,45,46
 541 1337 541 1337 424 1152 c 0,47,48
 307 967 307 967 307 702 c 0,49,50
 307 494 307 494 398 336 c 1,51,-1
 1239 1132 l 1,52,53
 1236 1137 1236 1137 1233 1142 c 0,54,55
 1110 1338 1110 1338 833 1338 c 0,45,46
476 227 m 1,56,57
 618 68 618 68 833 66 c 1,58,-1
 838 66 l 2,59,60
 1063 66 1063 66 1210 260 c 1,61,62
 1358 457 1358 457 1358 696 c 2,63,-1
 1358 702 l 1,64,65
 1357 865 1357 865 1301 1007 c 1,66,-1
 476 227 l 1,56,57
EndSplineSet
Validated: 1
EndChar

StartChar: Thorn
Encoding: 222 222 98
Width: 1151
Flags: W
LayerCount: 2
Fore
SplineSet
401 1257 m 2,0,-1
 401 1108 l 1,1,-1
 686 1108 l 2,2,3
 794 1108 794 1108 912.5 1069.5 c 128,-1,4
 1031 1031 1031 1031 1097 918 c 1,5,6
 1147 829 1147 829 1147 706 c 1,7,8
 1145 588 1145 588 1079 493 c 0,9,10
 1021 411 1021 411 915 371 c 128,-1,11
 809 331 809 331 722 331 c 2,12,-1
 401 331 l 1,13,-1
 401 146 l 2,14,15
 401 94 401 94 451 76.5 c 128,-1,16
 501 59 501 59 501 21 c 0,17,18
 501 -20 501 -20 455 -20 c 2,19,-1
 116 -20 l 2,20,21
 71 -20 71 -20 71 21 c 0,22,23
 71 59 71 59 121 76.5 c 128,-1,24
 171 94 171 94 171 146 c 2,25,-1
 171 1257 l 2,26,27
 171 1308 171 1308 121 1326 c 128,-1,28
 71 1344 71 1344 71 1383 c 0,29,30
 71 1424 71 1424 117 1424 c 2,31,-1
 455 1424 l 2,32,33
 501 1424 501 1424 501 1383 c 0,34,35
 501 1344 501 1344 451 1326 c 128,-1,36
 401 1308 401 1308 401 1257 c 2,0,-1
401 441 m 1,37,-1
 587 441 l 2,38,39
 652 441 652 441 717.5 459.5 c 128,-1,40
 783 478 783 478 830 525 c 1,41,42
 904 596 904 596 904 716 c 1,43,44
 902 832 902 832 827 907 c 1,45,46
 746 985 746 985 607 985 c 2,47,-1
 401 985 l 1,48,-1
 401 441 l 1,37,-1
EndSplineSet
Validated: 1
EndChar

StartChar: germandbls
Encoding: 223 223 99
Width: 1269
Flags: W
LayerCount: 2
Fore
SplineSet
527 52 m 1,0,-1
 464 225 l 1,1,-1
 466 248 l 2,2,3
 468 282 468 282 509 282 c 2,4,-1
 514 282 l 1,5,6
 539 277 539 277 555 245 c 0,7,8
 599 151 599 151 659.5 113.5 c 128,-1,9
 720 76 720 76 813 73 c 1,10,-1
 825 73 l 2,11,12
 891 73 891 73 971 104 c 0,13,14
 1049 135 1049 135 1052 216 c 1,15,-1
 1052 222 l 2,16,17
 1052 316 1052 316 967 340 c 0,18,19
 861 370 861 370 781 393 c 1,20,21
 678 421 678 421 587 483 c 0,22,23
 492 547 492 547 492 672 c 2,24,-1
 492 675 l 2,25,26
 492 782 492 782 561.5 835.5 c 128,-1,27
 631 889 631 889 693 947 c 0,28,29
 753 1002 753 1002 765 1095 c 0,30,31
 767 1114 767 1114 767 1133 c 0,32,33
 767 1201 767 1201 732 1251 c 0,34,35
 692 1307 692 1307 605 1316 c 0,36,37
 594 1317 594 1317 583 1317 c 0,38,39
 515 1317 515 1317 478 1268 c 0,40,41
 447 1226 447 1226 442.5 1160 c 128,-1,42
 438 1094 438 1094 438 1027 c 2,43,-1
 438 146 l 2,44,45
 438 94 438 94 488 77 c 0,46,47
 515 67 515 67 527 52 c 1,0,-1
538 22 m 1,48,-1
 538 21 l 2,49,50
 538 -20 538 -20 492 -20 c 2,51,-1
 153 -20 l 2,52,53
 107 -20 107 -20 107 21 c 0,54,55
 107 59 107 59 157 76.5 c 128,-1,56
 207 94 207 94 207 146 c 2,57,-1
 207 1027 l 2,58,59
 207 1119 207 1119 230.5 1207.5 c 128,-1,60
 254 1296 254 1296 313 1362 c 1,61,62
 421 1486 421 1486 580 1486 c 0,63,64
 615 1486 615 1486 652 1480 c 0,65,66
 839 1447 839 1447 928 1272 c 0,67,68
 962 1204 962 1204 962 1140 c 0,69,70
 962 1040 962 1040 878 950 c 0,71,72
 822 890 822 890 761 847.5 c 128,-1,73
 700 805 700 805 688 748 c 0,74,75
 683 727 683 727 683 711 c 0,76,77
 683 659 683 659 727 638 c 0,78,79
 795 604 795 604 886 583 c 0,80,81
 1018 554 1018 554 1131 501.5 c 128,-1,82
 1244 449 1244 449 1254 281 c 1,83,-1
 1254 269 l 2,84,85
 1254 190 1254 190 1193 113 c 1,86,87
 1127 27 1127 27 1002 -16 c 0,88,89
 925 -42 925 -42 832 -45 c 1,90,-1
 804 -45 l 2,91,92
 678 -45 678 -45 549 -8 c 1,93,-1
 538 22 l 1,48,-1
EndSplineSet
Validated: 1
EndChar

StartChar: ae
Encoding: 230 230 100
Width: 1762
Flags: W
LayerCount: 2
Fore
SplineSet
1299 980 m 2,0,1
 1508 980 1508 980 1618.5 860 c 128,-1,2
 1729 740 1729 740 1729 551 c 0,3,4
 1729 510 1729 510 1725 484 c 128,-1,5
 1721 458 1721 458 1661 458 c 2,6,-1
 1048 458 l 1,7,8
 1052 321 1052 321 1126.5 220.5 c 128,-1,9
 1201 120 1201 120 1310 98 c 0,10,11
 1342 91 1342 91 1375 91 c 0,12,13
 1464 91 1464 91 1544 134 c 128,-1,14
 1624 177 1624 177 1646 177 c 0,15,16
 1667 177 1667 177 1676 168 c 128,-1,17
 1685 159 1685 159 1685 144 c 256,18,19
 1685 129 1685 129 1668.5 98 c 128,-1,20
 1652 67 1652 67 1632 50 c 0,21,22
 1516 -51 1516 -51 1319 -51 c 1,23,24
 1059 -49 1059 -49 929 98 c 1,25,-1
 557 -32 l 2,26,27
 520 -45 520 -45 494 -45 c 2,28,-1
 452 -45 l 1,29,30
 298 -37 298 -37 190 77 c 0,31,32
 81 193 81 193 66 358 c 0,33,34
 62 400 62 400 62 447 c 0,35,36
 62 493 62 493 72 562.5 c 128,-1,37
 82 632 82 632 124 699.5 c 128,-1,38
 166 767 166 767 211 800.5 c 128,-1,39
 256 834 256 834 287 848 c 1,40,41
 368 878 368 878 448.5 908 c 128,-1,42
 529 938 529 938 580.5 957 c 128,-1,43
 632 976 632 976 652 976 c 2,44,-1
 658 976 l 1,45,46
 726 973 726 973 822 942 c 1,47,48
 933 901 933 901 982 877 c 1,49,50
 1096 978 1096 978 1295 980 c 1,51,-1
 1299 980 l 2,0,1
591 854 m 2,52,53
 576 854 576 854 550.5 844.5 c 128,-1,54
 525 835 525 835 489.5 821.5 c 128,-1,55
 454 808 454 808 426.5 797.5 c 128,-1,56
 399 787 399 787 388 775 c 0,57,58
 330 713 330 713 311.5 633.5 c 128,-1,59
 293 554 293 554 293 510 c 0,60,61
 293 465 293 465 295 442 c 0,62,63
 306 303 306 303 369 216.5 c 128,-1,64
 432 130 432 130 524 105 c 0,65,66
 558 95 558 95 581 95 c 256,67,68
 604 95 604 95 619 96.5 c 128,-1,69
 634 98 634 98 658.5 106.5 c 128,-1,70
 683 115 683 115 732 133.5 c 128,-1,71
 781 152 781 152 797 158 c 1,72,-1
 797 762 l 1,73,74
 765 792 765 792 702.5 822 c 128,-1,75
 640 852 640 852 594 854 c 1,76,-1
 591 854 l 2,52,53
1526 571 m 1,77,78
 1526 669 1526 669 1476 760.5 c 128,-1,79
 1426 852 1426 852 1301 852 c 2,80,-1
 1290 852 l 1,81,82
 1165 848 1165 848 1108.5 757.5 c 128,-1,83
 1052 667 1052 667 1049 571 c 1,84,-1
 1526 571 l 1,77,78
EndSplineSet
Validated: 1
EndChar

StartChar: eth
Encoding: 240 240 101
Width: 1105
Flags: W
LayerCount: 2
Fore
SplineSet
586 873 m 1,0,-1
 575 873 l 2,1,2
 472 873 472 873 396 768 c 0,3,4
 311 651 311 651 311 478 c 2,5,-1
 311 474 l 2,6,7
 311 302 311 302 395 176 c 0,8,9
 476 55 476 55 587 50 c 1,10,-1
 599 50 l 2,11,12
 701 50 701 50 777 155 c 0,13,14
 862 271 862 271 863 446 c 0,15,16
 863 619 863 619 780 743.5 c 128,-1,17
 697 868 697 868 586 873 c 1,0,-1
317 1051 m 1,18,19
 298 1080 298 1080 288.5 1095 c 128,-1,20
 279 1110 279 1110 259 1143 c 1,21,22
 418 1205 418 1205 526 1268 c 1,23,24
 456 1331 456 1331 333 1397 c 1,25,26
 302 1415 302 1415 302 1435 c 0,27,28
 302 1443 302 1443 307 1450 c 0,29,30
 314 1462 314 1462 326 1484 c 0,31,32
 343 1514 343 1514 376 1514 c 0,33,34
 391 1514 391 1514 409 1506 c 1,35,36
 562 1415 562 1415 651 1344 c 1,37,38
 760 1416 760 1416 888 1530 c 1,39,40
 918 1498 918 1498 929.5 1485 c 128,-1,41
 941 1472 941 1472 965 1448 c 1,42,43
 847 1333 847 1333 744 1265 c 1,44,45
 900 1123 900 1123 999 923.5 c 128,-1,46
 1098 724 1098 724 1101 461 c 1,47,-1
 1101 455 l 2,48,49
 1101 244 1101 244 954 98 c 1,50,51
 804 -54 804 -54 585 -60 c 1,52,-1
 572 -60 l 2,53,54
 365 -60 365 -60 217 93 c 0,55,56
 68 247 68 247 68 458 c 2,57,-1
 68 461 l 1,58,59
 69 692 69 692 240 850 c 0,60,61
 263 871 263 871 303 885 c 128,-1,62
 343 899 343 899 417 928 c 1,63,64
 461 944 461 944 514 963 c 0,65,66
 569 983 569 983 605 983 c 2,67,-1
 609 983 l 1,68,69
 731 978 731 978 766 958 c 1,70,71
 752 984 752 984 704.5 1059 c 128,-1,72
 657 1134 657 1134 612 1182 c 1,73,74
 497 1116 497 1116 317 1051 c 1,18,19
EndSplineSet
Validated: 1
EndChar

StartChar: oslash
Encoding: 248 248 102
Width: 1107
Flags: W
LayerCount: 2
Fore
SplineSet
569 869 m 2,0,1
 466 869 466 869 385 760 c 0,2,3
 304 651 304 651 304 481 c 0,4,5
 304 384 304 384 331 303 c 1,6,-1
 775 739 l 1,7,8
 774 740 774 740 773 742 c 0,9,10
 690 864 690 864 580 869 c 1,11,-1
 569 869 l 2,0,1
1095 459 m 2,12,13
 1095 252 1095 252 946 106 c 0,14,15
 797 -40 797 -40 578 -45 c 1,16,-1
 562 -45 l 2,17,18
 390 -45 390 -45 257 62 c 1,19,-1
 143 -50 l 2,20,21
 132 -62 132 -62 116 -62 c 0,22,23
 100 -62 100 -62 90 -52 c 2,24,-1
 52 -14 l 2,25,26
 41 -3 41 -3 41 8 c 0,27,28
 41 23 41 23 54 32 c 1,29,-1
 172 148 l 1,30,31
 62 284 62 284 62 462 c 2,32,-1
 62 465 l 1,33,34
 63 691 63 691 233 846 c 0,35,36
 256 867 256 867 296 881 c 0,37,38
 336 894 336 894 395 916 c 0,39,40
 454 938 454 938 508 957 c 0,41,42
 562 976 562 976 599 976 c 2,43,-1
 603 976 l 1,44,45
 776 969 776 969 903 864 c 1,46,-1
 1022 981 l 2,47,48
 1032 992 1032 992 1050 992 c 0,49,50
 1067 992 1067 992 1078 981 c 2,51,-1
 1115 942 l 2,52,53
 1125 932 1125 932 1125 922 c 0,54,55
 1125 912 1125 912 1114 902 c 2,56,-1
 987 777 l 1,57,58
 1093 642 1093 642 1095 465 c 1,59,-1
 1095 459 l 2,12,13
387 189 m 1,60,61
 469 68 469 68 580 63 c 1,62,-1
 593 63 l 2,63,64
 696 64 696 64 776 172 c 0,65,66
 856 280 856 280 856 450 c 0,67,68
 856 544 856 544 830 624 c 1,69,-1
 387 189 l 1,60,61
EndSplineSet
Validated: 1
EndChar

StartChar: thorn
Encoding: 254 254 103
Width: 1180
Flags: W
LayerCount: 2
Fore
SplineSet
1165 572 m 0,0,1
 1169 531 1169 531 1169 484 c 0,2,3
 1169 436 1169 436 1158.5 366.5 c 128,-1,4
 1148 297 1148 297 1105 228.5 c 128,-1,5
 1062 160 1062 160 1017.5 127.5 c 128,-1,6
 973 95 973 95 944 82 c 1,7,8
 862 52 862 52 781.5 22 c 128,-1,9
 701 -8 701 -8 650 -26.5 c 128,-1,10
 599 -45 599 -45 578 -45 c 2,11,-1
 572 -45 l 1,12,13
 504 -42 504 -42 443 -14 c 1,14,-1
 443 -556 l 1,15,16
 345 -523 345 -523 282.5 -506 c 128,-1,17
 220 -489 220 -489 158 -486 c 1,18,19
 112 -486 112 -486 112 -446 c 0,20,21
 112 -407 112 -407 162.5 -389 c 128,-1,22
 213 -371 213 -371 213 -320 c 2,23,-1
 213 1257 l 2,24,25
 213 1308 213 1308 162.5 1326 c 128,-1,26
 112 1344 112 1344 112 1383 c 0,27,28
 112 1424 112 1424 158 1424 c 1,29,30
 220 1427 220 1427 282.5 1443.5 c 128,-1,31
 345 1460 345 1460 443 1493 c 1,32,-1
 443 876 l 1,33,-1
 674 963 l 1,34,35
 709 975 709 975 727 976 c 0,36,37
 739 977 739 977 748 977 c 2,38,-1
 756 977 l 1,39,40
 767 976 767 976 779 976 c 0,41,42
 933 968 933 968 1041 851 c 128,-1,43
 1149 734 1149 734 1165 572 c 0,0,1
642 76 m 2,44,45
 653 76 653 76 679 85.5 c 128,-1,46
 705 95 705 95 741 108 c 128,-1,47
 777 121 777 121 804 131.5 c 128,-1,48
 831 142 831 142 843 155 c 0,49,50
 900 216 900 216 918.5 296.5 c 128,-1,51
 937 377 937 377 937 423 c 256,52,53
 937 469 937 469 936 488 c 0,54,55
 925 626 925 626 861 713 c 0,56,57
 772 835 772 835 640 835 c 0,58,59
 629 835 629 835 612 833.5 c 128,-1,60
 595 832 595 832 571.5 823 c 128,-1,61
 548 814 548 814 504 795 c 128,-1,62
 460 776 460 776 443 770 c 1,63,-1
 443 162 l 1,64,65
 475 132 475 132 533 104.5 c 128,-1,66
 591 77 591 77 636 76 c 1,67,-1
 642 76 l 2,44,45
EndSplineSet
Validated: 1
EndChar

StartChar: kgreenlandic
Encoding: 312 312 107
Width: 1150
Flags: W
LayerCount: 2
Fore
SplineSet
443 1042 m 1,0,-1
 443 603 l 1,1,-1
 748 848 l 2,2,3
 817 903 817 903 859 929 c 0,4,5
 892 949 892 949 925 949 c 0,6,7
 950 949 950 949 974 936 c 1,8,-1
 1051 889 l 1,9,10
 1072 874 1072 874 1072 855 c 0,11,12
 1072 850 1072 850 1068 840 c 2,13,-1
 1009 710 l 1,14,-1
 933 750 l 2,15,16
 912 762 912 762 889 762 c 0,17,18
 865 762 865 762 842 745 c 0,19,20
 706 646 706 646 602 564 c 1,21,-1
 936 238 l 2,22,23
 1041 135 1041 135 1069 123 c 0,24,25
 1086 115 1086 115 1104 115 c 0,26,27
 1109 115 1109 115 1121 117 c 0,28,29
 1130 118 1130 118 1139 118 c 0,30,31
 1179 118 1179 118 1191 90 c 0,32,33
 1194 82 1194 82 1194 75 c 0,34,35
 1194 53 1194 53 1170 43 c 1,36,-1
 1107 12 l 1,37,38
 1048 -14 1048 -14 998 -14 c 0,39,40
 962 -14 962 -14 931 -1 c 0,41,42
 863 26 863 26 805 83 c 2,43,-1
 443 439 l 1,44,-1
 443 146 l 2,45,46
 443 94 443 94 493 76.5 c 128,-1,47
 543 59 543 59 543 21 c 0,48,49
 543 -20 543 -20 498 -20 c 2,50,-1
 159 -20 l 2,51,52
 113 -20 113 -20 113 21 c 0,53,54
 113 59 113 59 178 82 c 0,55,56
 213 94 213 94 213 146 c 2,57,-1
 213 799 l 2,58,59
 213 851 213 851 163 871.5 c 128,-1,60
 113 892 113 892 113 930 c 0,61,62
 113 971 113 971 158 971 c 1,63,64
 220 974 220 974 282.5 990.5 c 128,-1,65
 345 1007 345 1007 443 1042 c 1,0,-1
EndSplineSet
Validated: 1
EndChar

StartChar: lcaron
Encoding: 318 318 108
Width: 665
Flags: W
LayerCount: 2
Fore
SplineSet
283 712 m 1,0,-1
 283 804 l 1,1,2
 258 768 258 768 258 746 c 0,3,4
 258 731 258 731 271 723 c 0,5,6
 278 718 278 718 283 712 c 1,0,-1
283 538 m 1,7,8
 256 508 256 508 193 506 c 1,9,-1
 187 506 l 2,10,11
 79 506 79 506 78 594 c 2,12,-1
 77 659 l 1,13,-1
 77 664 l 2,14,15
 77 681 77 681 84 703 c 1,16,17
 90 727 90 727 96 743 c 0,18,19
 109 782 109 782 146 826 c 128,-1,20
 183 870 183 870 283 947 c 1,21,-1
 283 1257 l 2,22,23
 283 1308 283 1308 233 1326 c 128,-1,24
 183 1344 183 1344 183 1383 c 0,25,26
 183 1424 183 1424 228 1424 c 1,27,28
 290 1427 290 1427 352.5 1443.5 c 128,-1,29
 415 1460 415 1460 513 1493 c 1,30,-1
 513 1115 l 1,31,32
 652 1214 652 1214 700 1265 c 128,-1,33
 748 1316 748 1316 751 1335 c 1,34,-1
 769 1335 l 2,35,36
 643 1335 643 1335 642 1439 c 1,37,-1
 640 1521 l 1,38,-1
 640 1524 l 2,39,40
 640 1628 640 1628 773 1630 c 1,41,-1
 780 1630 l 2,42,43
 905 1630 905 1630 910 1526 c 1,44,-1
 911 1444 l 2,45,46
 911 1421 911 1421 902 1391 c 128,-1,47
 893 1361 893 1361 887 1341 c 0,48,49
 867 1279 867 1279 803.5 1204.5 c 128,-1,50
 740 1130 740 1130 627.5 1053 c 128,-1,51
 515 976 515 976 513 976 c 1,52,-1
 513 146 l 2,53,54
 513 94 513 94 563 76.5 c 128,-1,55
 613 59 613 59 613 21 c 0,56,57
 613 -20 613 -20 568 -20 c 2,58,-1
 229 -20 l 2,59,60
 183 -20 183 -20 183 21 c 0,61,62
 183 59 183 59 233 76.5 c 128,-1,63
 283 94 283 94 283 146 c 2,64,-1
 283 538 l 1,7,8
EndSplineSet
Validated: 1
EndChar

StartChar: Lslash
Encoding: 321 321 109
Width: 1251
Flags: W
LayerCount: 2
Fore
SplineSet
486 114 m 1,0,-1
 888 114 l 2,1,2
 968 114 968 114 1028 181 c 0,3,4
 1088 248 1088 248 1122 288 c 0,5,6
 1148 319 1148 319 1171 319 c 0,7,8
 1217 319 1217 319 1217 278 c 0,9,10
 1217 263 1217 263 1214 253 c 2,11,-1
 1137 -20 l 1,12,-1
 201 -20 l 2,13,14
 155 -20 155 -20 155 21 c 0,15,16
 155 58 155 58 205 76 c 0,17,18
 255 94 255 94 255 146 c 2,19,-1
 255 810 l 1,20,-1
 78 763 l 2,21,22
 69 761 69 761 62 761 c 0,23,24
 30 761 30 761 22 791 c 2,25,-1
 11 829 l 2,26,27
 10 835 10 835 10 840 c 0,28,29
 10 866 10 866 43 876 c 1,30,-1
 255 933 l 1,31,-1
 255 1257 l 2,32,33
 255 1308 255 1308 205 1326 c 0,34,35
 155 1344 155 1344 155 1383 c 0,36,37
 155 1424 155 1424 201 1424 c 2,38,-1
 540 1424 l 2,39,40
 585 1424 585 1424 585 1383 c 0,41,42
 585 1344 585 1344 535 1326 c 0,43,44
 485 1308 485 1308 485 1257 c 0,45,46
 485 1126 485 1126 485 995 c 1,47,-1
 694 1051 l 1,48,-1
 703 1051 l 2,49,50
 737 1051 737 1051 747 1022 c 1,51,-1
 758 983 l 2,52,53
 759 977 759 977 759 972 c 0,54,55
 759 944 759 944 725 936 c 1,56,-1
 485 872 l 1,57,-1
 486 114 l 1,0,-1
EndSplineSet
Validated: 1
EndChar

StartChar: lslash
Encoding: 322 322 110
Width: 752
Flags: W
LayerCount: 2
Fore
SplineSet
432 146 m 2,0,1
 432 94 432 94 482 76 c 0,2,3
 532 58 532 58 532 21 c 0,4,5
 532 -20 532 -20 487 -20 c 2,6,-1
 148 -20 l 2,7,8
 102 -20 102 -20 102 21 c 0,9,10
 102 58 102 58 152 76 c 0,11,12
 202 94 202 94 202 146 c 2,13,-1
 202 796 l 1,14,-1
 78 763 l 2,15,16
 69 761 69 761 62 761 c 0,17,18
 30 761 30 761 22 791 c 2,19,-1
 11 829 l 2,20,21
 10 835 10 835 10 840 c 0,22,23
 10 866 10 866 43 876 c 1,24,-1
 202 919 l 1,25,-1
 202 1257 l 2,26,27
 202 1308 202 1308 152 1326 c 0,28,29
 102 1344 102 1344 102 1383 c 0,30,31
 102 1424 102 1424 147 1424 c 1,32,33
 210 1428 210 1428 272 1444 c 0,34,35
 334 1460 334 1460 432 1493 c 1,36,-1
 432 981 l 1,37,-1
 694 1051 l 1,38,-1
 703 1051 l 2,39,40
 737 1051 737 1051 747 1022 c 1,41,-1
 758 983 l 2,42,43
 759 977 759 977 759 972 c 0,44,45
 759 944 759 944 725 936 c 1,46,-1
 432 858 l 1,47,-1
 432 146 l 2,0,1
EndSplineSet
Validated: 1
EndChar

StartChar: Eng
Encoding: 330 330 111
Width: 1578
Flags: W
LayerCount: 2
Fore
SplineSet
1303 355 m 1,0,-1
 1303 1258 l 2,1,2
 1303 1309 1303 1309 1253 1327 c 128,-1,3
 1203 1345 1203 1345 1203 1384 c 0,4,5
 1203 1424 1203 1424 1248 1424 c 2,6,-1
 1527 1424 l 2,7,8
 1573 1424 1573 1424 1573 1384 c 0,9,10
 1573 1345 1573 1345 1523 1327 c 128,-1,11
 1473 1309 1473 1309 1473 1258 c 2,12,-1
 1473 180 l 2,13,14
 1473 -5 1473 -5 1453.5 -111 c 128,-1,15
 1434 -217 1434 -217 1371 -288 c 1,16,17
 1312 -365 1312 -365 1163 -434 c 1,18,-1
 1163 -339 l 1,19,20
 1209 -311 1209 -311 1240.5 -276.5 c 128,-1,21
 1272 -242 1272 -242 1290 -184 c 0,22,23
 1303 -143 1303 -143 1303 -19 c 1,24,-1
 1298 -17 l 1,25,-1
 380 1121 l 1,26,-1
 380 146 l 2,27,28
 380 94 380 94 430 76.5 c 128,-1,29
 480 59 480 59 480 21 c 0,30,31
 480 -20 480 -20 434 -20 c 2,32,-1
 180 -20 l 2,33,34
 134 -20 134 -20 134 21 c 0,35,36
 134 59 134 59 184 76.5 c 128,-1,37
 234 94 234 94 234 146 c 2,38,-1
 234 1257 l 2,39,40
 234 1308 234 1308 184 1326 c 128,-1,41
 134 1344 134 1344 134 1383 c 0,42,43
 134 1424 134 1424 180 1424 c 2,44,-1
 451 1424 l 1,45,-1
 1303 355 l 1,0,-1
EndSplineSet
Validated: 1
EndChar

StartChar: eng
Encoding: 331 331 112
Width: 1195
Flags: W
LayerCount: 2
Fore
SplineSet
1086 12 m 2,0,1
 1086 -187 1086 -187 1059 -286 c 128,-1,2
 1032 -385 1032 -385 964 -457 c 1,3,4
 868 -556 868 -556 716 -594 c 1,5,-1
 716 -507 l 1,6,7
 814 -448 814 -448 844 -353 c 1,8,9
 855 -314 855 -314 855.5 -241 c 128,-1,10
 856 -168 856 -168 856 6 c 2,11,-1
 856 506 l 2,12,13
 856 718 856 718 771 801 c 0,14,15
 720 851 720 851 648 851 c 0,16,17
 605 851 605 851 553 834 c 0,18,19
 531 826 531 826 497.5 813.5 c 128,-1,20
 464 801 464 801 439 791 c 1,21,22
 416 783 416 783 412 781 c 1,23,-1
 412 146 l 2,24,25
 412 94 412 94 462 76.5 c 128,-1,26
 512 59 512 59 512 21 c 0,27,28
 512 -20 512 -20 467 -20 c 2,29,-1
 128 -20 l 2,30,31
 82 -20 82 -20 82 21 c 0,32,33
 82 59 82 59 132 76.5 c 128,-1,34
 182 94 182 94 182 146 c 2,35,-1
 182 786 l 2,36,37
 182 836 182 836 132 854 c 128,-1,38
 82 872 82 872 82 911 c 0,39,40
 82 952 82 952 127 952 c 1,41,42
 189 955 189 955 251.5 972 c 128,-1,43
 314 989 314 989 412 1022 c 1,44,-1
 412 885 l 1,45,46
 432 892 432 892 474 908 c 128,-1,47
 516 924 516 924 554 937 c 0,48,49
 650 971 650 971 752 981 c 0,50,51
 766 982 766 982 780 982 c 0,52,53
 874 982 874 982 957 919 c 0,54,55
 1086 820 1086 820 1086 506 c 2,56,-1
 1086 12 l 2,0,1
EndSplineSet
Validated: 1
EndChar

StartChar: OE
Encoding: 338 338 113
Width: 2044
Flags: W
LayerCount: 2
Fore
SplineSet
1362 114 m 1,0,-1
 1765 114 l 2,1,2
 1844 114 1844 114 1905 181 c 128,-1,3
 1966 248 1966 248 1999 288 c 0,4,5
 2025 319 2025 319 2048 319 c 0,6,7
 2094 319 2094 319 2094 278 c 0,8,9
 2094 263 2094 263 2091 253 c 2,10,-1
 2014 -20 l 1,11,-1
 1072 -20 l 1,12,13
 967 -49 967 -49 853 -55 c 0,14,15
 830 -56 830 -56 806 -56 c 0,16,17
 517 -56 517 -56 295 143 c 0,18,19
 69 345 69 345 69 669 c 0,20,21
 69 687 69 687 70 706 c 0,22,23
 82 1053 82 1053 297 1257.5 c 128,-1,24
 512 1462 512 1462 855 1466 c 1,25,-1
 863 1466 l 2,26,27
 1036 1466 1036 1466 1155 1424 c 1,28,-1
 2031 1424 l 1,29,-1
 2031 1147 l 2,30,31
 2031 1106 2031 1106 1985 1106 c 0,32,33
 1960 1106 1960 1106 1926 1156 c 1,34,35
 1877 1224 1877 1224 1844.5 1257.5 c 128,-1,36
 1812 1291 1812 1291 1765 1291 c 2,37,-1
 1362 1291 l 1,38,-1
 1362 788 l 1,39,-1
 1567 788 l 2,40,41
 1613 788 1613 788 1632.5 839.5 c 128,-1,42
 1652 891 1652 891 1696 891 c 0,43,44
 1742 891 1742 891 1742 850 c 2,45,-1
 1742 596 l 2,46,47
 1742 555 1742 555 1696 555 c 0,48,49
 1653 555 1653 555 1630 606 c 128,-1,50
 1607 657 1607 657 1560 657 c 2,51,-1
 1362 657 l 1,52,-1
 1362 114 l 1,0,-1
1132 1261 m 1,53,54
 1020 1338 1020 1338 854 1338 c 0,55,56
 562 1337 562 1337 445 1152 c 128,-1,57
 328 967 328 967 328 702 c 256,58,59
 328 437 328 437 475.5 252.5 c 128,-1,60
 623 68 623 68 854 66 c 1,61,-1
 860 66 l 2,62,63
 1012 66 1012 66 1131 161 c 1,64,-1
 1132 1261 l 1,53,54
EndSplineSet
Validated: 1
EndChar

StartChar: Tbar
Encoding: 358 358 114
Width: 1255
Flags: W
LayerCount: 2
Fore
SplineSet
1265 1147 m 2,0,1
 1265 1106 1265 1106 1219 1106 c 0,2,3
 1196 1106 1196 1106 1159 1156 c 0,4,5
 1109 1224 1109 1224 1077 1257.5 c 0,6,7
 1045 1291 1045 1291 997 1291 c 2,8,-1
 771 1291 l 1,9,-1
 771 961 l 1,10,-1
 1180 961 l 2,11,12
 1237 961 1237 961 1237 921 c 2,13,-1
 1237 882 l 2,14,15
 1237 843 1237 843 1180 843 c 2,16,-1
 771 843 l 1,17,-1
 771 146 l 2,18,19
 771 94 771 94 821 76 c 0,20,21
 871 58 871 58 871 20 c 0,22,23
 871 -20 871 -20 826 -20 c 2,24,-1
 487 -20 l 2,25,26
 441 -20 441 -20 441 20 c 0,27,28
 441 58 441 58 491 76 c 0,29,30
 541 94 541 94 541 146 c 2,31,-1
 541 843 l 1,32,-1
 128 843 l 2,33,34
 70 843 70 843 70 882 c 2,35,-1
 70 921 l 2,36,37
 70 961 70 961 128 961 c 2,38,-1
 541 961 l 1,39,-1
 541 1291 l 1,40,-1
 311 1291 l 2,41,42
 263 1291 263 1291 230 1257.5 c 0,43,44
 197 1224 197 1224 148 1156 c 0,45,46
 113 1106 113 1106 89 1106 c 0,47,48
 43 1106 43 1106 43 1147 c 2,49,-1
 43 1332 l 2,50,51
 43 1396 43 1396 70 1412.5 c 0,52,53
 97 1429 97 1429 182 1429 c 2,54,-1
 1126 1429 l 2,55,56
 1218 1429 1218 1429 1241.5 1413.5 c 0,57,58
 1265 1398 1265 1398 1265 1332 c 2,59,-1
 1265 1147 l 2,0,1
EndSplineSet
Validated: 1
EndChar

StartChar: tbar
Encoding: 359 359 115
Width: 663
Flags: W
LayerCount: 2
Fore
SplineSet
114 820 m 1,0,1
 70 820 70 820 68 860 c 1,2,-1
 68 862 l 2,3,4
 68 889 68 889 100 904 c 0,5,6
 118 913 118 913 158 934 c 0,7,8
 198 955 198 955 210 960 c 0,9,10
 215 962 215 962 215 963 c 0,11,12
 215 965 215 965 207 965 c 1,13,-1
 207 1116 l 2,14,15
 207 1172 207 1172 232 1196 c 0,16,17
 257 1220 257 1220 312 1246 c 0,18,19
 367 1272 367 1272 390 1273 c 0,20,21
 438 1273 438 1273 438 1227 c 2,22,-1
 438 969 l 1,23,-1
 652 973 l 2,24,25
 692 973 692 973 692 943 c 0,26,27
 692 912 692 912 688 890 c 0,28,29
 674 826 674 826 618 826 c 2,30,-1
 438 827 l 1,31,-1
 438 624 l 1,32,-1
 620 624 l 2,33,34
 661 624 661 624 661 585 c 2,35,-1
 661 547 l 2,36,37
 661 508 661 508 620 508 c 0,38,39
 529 508 529 508 438 508 c 1,40,-1
 438 220 l 2,41,42
 438 138 438 138 494 98 c 0,43,44
 550 58 550 58 610 50 c 1,45,-1
 610 -19 l 1,46,47
 432 -19 432 -19 320 12 c 0,48,49
 208 43 208 43 207 250 c 2,50,-1
 207 509 l 1,51,52
 160 509 160 509 113 509 c 0,53,54
 72 509 72 509 72 547 c 2,55,-1
 72 585 l 2,56,57
 72 624 72 624 112 624 c 2,58,-1
 207 624 l 1,59,-1
 207 824 l 1,60,-1
 114 820 l 1,0,1
EndSplineSet
Validated: 1
EndChar

StartChar: longs
Encoding: 383 383 116
Width: 625
Flags: W
LayerCount: 2
Fore
SplineSet
207 824 m 1,0,1
 195 824 195 824 119 820 c 1,2,-1
 113 820 l 2,3,4
 70 820 70 820 68 860 c 1,5,-1
 68 862 l 2,6,7
 68 889 68 889 100 904 c 0,8,9
 119 913 119 913 181 947 c 0,10,11
 197 955 197 955 214 962 c 0,12,13
 217 963 217 963 217 964 c 256,14,15
 217 965 217 965 207 965 c 1,16,-1
 207 1027 l 2,17,18
 207 1156 207 1156 231 1238 c 0,19,20
 247 1293 247 1293 277 1330 c 0,21,22
 294 1352 294 1352 326 1363 c 2,23,-1
 581 1458 l 2,24,25
 594 1463 594 1463 624 1465 c 1,26,-1
 629 1465 l 2,27,28
 659 1465 659 1465 686 1448 c 1,29,30
 717 1426 717 1426 728 1408 c 1,31,32
 736 1392 736 1392 736 1368 c 0,33,34
 736 1359 736 1359 735 1350 c 0,35,36
 732 1290 732 1290 701 1281 c 1,37,-1
 694 1281 l 2,38,39
 674 1281 674 1281 646 1301 c 1,40,41
 605 1327 605 1327 567 1327 c 0,42,43
 545 1327 545 1327 523 1318 c 0,44,45
 452 1288 452 1288 443 1197 c 0,46,47
 439 1160 439 1160 438.5 1116.5 c 128,-1,48
 438 1073 438 1073 438 1027 c 2,49,-1
 438 146 l 2,50,51
 438 94 438 94 488 76.5 c 128,-1,52
 538 59 538 59 538 21 c 0,53,54
 538 -20 538 -20 492 -20 c 2,55,-1
 153 -20 l 2,56,57
 107 -20 107 -20 107 21 c 0,58,59
 107 59 107 59 157 76.5 c 128,-1,60
 207 94 207 94 207 146 c 2,61,-1
 207 824 l 1,0,1
EndSplineSet
Validated: 1
EndChar

StartChar: florin
Encoding: 402 402 117
Width: 722
Flags: W
LayerCount: 2
Fore
SplineSet
438 12 m 2,0,1
 438 -187 438 -187 410.5 -286 c 128,-1,2
 383 -385 383 -385 315 -457 c 1,3,4
 219 -556 219 -556 67 -594 c 1,5,-1
 67 -507 l 1,6,7
 165 -448 165 -448 195 -353 c 1,8,9
 206 -314 206 -314 206.5 -241 c 128,-1,10
 207 -168 207 -168 207 6 c 2,11,-1
 207 824 l 1,12,13
 195 824 195 824 119 820 c 1,14,-1
 113 820 l 2,15,16
 70 820 70 820 68 860 c 1,17,-1
 68 862 l 2,18,19
 68 889 68 889 100 904 c 0,20,21
 119 913 119 913 181 947 c 0,22,23
 197 955 197 955 214 962 c 0,24,25
 217 963 217 963 217 964 c 256,26,27
 217 965 217 965 207 965 c 1,28,-1
 207 1027 l 2,29,30
 207 1171 207 1171 230 1235.5 c 128,-1,31
 253 1300 253 1300 277 1329 c 1,32,33
 294 1352 294 1352 326 1363 c 2,34,-1
 581 1458 l 2,35,36
 594 1463 594 1463 624 1465 c 1,37,-1
 629 1465 l 2,38,39
 659 1465 659 1465 686 1448 c 1,40,41
 735 1414 735 1414 735 1358 c 2,42,-1
 735 1351 l 1,43,44
 731 1284 731 1284 687 1284 c 0,45,46
 667 1284 667 1284 645 1302 c 1,47,48
 613 1325 613 1325 571 1325 c 2,49,-1
 564 1325 l 1,50,51
 512 1322 512 1322 487 1312 c 0,52,53
 453 1298 453 1298 445.5 1216 c 128,-1,54
 438 1134 438 1134 438 1027 c 2,55,-1
 438 969 l 1,56,-1
 651 973 l 1,57,-1
 652 973 l 2,58,59
 692 973 692 973 692 927 c 0,60,61
 692 912 692 912 688 890 c 0,62,63
 674 826 674 826 618 826 c 2,64,-1
 438 827 l 1,65,-1
 438 12 l 2,0,1
EndSplineSet
Validated: 1
EndChar

StartChar: uni0256
Encoding: 598 598 118
Width: 1140
Flags: W
LayerCount: 2
Fore
SplineSet
775 154 m 1,0,-1
 775 741 l 1,1,2
 740 772 740 772 681 800 c 128,-1,3
 622 828 622 828 578 830 c 0,4,5
 563 830 563 830 547 824 c 0,6,7
 511 811 511 811 476.5 798 c 128,-1,8
 442 785 442 785 407 773 c 1,9,10
 389 765 389 765 378 753 c 0,11,12
 322 693 322 693 302 607 c 0,13,14
 286 539 286 539 286 473 c 0,15,16
 286 452 286 452 288 429 c 0,17,18
 299 295 299 295 361 211 c 0,19,20
 422 127 422 127 510 103 c 0,21,22
 544 93 544 93 577 93 c 0,23,24
 589 93 589 93 599 94 c 0,25,26
 617 96 617 96 643 105 c 0,27,28
 664 112 664 112 712 130 c 0,29,30
 757 147 757 147 775 154 c 1,0,-1
775 54 m 1,31,-1
 542 -32 l 2,32,33
 511 -43 511 -43 482 -45 c 1,34,35
 455 -45 455 -45 439 -44 c 0,36,37
 290 -39 290 -39 183 76 c 0,38,39
 78 189 78 189 65 348 c 0,40,41
 61 390 61 390 61 430 c 0,42,43
 61 481 61 481 68 528 c 0,44,45
 80 613 80 613 134 700 c 1,46,47
 160 745 160 745 225 794 c 0,48,49
 250 814 250 814 281 825 c 0,50,51
 360 855 360 855 438 884 c 128,-1,52
 516 913 516 913 592 941 c 1,53,54
 613 950 613 950 641 950 c 1,55,56
 709 947 709 947 775 922 c 1,57,-1
 775 1454 l 1,58,59
 871 1420 871 1420 931.5 1404 c 128,-1,60
 992 1388 992 1388 1053 1385 c 1,61,62
 1098 1385 1098 1385 1098 1344 c 0,63,64
 1098 1307 1098 1307 1049 1289.5 c 128,-1,65
 1000 1272 1000 1272 1000 1222 c 2,66,-1
 1000 6 l 2,67,68
 1000 -163 1000 -163 1000.5 -234.5 c 128,-1,69
 1001 -306 1001 -306 1012 -342 c 0,70,71
 1041 -436 1041 -436 1136 -493 c 1,72,-1
 1136 -579 l 1,73,74
 989 -542 989 -542 894 -445 c 1,75,76
 828 -375 828 -375 801.5 -278.5 c 128,-1,77
 775 -182 775 -182 775 11 c 2,78,-1
 775 54 l 1,31,-1
EndSplineSet
Validated: 1
EndChar

StartChar: uni0261
Encoding: 609 609 119
Width: 1164
Flags: W
LayerCount: 2
Fore
SplineSet
1028 199 m 2,0,1
 1028 103 1028 103 1053.5 37.5 c 128,-1,2
 1079 -28 1079 -28 1119 -153 c 0,3,4
 1136 -209 1136 -209 1136 -261 c 0,5,6
 1136 -333 1136 -333 1104 -400 c 0,7,8
 1047 -519 1047 -519 921 -566 c 0,9,10
 835 -598 835 -598 738 -598 c 0,11,12
 720 -598 720 -598 701 -597 c 0,13,14
 588 -590 588 -590 474 -574.5 c 128,-1,15
 360 -559 360 -559 251 -552 c 0,16,17
 234 -551 234 -551 218 -551 c 0,18,19
 134 -551 134 -551 60 -579 c 0,20,21
 20 -594 20 -594 -9 -594 c 0,22,23
 -19 -594 -19 -594 -28 -593 c 0,24,25
 -53 -588 -53 -588 -53 -568 c 0,26,27
 -53 -544 -53 -544 52 -472 c 0,28,29
 151 -404 151 -404 256 -404 c 0,30,31
 354 -404 354 -404 450.5 -420 c 128,-1,32
 547 -436 547 -436 638 -446 c 0,33,34
 654 -448 654 -448 669 -448 c 0,35,36
 735 -448 735 -448 797 -416 c 0,37,38
 863 -382 863 -382 897 -334 c 0,39,40
 915 -310 915 -310 915 -276 c 0,41,42
 915 -249 915 -249 903 -215 c 2,43,-1
 806 59 l 1,44,-1
 557 -32 l 2,45,46
 520 -45 520 -45 494 -45 c 2,47,-1
 452 -45 l 1,48,49
 298 -37 298 -37 190 77 c 0,50,51
 81 193 81 193 66 358 c 0,52,53
 62 400 62 400 62 440 c 0,54,55
 62 493 62 493 69 543 c 0,56,57
 82 632 82 632 138 720 c 1,58,59
 165 767 165 767 232 818 c 1,60,61
 257 835 257 835 287 848 c 1,62,63
 368 878 368 878 448.5 908 c 128,-1,64
 529 938 529 938 610 968 c 0,65,66
 632 976 632 976 652 976 c 2,67,-1
 658 976 l 1,68,69
 726 973 726 973 822 942 c 0,70,71
 832 939 832 939 834 937 c 1,72,73
 854 929 854 929 885 919 c 0,74,75
 893 916 893 916 900 916 c 0,76,77
 906 916 906 916 910 919 c 0,78,79
 929 935 929 935 936 945 c 0,80,81
 949 962 949 962 971 962 c 0,82,83
 982 962 982 962 991 958 c 0,84,85
 1028 945 1028 945 1028 920 c 2,86,-1
 1028 199 l 2,0,1
797 158 m 1,87,-1
 796 219 l 1,88,-1
 797 219 l 1,89,-1
 797 762 l 1,90,91
 765 792 765 792 702.5 822 c 128,-1,92
 640 852 640 852 594 854 c 1,93,-1
 591 854 l 2,94,95
 577 854 577 854 561 848 c 0,96,97
 525 835 525 835 489.5 821.5 c 128,-1,98
 454 808 454 808 418 795 c 1,99,100
 399 787 399 787 388 775 c 0,101,102
 330 713 330 713 310 624 c 1,103,104
 293 554 293 554 293 486 c 0,105,106
 293 465 293 465 295 442 c 0,107,108
 306 303 306 303 370 217 c 1,109,110
 432 130 432 130 524 105 c 0,111,112
 558 95 558 95 593 95 c 0,113,114
 604 95 604 95 615 96 c 0,115,116
 633 98 633 98 660 107 c 0,117,118
 683 115 683 115 731.5 133 c 128,-1,119
 780 151 780 151 797 158 c 1,87,-1
EndSplineSet
Validated: 1
EndChar

StartChar: uni0262
Encoding: 610 610 120
Width: 1078
Flags: W
LayerCount: 2
Fore
SplineSet
623 -46 m 0,0,1
 404 -46 404 -46 235.5 90 c 128,-1,2
 67 226 67 226 67 463 c 0,3,4
 67 695 67 695 230.5 835.5 c 128,-1,5
 394 976 394 976 623 976 c 0,6,7
 704 976 704 976 796 958.5 c 128,-1,8
 888 941 888 941 983 882 c 1,9,-1
 966 711 l 1,10,11
 961 681 961 681 928 681 c 2,12,-1
 924 681 l 1,13,14
 896 684 896 684 884 714 c 1,15,16
 843 799 843 799 784 830.5 c 128,-1,17
 725 862 725 862 623 862 c 0,18,19
 559 862 559 862 484 823.5 c 128,-1,20
 409 785 409 785 359 699 c 0,21,22
 302 599 302 599 302 463 c 0,23,24
 302 307 302 307 403.5 194 c 128,-1,25
 505 81 505 81 625 73 c 0,26,27
 650 71 650 71 672 71 c 0,28,29
 730 71 730 71 764 84 c 0,30,31
 808 100 808 100 845 162 c 1,32,-1
 845 281 l 1,33,34
 844 292 844 292 835 297 c 0,35,36
 818 305 818 305 776 322 c 128,-1,37
 734 339 734 339 734 365 c 0,38,39
 734 399 734 399 773 399 c 2,40,-1
 1062 399 l 2,41,42
 1101 399 1101 399 1101 365 c 0,43,44
 1101 335 1101 335 1067 323 c 128,-1,45
 1033 311 1033 311 1033 282 c 2,46,-1
 1033 5 l 1,47,48
 953 1 953 1 911.5 -5.5 c 128,-1,49
 870 -12 870 -12 818 -23 c 1,50,51
 732 -46 732 -46 623 -46 c 0,0,1
EndSplineSet
Validated: 1
EndChar

StartChar: uni026A
Encoding: 618 618 121
Width: 452
Flags: W
LayerCount: 2
Fore
SplineSet
368 146 m 2,0,1
 368 94 368 94 418 76.5 c 128,-1,2
 468 59 468 59 468 21 c 0,3,4
 468 -20 468 -20 423 -20 c 2,5,-1
 90 -20 l 2,6,7
 44 -20 44 -20 44 21 c 0,8,9
 44 59 44 59 94 76.5 c 128,-1,10
 144 94 144 94 144 146 c 2,11,-1
 144 785 l 2,12,13
 144 836 144 836 94 854 c 128,-1,14
 44 872 44 872 44 911 c 0,15,16
 44 951 44 951 90 951 c 2,17,-1
 423 951 l 2,18,19
 468 951 468 951 468 911 c 0,20,21
 468 872 468 872 418 854 c 128,-1,22
 368 836 368 836 368 785 c 2,23,-1
 368 146 l 2,0,1
EndSplineSet
Validated: 1
EndChar

StartChar: uni0274
Encoding: 628 628 122
Width: 1142
Flags: W
LayerCount: 2
Fore
SplineSet
892 267 m 1,0,-1
 892 784 l 2,1,2
 892 835 892 835 842 853 c 128,-1,3
 792 871 792 871 792 910 c 0,4,5
 792 951 792 951 838 951 c 2,6,-1
 1092 951 l 2,7,8
 1138 951 1138 951 1138 910 c 0,9,10
 1138 871 1138 871 1086 853 c 128,-1,11
 1034 835 1034 835 1034 784 c 2,12,-1
 1034 -71 l 1,13,-1
 837 -17 l 1,14,-1
 278 650 l 1,15,-1
 278 146 l 2,16,17
 278 94 278 94 328 76.5 c 128,-1,18
 378 59 378 59 378 21 c 0,19,20
 378 -20 378 -20 333 -20 c 2,21,-1
 78 -20 l 2,22,23
 32 -20 32 -20 32 21 c 0,24,25
 32 59 32 59 83.5 76.5 c 128,-1,26
 135 94 135 94 135 146 c 2,27,-1
 135 784 l 2,28,29
 135 835 135 835 85 853 c 128,-1,30
 35 871 35 871 35 910 c 0,31,32
 35 951 35 951 81 951 c 2,33,-1
 330 951 l 1,34,-1
 892 267 l 1,0,-1
EndSplineSet
Validated: 1
EndChar

StartChar: uni0276
Encoding: 630 630 123
Width: 1506
Flags: W
LayerCount: 2
Fore
SplineSet
581 976 m 0,0,1
 633 976 633 976 681 963.5 c 128,-1,2
 729 951 729 951 770 951 c 2,3,-1
 1432 951 l 1,4,-1
 1432 740 l 2,5,6
 1432 702 1432 702 1393 697 c 1,7,-1
 1389 697 l 2,8,9
 1362 697 1362 697 1328 743 c 1,10,11
 1295 790 1295 790 1283 809 c 128,-1,12
 1271 828 1271 828 1247 828 c 2,13,-1
 1021 828 l 1,14,-1
 1021 529 l 1,15,-1
 1115 529 l 2,16,17
 1130 529 1130 529 1143 545 c 2,18,-1
 1188 598 l 1,19,20
 1240 598 1240 598 1240 564 c 2,21,-1
 1240 374 l 2,22,23
 1240 340 1240 340 1201 340 c 0,24,25
 1173 340 1173 340 1162.5 362.5 c 128,-1,26
 1152 385 1152 385 1141 396 c 0,27,28
 1129 408 1129 408 1115 408 c 2,29,-1
 1021 408 l 1,30,-1
 1021 98 l 1,31,-1
 1248 98 l 2,32,33
 1296 98 1296 98 1325 133 c 128,-1,34
 1354 168 1354 168 1376 194 c 1,35,36
 1404 232 1404 232 1429 232 c 2,37,-1
 1431 232 l 1,38,39
 1477 228 1477 228 1477 189 c 0,40,41
 1477 179 1477 179 1473 167 c 2,42,-1
 1421 -20 l 1,43,-1
 743 -20 l 2,44,45
 708 -20 708 -20 666.5 -31 c 128,-1,46
 625 -42 625 -42 582 -45 c 0,47,48
 567 -46 567 -46 552 -46 c 0,49,50
 353 -46 353 -46 202 89 c 1,51,52
 49 223 49 223 49 441 c 2,53,-1
 49 465 l 1,54,55
 57 698 57 698 202.5 835.5 c 128,-1,56
 348 973 348 973 581 976 c 0,0,1
797 197 m 1,57,-1
 797 748 l 1,58,59
 721 838 721 838 584 838 c 2,60,-1
 581 838 l 2,61,62
 410 838 410 838 341 729.5 c 128,-1,63
 272 621 272 621 272 464 c 0,64,65
 272 306 272 306 359 198 c 128,-1,66
 446 90 446 90 581 89 c 1,67,-1
 586 89 l 2,68,69
 711 89 711 89 797 197 c 1,57,-1
EndSplineSet
Validated: 1
EndChar

StartChar: uni0280
Encoding: 640 640 124
Width: 1010
Flags: W
LayerCount: 2
Fore
SplineSet
933 82 m 1,0,-1
 950 74 l 2,1,2
 966 66 966 66 987 65 c 1,3,4
 1038 59 1038 59 1038 21 c 2,5,-1
 1038 18 l 2,6,7
 1038 -20 1038 -20 993 -20 c 2,8,-1
 763 -20 l 2,9,10
 737 -20 737 -20 618 144 c 128,-1,11
 499 308 499 308 427 399 c 1,12,-1
 368 399 l 1,13,-1
 368 146 l 2,14,15
 368 94 368 94 418 76.5 c 128,-1,16
 468 59 468 59 468 21 c 0,17,18
 468 -20 468 -20 423 -20 c 2,19,-1
 90 -20 l 2,20,21
 44 -20 44 -20 44 21 c 0,22,23
 44 58 44 58 94 76 c 128,-1,24
 144 94 144 94 144 146 c 2,25,-1
 144 785 l 2,26,27
 144 836 144 836 94 854 c 128,-1,28
 44 872 44 872 44 911 c 0,29,30
 44 951 44 951 90 951 c 2,31,-1
 580 951 l 2,32,33
 655 951 655 951 737.5 924.5 c 128,-1,34
 820 898 820 898 867 821 c 0,35,36
 902 762 902 762 902 678 c 1,37,38
 900 598 900 598 855 533 c 1,39,40
 817 481 817 481 750.5 453.5 c 128,-1,41
 684 426 684 426 666 425 c 1,42,-1
 933 82 l 1,0,-1
368 509 m 1,43,-1
 492 509 l 2,44,45
 575 509 575 509 630 562 c 0,46,47
 678 607 678 607 678 681 c 2,48,-1
 678 684 l 2,49,50
 678 759 678 759 628 806 c 0,51,52
 596 835 596 835 574 838 c 128,-1,53
 552 841 552 841 506 841 c 2,54,-1
 368 841 l 1,55,-1
 368 509 l 1,43,-1
EndSplineSet
Validated: 1
EndChar

StartChar: uni028F
Encoding: 655 655 125
Width: 940
Flags: W
LayerCount: 2
Fore
SplineSet
390 404 m 1,0,-1
 194 754 l 1,1,2
 174 786 174 786 128 812 c 0,3,4
 103 825 103 825 77.5 834.5 c 128,-1,5
 52 844 52 844 36 855 c 1,6,7
 18 864 18 864 11 877 c 1,8,9
 5 886 5 886 5 896 c 2,10,-1
 5 900 l 1,11,12
 9 925 9 925 40 925 c 2,13,-1
 369 925 l 2,14,15
 384 925 384 925 401 916 c 0,16,17
 417 908 417 908 426 894 c 0,18,19
 432 884 432 884 432 875 c 0,20,21
 432 863 432 863 422 849 c 1,22,23
 399 823 399 823 398 815 c 1,24,-1
 398 811 l 2,25,26
 398 795 398 795 411 777 c 1,27,-1
 574 508 l 1,28,-1
 659 642 l 2,29,30
 684 682 684 682 689 708 c 1,31,-1
 689 718 l 2,32,33
 689 743 689 743 669 785 c 2,34,-1
 628 867 l 1,35,-1
 784 935 l 1,36,37
 795 942 795 942 811 942 c 0,38,39
 838 942 838 942 856 915 c 1,40,-1
 915 816 l 2,41,42
 928 794 928 794 928 771 c 0,43,44
 928 730 928 730 890 691 c 0,45,46
 840 638 840 638 782 555 c 2,47,-1
 667 391 l 1,48,49
 651 370 651 370 646 324.5 c 128,-1,50
 641 279 641 279 641 237 c 2,51,-1
 641 142 l 2,52,53
 641 92 641 92 690 74.5 c 128,-1,54
 739 57 739 57 739 20 c 0,55,56
 739 -20 739 -20 693 -20 c 2,57,-1
 364 -20 l 2,58,59
 319 -20 319 -20 319 20 c 0,60,61
 319 57 319 57 367.5 74.5 c 128,-1,62
 416 92 416 92 416 142 c 2,63,-1
 416 311 l 2,64,65
 416 362 416 362 390 404 c 1,0,-1
EndSplineSet
Validated: 1
EndChar

StartChar: uni0299
Encoding: 665 665 126
Width: 865
Flags: W
LayerCount: 2
Fore
SplineSet
349 69 m 1,0,-1
 454 69 l 2,1,2
 498 69 498 69 542 81.5 c 128,-1,3
 586 94 586 94 618 125 c 0,4,5
 668 173 668 173 668 253 c 256,6,7
 668 333 668 333 613.5 385 c 128,-1,8
 559 437 559 437 468 437 c 2,9,-1
 349 437 l 1,10,-1
 349 69 l 1,0,-1
349 535 m 1,11,-1
 485 535 l 1,12,13
 554 544 554 544 597 585 c 0,14,15
 638 624 638 624 638 695 c 2,16,-1
 638 698 l 2,17,18
 638 771 638 771 590.5 816.5 c 128,-1,19
 543 862 543 862 460 862 c 2,20,-1
 349 862 l 1,21,-1
 349 535 l 1,11,-1
531 955 m 2,22,23
 602 955 602 955 676 931 c 1,24,25
 758 903 758 903 796 836 c 0,26,27
 831 774 831 774 831 699 c 2,28,-1
 831 694 l 2,29,30
 831 617 831 617 792.5 562 c 128,-1,31
 754 507 754 507 734 499 c 1,32,33
 792 479 792 479 834 405 c 0,34,35
 873 336 873 336 873 254 c 2,36,-1
 873 250 l 2,37,38
 873 165 873 165 828 100 c 1,39,40
 783 37 783 37 707 8.5 c 128,-1,41
 631 -20 631 -20 569 -20 c 2,42,-1
 109 -20 l 2,43,44
 71 -20 71 -20 71 12 c 0,45,46
 71 43 71 43 104 55 c 128,-1,47
 137 67 137 67 137 97 c 2,48,-1
 137 837 l 2,49,50
 137 866 137 866 104 878 c 128,-1,51
 71 890 71 890 71 923 c 0,52,53
 71 955 71 955 109 955 c 2,54,-1
 531 955 l 2,22,23
EndSplineSet
Validated: 1
EndChar

StartChar: uni029C
Encoding: 668 668 127
Width: 1169
Flags: W
LayerCount: 2
Fore
SplineSet
368 548 m 1,0,-1
 839 548 l 1,1,-1
 839 785 l 2,2,3
 839 836 839 836 789 854 c 128,-1,4
 739 872 739 872 739 911 c 0,5,6
 739 951 739 951 785 951 c 2,7,-1
 1118 951 l 2,8,9
 1164 951 1164 951 1164 911 c 0,10,11
 1164 872 1164 872 1113.5 854 c 128,-1,12
 1063 836 1063 836 1063 785 c 2,13,-1
 1063 146 l 2,14,15
 1063 94 1063 94 1113.5 76.5 c 128,-1,16
 1164 59 1164 59 1164 21 c 0,17,18
 1164 -20 1164 -20 1118 -20 c 2,19,-1
 785 -20 l 2,20,21
 739 -20 739 -20 739 21 c 0,22,23
 739 59 739 59 789 76.5 c 128,-1,24
 839 94 839 94 839 146 c 2,25,-1
 839 438 l 1,26,-1
 368 438 l 1,27,-1
 368 146 l 2,28,29
 368 94 368 94 418 76.5 c 128,-1,30
 468 59 468 59 468 21 c 0,31,32
 468 -20 468 -20 423 -20 c 2,33,-1
 90 -20 l 2,34,35
 44 -20 44 -20 44 21 c 0,36,37
 44 59 44 59 94 76.5 c 128,-1,38
 144 94 144 94 144 146 c 2,39,-1
 144 785 l 2,40,41
 144 836 144 836 94 854 c 128,-1,42
 44 872 44 872 44 911 c 0,43,44
 44 951 44 951 90 951 c 2,45,-1
 423 951 l 2,46,47
 468 951 468 951 468 911 c 0,48,49
 468 872 468 872 418 854 c 128,-1,50
 368 836 368 836 368 785 c 2,51,-1
 368 548 l 1,0,-1
EndSplineSet
Validated: 1
EndChar

StartChar: uni029F
Encoding: 671 671 128
Width: 865
Flags: W
LayerCount: 2
Fore
SplineSet
818 232 m 0,0,1
 864 232 864 232 866 189 c 0,2,3
 866 181 866 181 862 167 c 2,4,-1
 810 -20 l 1,5,-1
 90 -20 l 2,6,7
 44 -20 44 -20 44 20 c 0,8,9
 44 59 44 59 94 76.5 c 128,-1,10
 144 94 144 94 144 146 c 2,11,-1
 144 785 l 2,12,13
 144 836 144 836 94 854 c 128,-1,14
 44 872 44 872 44 911 c 0,15,16
 44 951 44 951 90 951 c 2,17,-1
 423 951 l 2,18,19
 468 951 468 951 468 911 c 0,20,21
 468 872 468 872 418 854 c 128,-1,22
 368 836 368 836 368 785 c 2,23,-1
 368 103 l 1,24,-1
 638 103 l 2,25,26
 686 103 686 103 714.5 135.5 c 128,-1,27
 743 168 743 168 768.5 200 c 128,-1,28
 794 232 794 232 818 232 c 0,0,1
EndSplineSet
Validated: 1
EndChar

StartChar: circumflex
Encoding: 710 710 129
Width: 1000
Flags: W
LayerCount: 2
Fore
SplineSet
212 1076 m 1,0,-1
 469 1463 l 1,1,-1
 614 1463 l 1,2,-1
 870 1076 l 1,3,-1
 760 1076 l 1,4,-1
 541 1275 l 1,5,-1
 323 1076 l 1,6,-1
 212 1076 l 1,0,-1
EndSplineSet
Validated: 1
EndChar

StartChar: breve
Encoding: 728 728 130
Width: 1000
Flags: W
LayerCount: 2
Fore
SplineSet
525 1095 m 0,0,1
 352 1095 352 1095 262 1217 c 0,2,3
 202 1297 202 1297 196 1412 c 1,4,-1
 196 1415 l 2,5,6
 196 1459 196 1459 248 1459 c 0,7,8
 287 1459 287 1459 299 1416 c 0,9,10
 338 1267 338 1267 524 1266 c 1,11,-1
 529 1266 l 2,12,13
 712 1266 712 1266 750 1416 c 1,14,15
 762 1459 762 1459 802 1459 c 0,16,17
 854 1459 854 1459 854 1414 c 2,18,-1
 854 1412 l 1,19,20
 847 1297 847 1297 788 1217 c 0,21,22
 697 1095 697 1095 525 1095 c 0,0,1
EndSplineSet
Validated: 1
EndChar

StartChar: dotaccent
Encoding: 729 729 131
Width: 1000
Flags: W
LayerCount: 2
Fore
SplineSet
525 1420 m 256,1,2
 660 1420 660 1420 660 1290 c 0,3,4
 660 1159 660 1159 525 1159 c 256,5,6
 390 1159 390 1159 390 1290 c 0,7,0
 390 1420 390 1420 525 1420 c 256,1,2
EndSplineSet
Validated: 1
EndChar

StartChar: ring
Encoding: 730 730 132
Width: 1000
Flags: W
LayerCount: 2
Fore
SplineSet
525 1534 m 256,0,1
 618 1534 618 1534 681.5 1468.5 c 128,-1,2
 745 1403 745 1403 745 1314 c 0,3,4
 745 1224 745 1224 681.5 1159.5 c 128,-1,5
 618 1095 618 1095 525 1095 c 256,6,7
 432 1095 432 1095 368.5 1159.5 c 128,-1,8
 305 1224 305 1224 305 1314 c 0,9,10
 305 1403 305 1403 368.5 1468.5 c 128,-1,11
 432 1534 432 1534 525 1534 c 256,0,1
582 1426 m 1,12,13
 552 1466 552 1466 517 1466 c 256,14,15
 482 1466 482 1466 459 1429 c 0,16,17
 431 1386 431 1386 431 1327 c 2,18,-1
 431 1315 l 1,19,20
 434 1249 434 1249 466 1206 c 128,-1,21
 498 1163 498 1163 534 1163 c 0,22,23
 569 1163 569 1163 592 1199 c 1,24,25
 620 1254 620 1254 620 1306 c 0,26,27
 620 1367 620 1367 582 1426 c 1,12,13
EndSplineSet
Validated: 1
EndChar

StartChar: tilde
Encoding: 732 732 133
Width: 1000
Flags: W
LayerCount: 2
Fore
SplineSet
226 1138 m 1,0,1
 187 1147 187 1147 185 1177 c 1,2,-1
 185 1180 l 2,3,4
 185 1201 185 1201 205 1243 c 2,5,-1
 258 1360 l 2,6,7
 298 1450 298 1450 393 1450 c 0,8,9
 487 1450 487 1450 585 1355 c 1,10,11
 623 1316 623 1316 659 1316 c 0,12,13
 690 1316 690 1316 724 1345 c 0,14,15
 758 1373 758 1373 785 1442 c 0,16,17
 795 1469 795 1469 823 1469 c 0,18,19
 828 1469 828 1469 834 1468 c 0,20,21
 868 1459 868 1459 869 1435 c 1,22,-1
 869 1427 l 2,23,24
 869 1409 869 1409 865 1401 c 1,25,26
 823 1285 823 1285 777.5 1226 c 128,-1,27
 732 1167 732 1167 673 1167 c 0,28,29
 583 1167 583 1167 482 1258 c 1,30,31
 442 1297 442 1297 406 1297 c 0,32,33
 379 1297 379 1297 350 1274 c 1,34,-1
 330 1257 l 1,35,36
 294 1223 294 1223 266 1161 c 1,37,38
 254 1138 254 1138 226 1138 c 1,0,1
EndSplineSet
Validated: 1
EndChar

StartChar: uni0305
Encoding: 773 773 134
Width: 0
Flags: W
LayerCount: 2
Fore
SplineSet
-1070 1201 m 1,0,-1
 -1070 1324 l 1,1,-1
 50 1324 l 1,2,-1
 50 1201 l 1,3,-1
 -1070 1201 l 1,0,-1
EndSplineSet
Validated: 1
EndChar

StartChar: uni031A
Encoding: 794 794 135
Width: 0
Flags: W
LayerCount: 2
Fore
SplineSet
113 871 m 1,0,-1
 -18 871 l 1,1,-1
 -18 1138 l 1,2,-1
 -473 1138 l 1,3,-1
 -473 1261 l 1,4,-1
 113 1261 l 1,5,-1
 113 871 l 1,0,-1
EndSplineSet
Validated: 1
EndChar

StartChar: uni031F
Encoding: 799 799 136
Width: 0
Flags: W
LayerCount: 2
Fore
SplineSet
-461 -54 m 1,0,-1
 -461 -243 l 1,1,-1
 -272 -243 l 1,2,-1
 -272 -366 l 1,3,-1
 -461 -366 l 1,4,-1
 -461 -554 l 1,5,-1
 -593 -554 l 1,6,-1
 -593 -366 l 1,7,-1
 -782 -366 l 1,8,-1
 -782 -243 l 1,9,-1
 -593 -243 l 1,10,-1
 -593 -54 l 1,11,-1
 -461 -54 l 1,0,-1
EndSplineSet
Validated: 1
EndChar

StartChar: uni0320
Encoding: 800 800 137
Width: 0
Flags: W
LayerCount: 2
Fore
SplineSet
-782 -243 m 1,0,-1
 -272 -243 l 1,1,-1
 -272 -366 l 1,2,-1
 -782 -366 l 1,3,-1
 -782 -243 l 1,0,-1
EndSplineSet
Validated: 1
EndChar

StartChar: uni0321
Encoding: 801 801 138
Width: 0
Flags: W
LayerCount: 2
Fore
SplineSet
-96 20 m 1,0,1
 -96 -194 -96 -194 -122.5 -284.5 c 128,-1,2
 -149 -375 -149 -375 -215 -445 c 1,3,4
 -311 -542 -311 -542 -457 -579 c 1,5,-1
 -457 -493 l 1,6,7
 -361 -435 -361 -435 -333 -343 c 0,8,9
 -322 -306 -322 -306 -321.5 -237.5 c 128,-1,10
 -321 -169 -321 -169 -321 20 c 1,11,-1
 -96 20 l 1,0,1
EndSplineSet
Validated: 1
EndChar

StartChar: uni0322
Encoding: 802 802 139
Width: 0
Flags: W
LayerCount: 2
Fore
SplineSet
-334 20 m 1,0,1
 -334 20 -334 20 -109 20 c 1,2,3
 -109 -169 -109 -169 -108.5 -237.5 c 128,-1,4
 -108 -306 -108 -306 -97 -343 c 0,5,6
 -69 -435 -69 -435 27 -493 c 1,7,-1
 27 -579 l 1,8,9
 -119 -542 -119 -542 -215 -445 c 1,10,11
 -281 -375 -281 -375 -307.5 -284.5 c 128,-1,12
 -334 -194 -334 -194 -334 20 c 1,0,1
EndSplineSet
Validated: 1
EndChar

StartChar: dotbelowcomb
Encoding: 803 803 140
Width: 0
VWidth: 448
Flags: W
LayerCount: 2
Fore
SplineSet
-500 -180 m 256,1,2
 -365 -180 -365 -180 -365 -310 c 0,3,4
 -365 -441 -365 -441 -500 -441 c 256,5,6
 -635 -441 -635 -441 -635 -310 c 0,7,0
 -635 -180 -635 -180 -500 -180 c 256,1,2
EndSplineSet
Validated: 1
EndChar

StartChar: uni0324
Encoding: 804 804 141
Width: 0
VWidth: 448
Flags: W
LayerCount: 2
Fore
SplineSet
-265 -180 m 0,0,1
 -130 -180 -130 -180 -130 -310 c 0,2,3
 -130 -441 -130 -441 -265 -441 c 0,4,5
 -400 -441 -400 -441 -400 -310 c 0,6,7
 -400 -180 -400 -180 -265 -180 c 0,0,1
-735 -180 m 0,8,9
 -600 -180 -600 -180 -600 -310 c 0,10,11
 -600 -441 -600 -441 -735 -441 c 0,12,13
 -870 -441 -870 -441 -870 -310 c 0,14,15
 -870 -180 -870 -180 -735 -180 c 0,8,9
EndSplineSet
Validated: 1
EndChar

StartChar: uni0326
Encoding: 806 806 142
Width: 0
Flags: W
LayerCount: 2
Fore
SplineSet
-501 -71 m 1,0,-1
 -490 -71 l 2,1,2
 -367 -71 -367 -71 -361 -172 c 1,3,-1
 -357 -255 l 1,4,-1
 -357 -260 l 2,5,6
 -357 -280 -357 -280 -363 -308 c 1,7,8
 -372 -337 -372 -337 -378 -357 c 0,9,10
 -413 -478 -413 -478 -528 -564 c 1,11,12
 -570 -597 -570 -597 -604 -597 c 0,13,14
 -628 -597 -628 -597 -648 -581 c 1,15,16
 -661 -568 -661 -568 -661 -553 c 0,17,18
 -661 -539 -661 -539 -649 -524 c 0,19,20
 -632 -503 -632 -503 -606 -487 c 1,21,22
 -522 -430 -522 -430 -514 -367 c 1,23,-1
 -499 -367 l 2,24,25
 -621 -367 -621 -367 -626 -267 c 2,26,-1
 -630 -184 l 1,27,-1
 -630 -177 l 2,28,29
 -630 -80 -630 -80 -501 -71 c 1,0,-1
EndSplineSet
Validated: 1
EndChar

StartChar: uni0329
Encoding: 809 809 143
Width: 0
Flags: W
LayerCount: 2
Fore
SplineSet
-596 -521 m 1,0,-1
 -596 -92 l 1,1,-1
 -420 -92 l 1,2,-1
 -420 -521 l 1,3,-1
 -596 -521 l 1,0,-1
EndSplineSet
Validated: 1
EndChar

StartChar: uni032A
Encoding: 810 810 144
Width: 0
Flags: W
LayerCount: 2
Fore
SplineSet
-147 -148 m 1,0,-1
 -147 -462 l 1,1,-1
 -280 -462 l 1,2,-1
 -280 -271 l 1,3,-1
 -817 -271 l 1,4,-1
 -817 -462 l 1,5,-1
 -949 -462 l 1,6,-1
 -949 -148 l 1,7,-1
 -147 -148 l 1,0,-1
EndSplineSet
Validated: 1
EndChar

StartChar: uni032B
Encoding: 811 811 145
Width: 0
Flags: W
LayerCount: 2
Fore
SplineSet
-957 -208 m 2,0,-1
 -957 -186 l 1,1,-1
 -873 -186 l 1,2,3
 -879 -212 -879 -212 -879 -216 c 0,4,5
 -879 -255 -879 -255 -838 -281 c 0,6,7
 -798 -307 -798 -307 -745 -307 c 2,8,-1
 -734 -307 l 1,9,10
 -695 -304 -695 -304 -642 -279 c 128,-1,11
 -589 -254 -589 -254 -589 -208 c 2,12,-1
 -589 -186 l 1,13,-1
 -508 -186 l 1,14,-1
 -508 -208 l 2,15,16
 -508 -263 -508 -263 -465 -285 c 256,17,18
 -422 -307 -422 -307 -376 -307 c 2,19,-1
 -365 -307 l 1,20,21
 -306 -304 -306 -304 -263.5 -274 c 128,-1,22
 -221 -244 -221 -244 -216 -186 c 1,23,-1
 -140 -186 l 1,24,-1
 -140 -208 l 2,25,26
 -140 -296 -140 -296 -204.5 -359.5 c 128,-1,27
 -269 -423 -269 -423 -364 -423 c 0,28,29
 -515 -423 -515 -423 -548 -346 c 1,30,31
 -580 -423 -580 -423 -733 -423 c 0,32,33
 -827 -423 -827 -423 -892 -359.5 c 128,-1,34
 -957 -296 -957 -296 -957 -208 c 2,0,-1
EndSplineSet
Validated: 1
EndChar

StartChar: uni0332
Encoding: 818 818 146
Width: 0
Flags: W
LayerCount: 2
Fore
SplineSet
-905 -403 m 1,0,-1
 -905 -280 l 1,1,-1
 50 -280 l 1,2,-1
 50 -403 l 1,3,-1
 -905 -403 l 1,0,-1
EndSplineSet
Validated: 1
EndChar

StartChar: uni0333
Encoding: 819 819 147
Width: 0
Flags: W
LayerCount: 2
Fore
SplineSet
-1060 -196 m 1,0,-1
 50 -196 l 1,1,-1
 50 -319 l 1,2,-1
 -1060 -319 l 1,3,-1
 -1060 -196 l 1,0,-1
-1060 -365 m 1,4,-1
 50 -365 l 1,5,-1
 50 -487 l 1,6,-1
 -1060 -487 l 1,7,-1
 -1060 -365 l 1,4,-1
EndSplineSet
Validated: 1
EndChar

StartChar: uni0335
Encoding: 821 821 148
Width: 0
Flags: W
LayerCount: 2
Fore
SplineSet
-915 407 m 1,0,-1
 -915 530 l 1,1,-1
 -96 530 l 1,2,-1
 -96 407 l 1,3,-1
 -915 407 l 1,0,-1
EndSplineSet
Validated: 1
EndChar

StartChar: uni0336
Encoding: 822 822 149
Width: 0
Flags: W
LayerCount: 2
Fore
SplineSet
-1060 400 m 1,0,-1
 -1060 523 l 1,1,-1
 50 523 l 1,2,-1
 50 400 l 1,3,-1
 -1060 400 l 1,0,-1
EndSplineSet
Validated: 1
EndChar

StartChar: uni0337
Encoding: 823 823 150
Width: 0
Flags: W
LayerCount: 2
Fore
SplineSet
-836 229 m 1,0,-1
 -259 806 l 1,1,-1
 -161 708 l 1,2,-1
 -738 131 l 1,3,-1
 -836 229 l 1,0,-1
EndSplineSet
Validated: 1
EndChar

StartChar: uni0338
Encoding: 824 824 151
Width: 0
Flags: W
LayerCount: 2
Fore
SplineSet
-862 -30 m 1,0,-1
 -256 1018 l 1,1,-1
 -137 948 l 1,2,-1
 -743 -100 l 1,3,-1
 -862 -30 l 1,0,-1
EndSplineSet
Validated: 1
EndChar

StartChar: uni0339
Encoding: 825 825 152
Width: 0
Flags: W
LayerCount: 2
Fore
SplineSet
-606 -87 m 2,0,1
 -513 -87 -513 -87 -449 -151.5 c 128,-1,2
 -385 -216 -385 -216 -385 -307 c 0,3,4
 -385 -396 -385 -396 -449 -461 c 128,-1,5
 -513 -526 -513 -526 -606 -526 c 2,6,-1
 -632 -526 l 1,7,-1
 -632 -459 l 1,8,9
 -574 -453 -574 -453 -544.5 -411 c 128,-1,10
 -515 -369 -515 -369 -512 -306 c 1,11,-1
 -512 -290 l 2,12,13
 -512 -234 -512 -234 -537 -194 c 0,14,15
 -562 -155 -562 -155 -598 -155 c 0,16,17
 -599 -155 -599 -155 -632 -166 c 1,18,-1
 -632 -87 l 1,19,-1
 -606 -87 l 2,0,1
EndSplineSet
Validated: 1
EndChar

StartChar: uni033A
Encoding: 826 826 153
Width: 0
Flags: W
LayerCount: 2
Fore
SplineSet
-147 -462 m 1,0,-1
 -949 -462 l 1,1,-1
 -949 -148 l 1,2,-1
 -817 -148 l 1,3,-1
 -817 -339 l 1,4,-1
 -280 -339 l 1,5,-1
 -280 -148 l 1,6,-1
 -147 -148 l 1,7,-1
 -147 -462 l 1,0,-1
EndSplineSet
Validated: 1
EndChar

StartChar: uni033B
Encoding: 827 827 154
Width: 0
Flags: W
LayerCount: 2
Fore
SplineSet
-809 -72 m 1,0,-1
 -287 -72 l 1,1,-1
 -287 -584 l 1,2,-1
 -809 -584 l 1,3,-1
 -809 -72 l 1,0,-1
-676 -195 m 1,4,-1
 -676 -461 l 1,5,-1
 -420 -461 l 1,6,-1
 -420 -195 l 1,7,-1
 -676 -195 l 1,4,-1
EndSplineSet
Validated: 1
EndChar

StartChar: uni033C
Encoding: 828 828 155
Width: 0
Flags: W
LayerCount: 2
Fore
SplineSet
-949 -153 m 1,0,1
 -771 -197 -771 -197 -652.5 -231 c 128,-1,2
 -534 -265 -534 -265 -524 -306 c 1,3,4
 -517 -267 -517 -267 -417 -235.5 c 128,-1,5
 -317 -204 -317 -204 -147 -146 c 1,6,-1
 -147 -242 l 1,7,8
 -266 -299 -266 -299 -347 -347 c 128,-1,9
 -428 -395 -428 -395 -465 -554 c 1,10,-1
 -588 -554 l 1,11,12
 -625 -418 -625 -418 -704 -358 c 128,-1,13
 -783 -298 -783 -298 -949 -244 c 1,14,-1
 -949 -153 l 1,0,1
EndSplineSet
Validated: 1
EndChar

StartChar: uni033D
Encoding: 829 829 156
Width: 0
Flags: W
LayerCount: 2
Fore
SplineSet
-656 1618 m 1,0,-1
 -523 1485 l 1,1,-1
 -389 1618 l 1,2,-1
 -299 1528 l 1,3,-1
 -432 1394 l 1,4,-1
 -299 1261 l 1,5,-1
 -389 1171 l 1,6,-1
 -523 1304 l 1,7,-1
 -656 1171 l 1,8,-1
 -746 1261 l 1,9,-1
 -613 1394 l 1,10,-1
 -746 1528 l 1,11,-1
 -656 1618 l 1,0,-1
EndSplineSet
Validated: 1
EndChar

StartChar: uni033E
Encoding: 830 830 157
Width: 0
Flags: W
LayerCount: 2
Fore
SplineSet
-511 1207 m 0,0,1
 -612 1278 -612 1278 -654 1333 c 1,2,3
 -691 1378 -691 1378 -691 1421 c 0,4,5
 -691 1433 -691 1433 -687 1445 c 0,6,7
 -665 1527 -665 1527 -553 1601 c 0,8,9
 -488 1643 -488 1643 -488 1693 c 0,10,11
 -488 1714 -488 1714 -500 1737 c 0,12,13
 -505 1746 -505 1746 -512 1760 c 128,-1,14
 -519 1774 -519 1774 -532 1791 c 0,15,16
 -555 1820 -555 1820 -586 1847 c 0,17,18
 -602 1860 -602 1860 -602 1873 c 0,19,20
 -602 1889 -602 1889 -583 1902 c 0,21,22
 -570 1911 -570 1911 -553 1911 c 0,23,24
 -531 1911 -531 1911 -508 1893 c 0,25,26
 -447 1842 -447 1842 -382 1790 c 1,27,28
 -325 1743 -325 1743 -325 1684 c 0,29,30
 -325 1668 -325 1668 -330 1651 c 0,31,32
 -355 1558 -355 1558 -469 1489 c 0,33,34
 -532 1451 -532 1451 -532 1398 c 0,35,36
 -532 1373 -532 1373 -519 1344 c 1,37,38
 -499 1303 -499 1303 -439 1259 c 1,39,40
 -423 1246 -423 1246 -423 1231 c 0,41,42
 -423 1223 -423 1223 -428 1214 c 0,43,44
 -438 1193 -438 1193 -468 1193 c 0,45,46
 -475 1193 -475 1193 -480 1194 c 0,47,48
 -495 1196 -495 1196 -511 1207 c 0,0,1
EndSplineSet
Validated: 1
EndChar

StartChar: uni033F
Encoding: 831 831 158
Width: 0
Flags: W
LayerCount: 2
Fore
SplineSet
-1050 1408 m 1,0,-1
 50 1408 l 1,1,-1
 50 1285 l 1,2,-1
 -1050 1285 l 1,3,-1
 -1050 1408 l 1,0,-1
-1050 1239 m 1,4,-1
 50 1239 l 1,5,-1
 50 1117 l 1,6,-1
 -1050 1117 l 1,7,-1
 -1050 1239 l 1,4,-1
EndSplineSet
Validated: 1
EndChar

StartChar: uni0346
Encoding: 838 838 159
Width: 0
Flags: W
LayerCount: 2
Fore
SplineSet
-147 1474 m 1,0,-1
 -147 1160 l 1,1,-1
 -280 1160 l 1,2,-1
 -280 1351 l 1,3,-1
 -817 1351 l 1,4,-1
 -817 1160 l 1,5,-1
 -949 1160 l 1,6,-1
 -949 1474 l 1,7,-1
 -147 1474 l 1,0,-1
EndSplineSet
Validated: 1
EndChar

StartChar: uni0347
Encoding: 839 839 160
Width: 0
Flags: W
LayerCount: 2
Fore
SplineSet
-781 -196 m 1,0,-1
 -230 -196 l 1,1,-1
 -230 -319 l 1,2,-1
 -781 -319 l 1,3,-1
 -781 -196 l 1,0,-1
-781 -365 m 1,4,-1
 -230 -365 l 1,5,-1
 -230 -487 l 1,6,-1
 -781 -487 l 1,7,-1
 -781 -365 l 1,4,-1
EndSplineSet
Validated: 1
EndChar

StartChar: uni0348
Encoding: 840 840 161
Width: 0
Flags: W
LayerCount: 2
Fore
SplineSet
-491 -101 m 1,0,-1
 -315 -101 l 1,1,-1
 -315 -530 l 1,2,-1
 -491 -530 l 1,3,-1
 -491 -101 l 1,0,-1
-702 -101 m 1,4,-1
 -526 -101 l 1,5,-1
 -526 -530 l 1,6,-1
 -702 -530 l 1,7,-1
 -702 -101 l 1,4,-1
EndSplineSet
Validated: 1
EndChar

StartChar: uni0349
Encoding: 841 841 162
Width: 0
Flags: W
LayerCount: 2
Fore
SplineSet
-370 -574 m 1,0,-1
 -503 -574 l 1,1,-1
 -503 -306 l 1,2,-1
 -957 -306 l 1,3,-1
 -957 -183 l 1,4,-1
 -370 -183 l 1,5,-1
 -370 -574 l 1,0,-1
EndSplineSet
Validated: 1
EndChar

StartChar: uni034A
Encoding: 842 842 163
Width: 0
Flags: W
LayerCount: 2
Fore
SplineSet
-189 1331 m 1,0,1
 -161 1316 -161 1316 -133 1316 c 256,2,3
 -105 1316 -105 1316 -80 1337 c 1,4,5
 -44 1365 -44 1365 -18 1436 c 1,6,7
 -7 1462 -7 1462 20 1462 c 0,8,9
 29 1462 29 1462 34 1459 c 1,10,11
 59 1453 59 1453 64 1421 c 1,12,-1
 64 1415 l 2,13,14
 64 1403 64 1403 60 1393 c 0,15,16
 21 1278 21 1278 -22 1224 c 1,17,18
 -71 1159 -71 1159 -131 1159 c 256,19,20
 -191 1159 -191 1159 -286 1216.5 c 128,-1,21
 -381 1274 -381 1274 -428 1302 c 1,22,23
 -483 1333 -483 1333 -506 1372 c 0,24,25
 -523 1402 -523 1402 -523 1433 c 0,26,27
 -523 1474 -523 1474 -491 1519 c 0,28,29
 -442 1586 -442 1586 -397 1651 c 1,30,31
 -375 1680 -375 1680 -346 1680 c 0,32,33
 -338 1680 -338 1680 -327 1678 c 1,34,35
 -299 1666 -299 1666 -299 1646 c 0,36,37
 -299 1637 -299 1637 -307 1625 c 0,38,39
 -333 1586 -333 1586 -345 1556 c 0,40,41
 -356 1529 -356 1529 -364 1494 c 0,42,43
 -365 1487 -365 1487 -365 1480 c 0,44,45
 -365 1433 -365 1433 -311 1398 c 1,46,47
 -303 1412 -303 1412 -275 1447.5 c 128,-1,48
 -247 1483 -247 1483 -223 1518 c 1,49,50
 -201 1547 -201 1547 -172 1547 c 0,51,52
 -161 1547 -161 1547 -151 1543 c 0,53,54
 -125 1532 -125 1532 -125 1512 c 0,55,56
 -125 1503 -125 1503 -132 1493 c 0,57,58
 -158 1455 -158 1455 -171 1422 c 1,59,60
 -183 1395 -183 1395 -189 1361 c 0,61,62
 -190 1359 -190 1359 -190 1353 c 0,63,64
 -190 1341 -190 1341 -189 1331 c 1,0,1
EndSplineSet
Validated: 1
EndChar

StartChar: uni034B
Encoding: 843 843 164
Width: 0
Flags: W
LayerCount: 2
Fore
SplineSet
-574 1387 m 1,0,1
 -576 1396 -576 1396 -576 1407 c 0,2,3
 -576 1469 -576 1469 -508 1469 c 0,4,5
 -441 1469 -441 1469 -441 1407 c 0,6,7
 -441 1350 -441 1350 -496 1345 c 1,8,9
 -473 1328 -473 1328 -451 1306 c 0,10,11
 -410 1266 -410 1266 -375 1266 c 0,12,13
 -345 1266 -345 1266 -312 1295 c 1,14,15
 -276 1323 -276 1323 -250 1393 c 1,16,17
 -239 1419 -239 1419 -211 1419 c 2,18,-1
 -204 1419 l 1,19,20
 -171 1411 -171 1411 -167 1381 c 0,21,22
 -166 1377 -166 1377 -166 1371 c 0,23,24
 -166 1361 -166 1361 -170 1351 c 0,25,26
 -212 1235 -212 1235 -254 1181 c 1,27,28
 -302 1117 -302 1117 -363 1117 c 0,29,30
 -405 1117 -405 1117 -449 1137 c 1,31,32
 -441 1123 -441 1123 -441 1101 c 0,33,34
 -441 1039 -441 1039 -508 1039 c 0,35,36
 -576 1039 -576 1039 -576 1101 c 0,37,38
 -576 1164 -576 1164 -508 1164 c 0,39,40
 -502 1164 -502 1164 -496 1163 c 1,41,42
 -524 1182 -524 1182 -553 1208 c 1,43,44
 -599 1247 -599 1247 -634 1247 c 0,45,46
 -660 1247 -660 1247 -685 1225 c 0,47,48
 -693 1217 -693 1217 -704 1207 c 128,-1,49
 -715 1197 -715 1197 -729 1181 c 1,50,51
 -752 1148 -752 1148 -770 1111 c 0,52,53
 -781 1088 -781 1088 -805 1088 c 0,54,55
 -821 1088 -821 1088 -835 1100 c 0,56,57
 -851 1113 -851 1113 -851 1134 c 0,58,59
 -851 1147 -851 1147 -845 1162 c 0,60,61
 -812 1235 -812 1235 -775 1317.5 c 128,-1,62
 -738 1400 -738 1400 -649 1400 c 0,63,64
 -611 1400 -611 1400 -574 1387 c 1,0,1
EndSplineSet
Validated: 1
EndChar

StartChar: uni034C
Encoding: 844 844 165
Width: 0
Flags: W
LayerCount: 2
Fore
SplineSet
-172 1405 m 1,0,1
 -216 1327 -216 1327 -257 1295 c 1,2,3
 -305 1254 -305 1254 -363 1254 c 0,4,5
 -449 1254 -449 1254 -549 1312 c 1,6,7
 -596 1337 -596 1337 -634 1337 c 0,8,9
 -664 1337 -664 1337 -689 1323 c 1,10,11
 -696 1317 -696 1317 -707.5 1311 c 128,-1,12
 -719 1305 -719 1305 -732 1294 c 0,13,14
 -753 1276 -753 1276 -771 1252 c 0,15,16
 -784 1235 -784 1235 -805 1235 c 0,17,18
 -818 1235 -818 1235 -831 1243 c 0,19,20
 -851 1254 -851 1254 -851 1272 c 0,21,22
 -851 1283 -851 1283 -843 1295 c 0,23,24
 -810 1342 -810 1342 -772 1395.5 c 128,-1,25
 -734 1449 -734 1449 -649 1449 c 0,26,27
 -552 1449 -552 1449 -455 1390 c 0,28,29
 -414 1364 -414 1364 -375 1364 c 0,30,31
 -342 1364 -342 1364 -307 1383 c 1,32,33
 -273 1400 -273 1400 -248 1443 c 1,34,35
 -235 1461 -235 1461 -211 1461 c 2,36,-1
 -205 1461 l 1,37,38
 -172 1456 -172 1456 -167 1432 c 0,39,40
 -166 1427 -166 1427 -166 1423 c 0,41,42
 -166 1413 -166 1413 -172 1405 c 1,0,1
-171 1216 m 0,43,44
 -215 1141 -215 1141 -257 1105 c 0,45,46
 -305 1064 -305 1064 -363 1064 c 0,47,48
 -449 1064 -449 1064 -549 1122 c 1,49,50
 -596 1147 -596 1147 -634 1147 c 0,51,52
 -664 1147 -664 1147 -690 1133 c 1,53,54
 -713 1119 -713 1119 -732 1105 c 1,55,56
 -757 1081 -757 1081 -771 1062 c 0,57,58
 -784 1045 -784 1045 -805 1045 c 0,59,60
 -818 1045 -818 1045 -831 1053 c 0,61,62
 -851 1064 -851 1064 -851 1083 c 0,63,64
 -851 1094 -851 1094 -843 1106 c 0,65,66
 -810 1152 -810 1152 -772.5 1206 c 128,-1,67
 -735 1260 -735 1260 -649 1260 c 0,68,69
 -552 1260 -552 1260 -455 1200 c 0,70,71
 -414 1174 -414 1174 -375 1174 c 0,72,73
 -342 1174 -342 1174 -307 1193 c 0,74,75
 -274 1210 -274 1210 -248 1254 c 1,76,77
 -235 1272 -235 1272 -211 1272 c 2,78,-1
 -205 1272 l 1,79,80
 -172 1267 -172 1267 -168 1243 c 1,81,82
 -166 1240 -166 1240 -166 1234 c 0,83,84
 -166 1225 -166 1225 -171 1216 c 0,43,44
EndSplineSet
Validated: 1
EndChar

StartChar: uni034D
Encoding: 845 845 166
Width: 0
Flags: W
LayerCount: 2
Fore
SplineSet
-820 -280 m 1,0,-1
 -173 -280 l 1,1,-1
 -210 -166 l 1,2,-1
 30 -342 l 1,3,-1
 -210 -517 l 1,4,-1
 -173 -403 l 1,5,-1
 -820 -403 l 1,6,-1
 -783 -517 l 1,7,-1
 -1023 -342 l 1,8,-1
 -783 -166 l 1,9,-1
 -820 -280 l 1,0,-1
EndSplineSet
Validated: 1
EndChar

StartChar: uni034E
Encoding: 846 846 167
Width: 0
Flags: W
LayerCount: 2
Fore
SplineSet
-408 -597 m 1,0,-1
 -541 -597 l 1,1,-1
 -541 -269 l 1,2,-1
 -649 -304 l 1,3,-1
 -474 -66 l 1,4,-1
 -301 -303 l 1,5,-1
 -408 -269 l 1,6,-1
 -408 -597 l 1,0,-1
EndSplineSet
Validated: 1
EndChar

StartChar: uni0350
Encoding: 848 848 168
Width: 0
Flags: W
LayerCount: 2
Fore
SplineSet
-339 1374 m 0,0,1
 -404 1320 -404 1320 -472 1266.5 c 128,-1,2
 -540 1213 -540 1213 -605 1161 c 1,3,4
 -616 1154 -616 1154 -628 1154 c 0,5,6
 -636 1154 -636 1154 -645 1158 c 1,7,-1
 -670 1173 l 1,8,9
 -688 1177 -688 1177 -688 1195 c 0,10,11
 -688 1200 -688 1200 -684 1208 c 1,12,-1
 -500 1396 l 1,13,-1
 -681 1580 l 2,14,15
 -688 1587 -688 1587 -688 1595 c 0,16,17
 -688 1608 -688 1608 -673 1616 c 2,18,-1
 -639 1635 l 1,19,-1
 -628 1635 l 2,20,21
 -620 1635 -620 1635 -608 1631 c 1,22,23
 -548 1580 -548 1580 -466.5 1520 c 128,-1,24
 -385 1460 -385 1460 -340 1417 c 1,25,26
 -327 1409 -327 1409 -327 1395 c 0,27,28
 -327 1384 -327 1384 -339 1374 c 0,0,1
EndSplineSet
Validated: 1
EndChar

StartChar: uni0351
Encoding: 849 849 169
Width: 0
Flags: W
LayerCount: 2
Fore
SplineSet
-412 1534 m 2,0,-1
 -385 1534 l 1,1,-1
 -385 1455 l 1,2,3
 -418 1466 -418 1466 -420 1466 c 0,4,5
 -454 1466 -454 1466 -479 1427 c 0,6,7
 -506 1384 -506 1384 -506 1327 c 2,8,-1
 -506 1315 l 1,9,10
 -502 1252 -502 1252 -472 1209.5 c 128,-1,11
 -442 1167 -442 1167 -385 1162 c 1,12,-1
 -385 1095 l 1,13,-1
 -412 1095 l 2,14,15
 -504 1095 -504 1095 -568 1159.5 c 128,-1,16
 -632 1224 -632 1224 -632 1314 c 0,17,18
 -632 1403 -632 1403 -568 1468.5 c 128,-1,19
 -504 1534 -504 1534 -412 1534 c 2,0,-1
EndSplineSet
Validated: 1
EndChar

StartChar: uni0352
Encoding: 850 850 170
Width: 0
Flags: W
LayerCount: 2
Fore
SplineSet
-508 1673 m 256,0,1
 -335 1673 -335 1673 -245 1551 c 1,2,3
 -185 1465 -185 1465 -179 1356 c 1,4,5
 -179 1309 -179 1309 -231 1309 c 0,6,7
 -270 1309 -270 1309 -282 1352 c 0,8,9
 -321 1502 -321 1502 -508 1502 c 2,10,-1
 -510 1502 l 1,11,12
 -695 1500 -695 1500 -735 1352 c 0,13,14
 -746 1309 -746 1309 -786 1309 c 0,15,16
 -837 1309 -837 1309 -837 1354 c 2,17,-1
 -837 1356 l 1,18,19
 -832 1464 -832 1464 -772 1551 c 1,20,21
 -681 1673 -681 1673 -508 1673 c 256,0,1
-508 1158 m 0,22,23
 -643 1158 -643 1158 -643 1289 c 0,24,25
 -643 1419 -643 1419 -508 1419 c 0,26,27
 -374 1419 -374 1419 -374 1289 c 0,28,29
 -374 1158 -374 1158 -508 1158 c 0,22,23
EndSplineSet
Validated: 1
EndChar

StartChar: uni0353
Encoding: 851 851 171
Width: 0
Flags: W
LayerCount: 2
Fore
SplineSet
-635 -64 m 1,0,-1
 -501 -197 l 1,1,-1
 -368 -64 l 1,2,-1
 -278 -154 l 1,3,-1
 -411 -288 l 1,4,-1
 -279 -421 l 1,5,-1
 -368 -512 l 1,6,-1
 -501 -378 l 1,7,-1
 -635 -512 l 1,8,-1
 -725 -421 l 1,9,-1
 -592 -288 l 1,10,-1
 -725 -154 l 1,11,-1
 -635 -64 l 1,0,-1
EndSplineSet
Validated: 1
EndChar

StartChar: uni0354
Encoding: 852 852 172
Width: 0
Flags: W
LayerCount: 2
Fore
SplineSet
-679 -308 m 1,0,1
 -689 -298 -689 -298 -689 -288 c 0,2,3
 -689 -277 -689 -277 -679 -267 c 0,4,5
 -631 -222 -631 -222 -549.5 -161.5 c 128,-1,6
 -468 -101 -468 -101 -411 -53 c 1,7,8
 -398 -47 -398 -47 -389 -47 c 0,9,10
 -375 -47 -375 -47 -369 -53 c 1,11,-1
 -344 -67 l 2,12,13
 -328 -75 -328 -75 -328 -87 c 0,14,15
 -328 -102 -328 -102 -341 -106 c 1,16,-1
 -517 -287 l 1,17,-1
 -335 -473 l 2,18,19
 -328 -480 -328 -480 -328 -488 c 0,20,21
 -328 -501 -328 -501 -344 -509 c 2,22,-1
 -378 -528 l 1,23,-1
 -388 -528 l 2,24,25
 -395 -528 -395 -528 -408 -525 c 1,26,27
 -477 -469 -477 -469 -544 -415.5 c 128,-1,28
 -611 -362 -611 -362 -679 -308 c 1,0,1
EndSplineSet
Validated: 1
EndChar

StartChar: uni0355
Encoding: 853 853 173
Width: 0
Flags: W
LayerCount: 2
Fore
SplineSet
-339 -309 m 0,0,1
 -404 -362 -404 -362 -472 -415.5 c 128,-1,2
 -540 -469 -540 -469 -608 -524 c 1,3,4
 -620 -528 -620 -528 -628 -528 c 2,5,-1
 -639 -528 l 1,6,-1
 -673 -509 l 2,7,8
 -688 -501 -688 -501 -688 -488 c 0,9,10
 -688 -479 -688 -479 -682 -473 c 2,11,-1
 -500 -287 l 1,12,-1
 -679 -104 l 1,13,14
 -689 -97 -689 -97 -689 -87 c 0,15,16
 -689 -69 -689 -69 -669 -65 c 1,17,-1
 -648 -53 l 1,18,19
 -642 -47 -642 -47 -628 -47 c 0,20,21
 -616 -47 -616 -47 -605 -54 c 1,22,23
 -548 -101 -548 -101 -466.5 -161.5 c 128,-1,24
 -385 -222 -385 -222 -339 -267 c 1,25,26
 -327 -276 -327 -276 -327 -288 c 0,27,28
 -327 -299 -327 -299 -339 -309 c 0,0,1
EndSplineSet
Validated: 1
EndChar

StartChar: uni0356
Encoding: 854 854 174
Width: 0
Flags: W
LayerCount: 2
Fore
SplineSet
-575 -310 m 1,0,1
 -638 -362 -638 -362 -705 -415.5 c 128,-1,2
 -772 -469 -772 -469 -842 -525 c 1,3,4
 -855 -528 -855 -528 -862 -528 c 2,5,-1
 -873 -528 l 1,6,-1
 -907 -509 l 2,7,8
 -922 -501 -922 -501 -922 -488 c 0,9,10
 -922 -480 -922 -480 -915 -473 c 2,11,-1
 -733 -287 l 1,12,-1
 -911 -105 l 1,13,14
 -921 -100 -921 -100 -921 -87 c 0,15,16
 -921 -77 -921 -77 -908 -68 c 1,17,-1
 -879 -51 l 1,18,19
 -870 -47 -870 -47 -861 -47 c 0,20,21
 -849 -47 -849 -47 -838 -54 c 1,22,23
 -781 -101 -781 -101 -699.5 -161.5 c 128,-1,24
 -618 -222 -618 -222 -573 -267 c 1,25,26
 -561 -276 -561 -276 -561 -288 c 0,27,28
 -561 -302 -561 -302 -575 -310 c 1,0,1
-313 -127 m 1,29,30
 -259 -191 -259 -191 -206 -259 c 128,-1,31
 -153 -327 -153 -327 -104 -389 c 1,32,33
 -95 -395 -95 -395 -95 -407 c 0,34,35
 -95 -416 -95 -416 -100 -421 c 1,36,-1
 -115 -449 l 1,37,38
 -128 -462 -128 -462 -143 -462 c 2,39,-1
 -156 -462 l 1,40,-1
 -342 -279 l 1,41,-1
 -527 -461 l 1,42,-1
 -541 -461 l 2,43,44
 -552 -461 -552 -461 -566 -451 c 1,45,-1
 -585 -419 l 2,46,47
 -588 -413 -588 -413 -588 -407 c 0,48,49
 -588 -390 -588 -390 -576 -386 c 1,50,51
 -534 -335 -534 -335 -473.5 -253 c 128,-1,52
 -413 -171 -413 -171 -369 -125 c 0,53,54
 -357 -113 -357 -113 -341 -113 c 0,55,56
 -323 -113 -323 -113 -313 -127 c 1,29,30
EndSplineSet
Validated: 1
EndChar

StartChar: uni0357
Encoding: 855 855 175
Width: 0
Flags: W
LayerCount: 2
Fore
SplineSet
-606 1534 m 2,0,1
 -513 1534 -513 1534 -449 1468.5 c 128,-1,2
 -385 1403 -385 1403 -385 1314 c 0,3,4
 -385 1224 -385 1224 -449 1159.5 c 128,-1,5
 -513 1095 -513 1095 -606 1095 c 2,6,-1
 -632 1095 l 1,7,-1
 -632 1162 l 1,8,9
 -574 1167 -574 1167 -544.5 1209 c 128,-1,10
 -515 1251 -515 1251 -512 1315 c 1,11,-1
 -512 1330 l 2,12,13
 -512 1386 -512 1386 -537 1427 c 1,14,15
 -562 1466 -562 1466 -598 1466 c 0,16,17
 -599 1466 -599 1466 -632 1455 c 1,18,-1
 -632 1534 l 1,19,-1
 -606 1534 l 2,0,1
EndSplineSet
Validated: 1
EndChar

StartChar: uni0358
Encoding: 856 856 176
Width: 0
Flags: W
LayerCount: 2
Fore
SplineSet
18 1420 m 0,0,1
 74 1420 74 1420 113 1381 c 128,-1,2
 152 1342 152 1342 152 1290 c 0,3,4
 152 1237 152 1237 113 1198 c 128,-1,5
 74 1159 74 1159 18 1159 c 0,6,7
 -116 1159 -116 1159 -116 1290 c 0,8,9
 -116 1420 -116 1420 18 1420 c 0,0,1
EndSplineSet
Validated: 1
EndChar

StartChar: uni0359
Encoding: 857 857 177
Width: 0
Flags: W
LayerCount: 2
Fore
SplineSet
-651 -199 m 2,0,-1
 -565 -248 l 1,1,-1
 -565 -143 l 2,2,3
 -565 -101 -565 -101 -524 -101 c 2,4,-1
 -493 -101 l 2,5,6
 -452 -101 -452 -101 -452 -143 c 2,7,-1
 -452 -248 l 1,8,-1
 -366 -199 l 2,9,10
 -351 -190 -351 -190 -336 -190 c 0,11,12
 -309 -190 -309 -190 -302 -211 c 1,13,-1
 -286 -237 l 2,14,15
 -282 -245 -282 -245 -282 -253 c 0,16,17
 -282 -272 -282 -272 -305 -286 c 2,18,-1
 -402 -342 l 1,19,-1
 -306 -398 l 1,20,21
 -282 -410 -282 -410 -282 -431 c 0,22,23
 -282 -439 -282 -439 -286 -447 c 2,24,-1
 -302 -473 l 1,25,26
 -310 -493 -310 -493 -336 -493 c 0,27,28
 -349 -493 -349 -493 -365 -486 c 1,29,-1
 -452 -436 l 1,30,-1
 -452 -541 l 2,31,32
 -452 -583 -452 -583 -493 -583 c 2,33,-1
 -524 -583 l 2,34,35
 -565 -583 -565 -583 -565 -541 c 2,36,-1
 -565 -436 l 1,37,-1
 -652 -486 l 1,38,39
 -668 -493 -668 -493 -680 -493 c 0,40,41
 -704 -493 -704 -493 -715 -474 c 2,42,-1
 -731 -447 l 2,43,44
 -735 -439 -735 -439 -735 -431 c 0,45,46
 -735 -410 -735 -410 -711 -398 c 1,47,-1
 -615 -342 l 1,48,-1
 -712 -286 l 1,49,50
 -735 -270 -735 -270 -735 -252 c 0,51,52
 -735 -245 -735 -245 -731 -237 c 2,53,-1
 -715 -210 l 1,54,55
 -705 -190 -705 -190 -680 -190 c 0,56,57
 -666 -190 -666 -190 -651 -199 c 2,0,-1
EndSplineSet
Validated: 1
EndChar

StartChar: uni035A
Encoding: 858 858 178
Width: 0
Flags: W
LayerCount: 2
Fore
SplineSet
-666 -87 m 0,0,1
 -554 -87 -554 -87 -508 -149 c 1,2,3
 -463 -87 -463 -87 -350 -87 c 0,4,5
 -257 -87 -257 -87 -193.5 -151.5 c 128,-1,6
 -130 -216 -130 -216 -130 -307 c 0,7,8
 -130 -396 -130 -396 -193.5 -461 c 128,-1,9
 -257 -526 -257 -526 -350 -526 c 0,10,11
 -464 -526 -464 -526 -508 -464 c 1,12,13
 -553 -526 -553 -526 -666 -526 c 0,14,15
 -759 -526 -759 -526 -823 -461 c 128,-1,16
 -887 -396 -887 -396 -887 -307 c 0,17,18
 -887 -216 -887 -216 -823 -151.5 c 128,-1,19
 -759 -87 -759 -87 -666 -87 c 0,0,1
-359 -155 m 0,20,21
 -393 -155 -393 -155 -418 -194 c 0,22,23
 -444 -236 -444 -236 -444 -294 c 2,24,-1
 -444 -306 l 1,25,26
 -441 -371 -441 -371 -408.5 -414.5 c 128,-1,27
 -376 -458 -376 -458 -341 -458 c 256,28,29
 -306 -458 -306 -458 -280 -418 c 0,30,31
 -255 -378 -255 -378 -255 -321 c 2,32,-1
 -255 -306 l 1,33,34
 -258 -241 -258 -241 -290.5 -198 c 128,-1,35
 -323 -155 -323 -155 -359 -155 c 0,20,21
-675 -155 m 0,36,37
 -709 -155 -709 -155 -734 -194 c 0,38,39
 -760 -236 -760 -236 -760 -294 c 2,40,-1
 -760 -306 l 1,41,42
 -757 -371 -757 -371 -724.5 -414.5 c 128,-1,43
 -692 -458 -692 -458 -657 -458 c 256,44,45
 -622 -458 -622 -458 -596 -418 c 0,46,47
 -571 -378 -571 -378 -571 -321 c 2,48,-1
 -571 -306 l 1,49,50
 -574 -241 -574 -241 -606 -198 c 128,-1,51
 -638 -155 -638 -155 -675 -155 c 0,36,37
EndSplineSet
Validated: 1
EndChar

StartChar: uni035B
Encoding: 859 859 179
Width: 0
Flags: W
LayerCount: 2
Fore
SplineSet
-549 1367 m 1,0,-1
 -192 1367 l 2,1,2
 -157 1367 -157 1367 -157 1337 c 2,3,-1
 -157 1251 l 2,4,5
 -157 1224 -157 1224 -172 1189 c 0,6,7
 -197 1128 -197 1128 -277 1032 c 0,8,9
 -289 1018 -289 1018 -305 1011 c 0,10,11
 -317 1006 -317 1006 -329 1006 c 0,12,13
 -350 1006 -350 1006 -363 1021 c 0,14,15
 -371 1031 -371 1031 -371 1042 c 0,16,17
 -371 1054 -371 1054 -362 1065 c 0,18,19
 -315 1123 -315 1123 -307 1169 c 0,20,21
 -305 1178 -305 1178 -305 1188 c 0,22,23
 -305 1212 -305 1212 -309 1220 c 1,24,-1
 -665 1220 l 2,25,26
 -701 1220 -701 1220 -701 1251 c 2,27,-1
 -701 1327 l 2,28,29
 -701 1354 -701 1354 -685 1395 c 1,30,31
 -658 1457 -658 1457 -579 1553 c 1,32,33
 -565 1565 -565 1565 -552 1572 c 1,34,35
 -538 1576 -538 1576 -528 1576 c 0,36,37
 -510 1576 -510 1576 -494 1563 c 1,38,39
 -485 1552 -485 1552 -485 1541 c 256,40,41
 -485 1530 -485 1530 -495 1518 c 0,42,43
 -541 1459 -541 1459 -550 1414 c 0,44,45
 -552 1405 -552 1405 -552 1395 c 0,46,47
 -552 1373 -552 1373 -549 1367 c 1,0,-1
EndSplineSet
Validated: 1
EndChar

StartChar: uni035C
Encoding: 860 860 180
Width: 0
Flags: W
LayerCount: 2
Fore
SplineSet
-211 -457 m 1,0,1
 -373 -449 -373 -449 -459 -334 c 1,2,3
 -519 -249 -519 -249 -524 -139 c 1,4,-1
 -524 -137 l 2,5,6
 -524 -93 -524 -93 -473 -93 c 0,7,8
 -430 -93 -430 -93 -421 -136 c 1,9,10
 -384 -277 -384 -277 -211 -286 c 1,11,-1
 236 -286 l 1,12,13
 413 -282 413 -282 451 -135 c 0,14,15
 462 -93 462 -93 502 -93 c 0,16,17
 554 -93 554 -93 554 -137 c 2,18,-1
 554 -139 l 1,19,20
 547 -253 547 -253 488 -334 c 0,21,22
 402 -452 402 -452 235 -457 c 1,23,-1
 -211 -457 l 1,0,1
EndSplineSet
Validated: 1
EndChar

StartChar: uni035D
Encoding: 861 861 181
Width: 0
Flags: W
LayerCount: 2
Fore
SplineSet
-210 1072 m 1,0,1
 -370 1076 -370 1076 -459 1194 c 1,2,3
 -519 1278 -519 1278 -524 1389 c 1,4,-1
 -524 1391 l 2,5,6
 -524 1436 -524 1436 -473 1436 c 0,7,8
 -429 1436 -429 1436 -421 1392 c 1,9,10
 -384 1250 -384 1250 -211 1243 c 1,11,-1
 236 1243 l 1,12,13
 413 1246 413 1246 450 1393 c 1,14,15
 462 1436 462 1436 502 1436 c 0,16,17
 554 1436 554 1436 554 1391 c 2,18,-1
 554 1389 l 1,19,20
 547 1274 547 1274 488 1194 c 0,21,22
 399 1075 399 1075 235 1072 c 1,23,-1
 -210 1072 l 1,0,1
EndSplineSet
Validated: 1
EndChar

StartChar: uni035E
Encoding: 862 862 182
Width: 0
Flags: W
LayerCount: 2
Fore
SplineSet
-492 1367 m 2,0,-1
 528 1367 l 2,1,2
 563 1367 563 1367 563 1337 c 2,3,-1
 563 1251 l 2,4,5
 563 1220 563 1220 528 1220 c 2,6,-1
 -492 1220 l 2,7,8
 -528 1220 -528 1220 -528 1251 c 2,9,-1
 -528 1337 l 2,10,11
 -528 1367 -528 1367 -492 1367 c 2,0,-1
EndSplineSet
Validated: 1
EndChar

StartChar: uni035F
Encoding: 863 863 183
Width: 0
Flags: W
LayerCount: 2
Fore
SplineSet
-492 -201 m 2,0,-1
 528 -201 l 2,1,2
 563 -201 563 -201 563 -232 c 2,3,-1
 563 -318 l 2,4,5
 563 -348 563 -348 528 -348 c 2,6,-1
 -492 -348 l 2,7,8
 -528 -348 -528 -348 -528 -318 c 2,9,-1
 -528 -232 l 2,10,11
 -528 -201 -528 -201 -492 -201 c 2,0,-1
EndSplineSet
Validated: 1
EndChar

StartChar: uni0360
Encoding: 864 864 184
Width: 0
Flags: W
LayerCount: 2
Fore
SplineSet
564 1347 m 0,0,1
 496 1234 496 1234 428 1177 c 1,2,3
 351 1117 351 1117 267 1117 c 0,4,5
 130 1117 130 1117 -28 1204 c 0,6,7
 -107 1247 -107 1247 -175 1247 c 0,8,9
 -228 1247 -228 1247 -275 1222 c 0,10,11
 -288 1214 -288 1214 -306.5 1203.5 c 128,-1,12
 -325 1193 -325 1193 -347 1177 c 1,13,14
 -383 1148 -383 1148 -413 1108 c 0,15,16
 -427 1088 -427 1088 -454 1088 c 0,17,18
 -470 1088 -470 1088 -488 1097 c 0,19,20
 -515 1110 -515 1110 -515 1134 c 0,21,22
 -515 1148 -515 1148 -503 1166 c 1,23,24
 -449 1238 -449 1238 -389.5 1319 c 128,-1,25
 -330 1400 -330 1400 -199 1400 c 0,26,27
 -46 1400 -46 1400 106 1309 c 0,28,29
 177 1266 177 1266 246 1266 c 0,30,31
 306 1266 306 1266 367 1298 c 1,32,33
 422 1325 422 1325 469 1396 c 0,34,35
 484 1420 484 1420 514 1420 c 0,36,37
 523 1420 523 1420 528 1418 c 1,38,39
 563 1413 563 1413 572 1380 c 1,40,-1
 572 1374 l 2,41,42
 572 1359 572 1359 564 1347 c 0,0,1
EndSplineSet
Validated: 1
EndChar

StartChar: uni0361
Encoding: 865 865 185
Width: 0
Flags: W
LayerCount: 2
Fore
SplineSet
235 1436 m 1,0,1
 400 1432 400 1432 488 1314 c 1,2,3
 547 1233 547 1233 554 1119 c 1,4,-1
 554 1117 l 2,5,6
 554 1072 554 1072 502 1072 c 0,7,8
 462 1072 462 1072 451 1114 c 0,9,10
 413 1261 413 1261 236 1265 c 0,11,12
 233 1265 233 1265 125 1266 c 1,13,-1
 17 1266 l 1,14,15
 16 1265 16 1265 -98 1265 c 2,16,-1
 -211 1265 l 1,17,18
 -384 1257 -384 1257 -421 1116 c 1,19,20
 -429 1072 -429 1072 -473 1072 c 0,21,22
 -524 1072 -524 1072 -524 1117 c 2,23,-1
 -524 1119 l 1,24,25
 -519 1229 -519 1229 -459 1314 c 1,26,27
 -371 1428 -371 1428 -211 1436 c 1,28,-1
 235 1436 l 1,0,1
EndSplineSet
Validated: 1
EndChar

StartChar: uni0362
Encoding: 866 866 186
Width: 0
Flags: W
LayerCount: 2
Fore
SplineSet
-536 -238 m 1,0,-1
 449 -238 l 1,1,-1
 412 -124 l 1,2,-1
 652 -300 l 1,3,-1
 412 -475 l 1,4,-1
 449 -361 l 1,5,-1
 -536 -361 l 1,6,-1
 -536 -238 l 1,0,-1
EndSplineSet
Validated: 1
EndChar

StartChar: uni0363
Encoding: 867 867 187
Width: 0
VWidth: 2205
Flags: W
LayerCount: 2
Fore
SplineSet
-565 1076 m 2,0,-1
 -592 1076 l 1,1,2
 -691 1080 -691 1080 -761 1143 c 0,3,4
 -841 1214 -841 1214 -841 1335 c 0,5,6
 -841 1367 -841 1367 -835 1404 c 128,-1,7
 -829 1441 -829 1441 -802 1477.5 c 128,-1,8
 -775 1514 -775 1514 -746 1532 c 128,-1,9
 -717 1550 -717 1550 -697 1558 c 1,10,11
 -478 1627 -478 1627 -464 1627 c 2,12,-1
 -460 1627 l 1,13,14
 -416 1625 -416 1625 -383 1616 c 128,-1,15
 -350 1607 -350 1607 -332 1601 c 128,-1,16
 -314 1595 -314 1595 -304 1595 c 0,17,18
 -295 1595 -295 1595 -282 1610 c 0,19,20
 -274 1619 -274 1619 -263 1619 c 256,21,22
 -253 1619 -253 1619 -238 1614.5 c 128,-1,23
 -223 1610 -223 1610 -223 1597 c 2,24,-1
 -223 1179 l 2,25,26
 -223 1151 -223 1151 -191 1141.5 c 128,-1,27
 -159 1132 -159 1132 -159 1111 c 0,28,29
 -159 1089 -159 1089 -189 1089 c 2,30,-1
 -344 1089 l 2,31,32
 -371 1089 -371 1089 -371 1107 c 2,33,-1
 -371 1130 l 1,34,-1
 -525 1083 l 2,35,36
 -548 1076 -548 1076 -565 1076 c 2,0,-1
-503 1561 m 2,37,38
 -513 1561 -513 1561 -551.5 1548.5 c 128,-1,39
 -590 1536 -590 1536 -608 1530 c 128,-1,40
 -626 1524 -626 1524 -633 1518 c 0,41,42
 -670 1485 -670 1485 -681.5 1442 c 128,-1,43
 -693 1399 -693 1399 -693 1387 c 2,44,-1
 -693 1370 l 2,45,46
 -693 1272 -693 1272 -649 1221 c 0,47,48
 -588 1151 -588 1151 -501 1151 c 0,49,50
 -479 1151 -479 1151 -450.5 1160 c 128,-1,51
 -422 1169 -422 1169 -371 1185 c 1,52,-1
 -371 1511 l 1,53,54
 -391 1527 -391 1527 -431 1543.5 c 128,-1,55
 -471 1560 -471 1560 -501 1561 c 1,56,-1
 -503 1561 l 2,37,38
EndSplineSet
Validated: 1
EndChar

StartChar: uni0364
Encoding: 868 868 188
Width: 0
VWidth: 2205
Flags: W
LayerCount: 2
Fore
SplineSet
-478 1629 m 2,0,1
 -344 1629 -344 1629 -273.5 1564.5 c 128,-1,2
 -203 1500 -203 1500 -203 1398 c 1,3,4
 -204 1376 -204 1376 -206 1361.5 c 128,-1,5
 -208 1347 -208 1347 -247 1347 c 2,6,-1
 -639 1347 l 1,7,8
 -637 1273 -637 1273 -589.5 1219 c 128,-1,9
 -542 1165 -542 1165 -471 1153 c 0,10,11
 -451 1149 -451 1149 -430 1149 c 0,12,13
 -374 1149 -374 1149 -323 1172.5 c 128,-1,14
 -272 1196 -272 1196 -258 1196 c 256,15,16
 -245 1196 -245 1196 -238 1191 c 128,-1,17
 -231 1186 -231 1186 -231 1178 c 0,18,19
 -231 1169 -231 1169 -240 1154.5 c 128,-1,20
 -249 1140 -249 1140 -254.5 1135.5 c 128,-1,21
 -260 1131 -260 1131 -265 1127 c 0,22,23
 -340 1072 -340 1072 -466 1072 c 1,24,25
 -643 1074 -643 1074 -730 1168 c 0,26,27
 -798 1240 -798 1240 -798 1338 c 0,28,29
 -798 1367 -798 1367 -793 1399 c 0,30,31
 -774 1502 -774 1502 -693.5 1565 c 128,-1,32
 -613 1628 -613 1628 -481 1629 c 1,33,-1
 -478 1629 l 2,0,1
-334 1408 m 1,34,35
 -334 1461 -334 1461 -365.5 1510.5 c 128,-1,36
 -397 1560 -397 1560 -477 1560 c 2,37,-1
 -484 1560 l 1,38,39
 -564 1558 -564 1558 -600 1509 c 128,-1,40
 -636 1460 -636 1460 -638 1408 c 1,41,-1
 -334 1408 l 1,34,35
EndSplineSet
Validated: 1
EndChar

StartChar: uni0365
Encoding: 869 869 189
Width: 0
VWidth: 2205
Flags: W
LayerCount: 2
Fore
SplineSet
-514 1867 m 0,0,1
 -428 1867 -428 1867 -427 1797 c 0,2,3
 -427 1726 -427 1726 -514 1726 c 0,4,5
 -600 1726 -600 1726 -600 1797 c 0,6,7
 -600 1867 -600 1867 -514 1867 c 0,0,1
-427 1179 m 2,8,9
 -427 1151 -427 1151 -395 1141 c 0,10,11
 -363 1132 -363 1132 -363 1111 c 0,12,13
 -363 1089 -363 1089 -392 1089 c 2,14,-1
 -609 1089 l 2,15,16
 -638 1089 -638 1089 -638 1111 c 0,17,18
 -638 1132 -638 1132 -606 1141 c 0,19,20
 -574 1150 -574 1150 -574 1179 c 2,21,-1
 -574 1524 l 2,22,23
 -574 1551 -574 1551 -606 1561 c 0,24,25
 -638 1571 -638 1571 -638 1592 c 0,26,27
 -638 1614 -638 1614 -610 1614 c 1,28,29
 -570 1616 -570 1616 -530 1625 c 0,30,31
 -490 1634 -490 1634 -427 1652 c 1,32,-1
 -427 1179 l 2,8,9
EndSplineSet
Validated: 1
EndChar

StartChar: uni0366
Encoding: 870 870 190
Width: 0
VWidth: 2205
Flags: W
LayerCount: 2
Fore
SplineSet
-170 1348 m 2,0,1
 -170 1236 -170 1236 -265.5 1157.5 c 128,-1,2
 -361 1079 -361 1079 -501 1076 c 1,3,-1
 -511 1076 l 2,4,5
 -642 1076 -642 1076 -736.5 1157 c 128,-1,6
 -831 1238 -831 1238 -831 1349 c 2,7,-1
 -831 1351 l 1,8,9
 -830 1473 -830 1473 -722 1557 c 0,10,11
 -707 1568 -707 1568 -681.5 1575.5 c 128,-1,12
 -656 1583 -656 1583 -618 1595 c 128,-1,13
 -580 1607 -580 1607 -545.5 1617 c 128,-1,14
 -511 1627 -511 1627 -488 1627 c 2,15,-1
 -485 1627 l 1,16,17
 -353 1623 -353 1623 -262.5 1542.5 c 128,-1,18
 -172 1462 -172 1462 -170 1351 c 1,19,-1
 -170 1348 l 2,0,1
-507 1569 m 2,20,21
 -573 1569 -573 1569 -624.5 1510.5 c 128,-1,22
 -676 1452 -676 1452 -676 1360 c 256,23,24
 -676 1268 -676 1268 -623.5 1202.5 c 128,-1,25
 -571 1137 -571 1137 -500 1134 c 1,26,-1
 -491 1134 l 2,27,28
 -426 1134 -426 1134 -374.5 1192.5 c 128,-1,29
 -323 1251 -323 1251 -323 1343 c 256,30,31
 -323 1435 -323 1435 -376 1500.5 c 128,-1,32
 -429 1566 -429 1566 -500 1569 c 1,33,-1
 -507 1569 l 2,20,21
EndSplineSet
Validated: 1
EndChar

StartChar: uni0367
Encoding: 871 871 191
Width: 0
VWidth: 2205
Flags: W
LayerCount: 2
Fore
SplineSet
-210 1179 m 2,0,1
 -210 1151 -210 1151 -178 1141.5 c 128,-1,2
 -146 1132 -146 1132 -146 1111 c 0,3,4
 -146 1089 -146 1089 -176 1089 c 2,5,-1
 -331 1089 l 2,6,7
 -358 1089 -358 1089 -358 1107 c 2,8,-1
 -358 1125 l 1,9,10
 -370 1121 -370 1121 -397.5 1112 c 128,-1,11
 -425 1103 -425 1103 -450 1096 c 0,12,13
 -511 1079 -511 1079 -575 1074 c 0,14,15
 -585 1073 -585 1073 -594 1073 c 0,16,17
 -654 1073 -654 1073 -706 1106 c 1,18,19
 -789 1160 -789 1160 -790 1330 c 2,20,-1
 -790 1524 l 2,21,22
 -790 1551 -790 1551 -822 1561 c 128,-1,23
 -854 1571 -854 1571 -854 1592 c 0,24,25
 -854 1614 -854 1614 -825 1614 c 1,26,27
 -785 1616 -785 1616 -745 1625 c 128,-1,28
 -705 1634 -705 1634 -642 1652 c 1,29,-1
 -642 1330 l 2,30,31
 -642 1215 -642 1215 -587 1170 c 0,32,33
 -554 1143 -554 1143 -509 1143 c 0,34,35
 -481 1143 -481 1143 -447 1153 c 0,36,37
 -435 1156 -435 1156 -413 1163 c 128,-1,38
 -391 1170 -391 1170 -376 1175 c 0,39,40
 -372 1176 -372 1176 -365 1178 c 2,41,-1
 -358 1180 l 1,42,-1
 -358 1524 l 2,43,44
 -358 1551 -358 1551 -390 1561 c 128,-1,45
 -422 1571 -422 1571 -422 1592 c 0,46,47
 -422 1614 -422 1614 -393 1614 c 1,48,49
 -353 1616 -353 1616 -313.5 1625 c 128,-1,50
 -274 1634 -274 1634 -210 1652 c 1,51,-1
 -210 1179 l 2,0,1
EndSplineSet
Validated: 1
EndChar

StartChar: uni0368
Encoding: 872 872 192
Width: 0
VWidth: 2205
Flags: W
LayerCount: 2
Fore
SplineSet
-440 1627 m 2,0,1
 -330 1627 -330 1627 -232 1574 c 1,2,-1
 -243 1476 l 1,3,4
 -246 1459 -246 1459 -267 1460 c 2,5,-1
 -269 1460 l 1,6,7
 -288 1461 -288 1461 -296 1478 c 0,8,9
 -320 1522 -320 1522 -357 1540.5 c 128,-1,10
 -394 1559 -394 1559 -448 1559 c 2,11,-1
 -463 1559 l 1,12,13
 -526 1556 -526 1556 -557 1530 c 1,14,15
 -622 1479 -622 1479 -622 1380 c 0,16,17
 -622 1365 -622 1365 -620 1348 c 0,18,19
 -614 1270 -614 1270 -571 1221 c 1,20,21
 -515 1158 -515 1158 -449 1150 c 0,22,23
 -438 1149 -438 1149 -426 1149 c 0,24,25
 -368 1149 -368 1149 -321 1173 c 128,-1,26
 -274 1197 -274 1197 -260 1197 c 256,27,28
 -246 1196 -246 1196 -232 1194 c 1,29,30
 -228 1184 -228 1184 -227 1177 c 0,31,32
 -227 1169 -227 1169 -237 1153.5 c 128,-1,33
 -247 1138 -247 1138 -261 1128 c 1,34,35
 -337 1076 -337 1076 -463 1076 c 256,36,37
 -588 1076 -588 1076 -675 1135 c 1,38,39
 -774 1205 -774 1205 -774 1338 c 0,40,41
 -774 1371 -774 1371 -769 1405 c 1,42,43
 -740 1529 -740 1529 -616 1590 c 0,44,45
 -546 1624 -546 1624 -454 1627 c 1,46,-1
 -440 1627 l 2,0,1
EndSplineSet
Validated: 1
EndChar

StartChar: uni0369
Encoding: 873 873 193
Width: 0
VWidth: 2205
Flags: W
LayerCount: 2
Fore
SplineSet
-371 1130 m 1,0,-1
 -525 1083 l 2,1,2
 -549 1076 -549 1076 -565 1076 c 2,3,-1
 -592 1076 l 1,4,5
 -691 1080 -691 1080 -760 1142 c 0,6,7
 -830 1205 -830 1205 -839 1293 c 0,8,9
 -842 1316 -842 1316 -842 1338 c 0,10,11
 -842 1367 -842 1367 -837 1393 c 0,12,13
 -829 1441 -829 1441 -793 1489 c 1,14,15
 -776 1514 -776 1514 -733 1542 c 1,16,17
 -717 1551 -717 1551 -698 1558 c 1,18,19
 -646 1574 -646 1574 -594.5 1590.5 c 128,-1,20
 -543 1607 -543 1607 -491 1623 c 0,21,22
 -477 1627 -477 1627 -464 1627 c 2,23,-1
 -460 1627 l 1,24,25
 -416 1625 -416 1625 -355 1609 c 1,26,-1
 -354 1609 l 1,27,28
 -354 1610 -354 1610 -371 1616 c 1,29,-1
 -371 1779 l 2,30,31
 -371 1807 -371 1807 -403 1816.5 c 128,-1,32
 -435 1826 -435 1826 -435 1847 c 0,33,34
 -435 1869 -435 1869 -406 1869 c 1,35,36
 -366 1871 -366 1871 -326.5 1879.5 c 128,-1,37
 -287 1888 -287 1888 -223 1906 c 1,38,-1
 -223 1179 l 2,39,40
 -223 1151 -223 1151 -191 1141.5 c 128,-1,41
 -159 1132 -159 1132 -159 1111 c 0,42,43
 -159 1089 -159 1089 -189 1089 c 2,44,-1
 -344 1089 l 2,45,46
 -371 1089 -371 1089 -371 1107 c 2,47,-1
 -371 1130 l 1,0,-1
-371 1512 m 1,48,49
 -394 1529 -394 1529 -433 1544.5 c 128,-1,50
 -472 1560 -472 1560 -501 1561 c 1,51,-1
 -503 1561 l 2,52,53
 -512 1561 -512 1561 -522 1558 c 0,54,55
 -545 1551 -545 1551 -568 1543.5 c 128,-1,56
 -591 1536 -591 1536 -614 1529 c 1,57,58
 -626 1524 -626 1524 -633 1518 c 0,59,60
 -670 1485 -670 1485 -683 1437 c 1,61,62
 -694 1399 -694 1399 -694 1362 c 0,63,64
 -694 1351 -694 1351 -692 1339 c 0,65,66
 -685 1264 -685 1264 -644 1217 c 1,67,68
 -604 1170 -604 1170 -546 1157 c 0,69,70
 -524 1152 -524 1152 -502 1151 c 0,71,72
 -495 1151 -495 1151 -488 1152 c 0,73,74
 -476 1153 -476 1153 -459 1158 c 0,75,76
 -444 1162 -444 1162 -412.5 1172 c 128,-1,77
 -381 1182 -381 1182 -371 1185 c 1,78,-1
 -371 1512 l 1,48,49
EndSplineSet
Validated: 1
EndChar

StartChar: uni036A
Encoding: 874 874 194
Width: 0
VWidth: 2205
Flags: W
LayerCount: 2
Fore
SplineSet
-642 1179 m 2,0,1
 -642 1151 -642 1151 -610 1141.5 c 128,-1,2
 -578 1132 -578 1132 -578 1111 c 0,3,4
 -578 1089 -578 1089 -607 1089 c 2,5,-1
 -824 1089 l 2,6,7
 -853 1089 -853 1089 -854 1111 c 0,8,9
 -854 1132 -854 1132 -822 1141.5 c 128,-1,10
 -790 1151 -790 1151 -790 1179 c 2,11,-1
 -790 1779 l 2,12,13
 -790 1807 -790 1807 -822 1816.5 c 128,-1,14
 -854 1826 -854 1826 -854 1847 c 0,15,16
 -854 1869 -854 1869 -825 1869 c 1,17,18
 -785 1871 -785 1871 -745 1879.5 c 128,-1,19
 -705 1888 -705 1888 -642 1906 c 1,20,-1
 -642 1578 l 1,21,22
 -629 1582 -629 1582 -602.5 1590.5 c 128,-1,23
 -576 1599 -576 1599 -533 1611.5 c 128,-1,24
 -490 1624 -490 1624 -453 1627 c 128,-1,25
 -416 1630 -416 1630 -407 1630 c 0,26,27
 -347 1630 -347 1630 -294 1596 c 0,28,29
 -211 1543 -211 1543 -211 1373 c 2,30,-1
 -211 1179 l 2,31,32
 -211 1151 -211 1151 -179 1141.5 c 128,-1,33
 -147 1132 -147 1132 -147 1111 c 0,34,35
 -147 1089 -147 1089 -176 1089 c 2,36,-1
 -331 1089 l 2,37,38
 -358 1089 -358 1089 -358 1107 c 2,39,-1
 -358 1373 l 2,40,41
 -358 1487 -358 1487 -413 1533 c 0,42,43
 -446 1560 -446 1560 -491 1560 c 0,44,45
 -519 1560 -519 1560 -542.5 1553 c 128,-1,46
 -566 1546 -566 1546 -587.5 1539.5 c 128,-1,47
 -609 1533 -609 1533 -625 1527 c 1,48,49
 -640 1523 -640 1523 -642 1522 c 1,50,-1
 -642 1179 l 2,0,1
EndSplineSet
Validated: 1
EndChar

